<?xml version="1.0" encoding="utf-8"?>
<!-- Generator: Adobe Illustrator 27.5.0, SVG Export Plug-In . SVG Version: 6.00 Build 0)  -->
<svg version="1.1" xmlns="http://www.w3.org/2000/svg" xmlns:xlink="http://www.w3.org/1999/xlink" x="0px" y="0px"
	 viewBox="0 0 750 500" style="enable-background:new 0 0 750 500;" xml:space="preserve">
<g id="Background_Simple">
	<g>
		<path style="fill:#92E3A9;" d="M680.537,268.536c-20.538-36.17-45.863-69.383-75.128-98.685
			c-31.579-31.618-63.772-52.993-105.301-66.826C471.99,93.66,442.662,88.3,413.2,87.304
			c-54.784-1.852-99.973,11.193-144.979,44.105c-48.25,35.285-93.262,75.215-140.281,112.271c-4.908,3.868-9.835,7.708-14.788,11.51
			C31.149,318.138-8.682,429.955,46.769,457.288h638.071c0,0,58.04-3.068,43.735-65.435
			C718.562,348.199,702.217,306.72,680.537,268.536z"/>
		<path style="opacity:0.7;fill:#FFFFFF;" d="M680.537,268.536c-20.538-36.17-45.863-69.383-75.128-98.685
			c-31.579-31.618-63.772-52.993-105.301-66.826C471.99,93.66,442.662,88.3,413.2,87.304
			c-54.784-1.852-99.973,11.193-144.979,44.105c-48.25,35.285-93.262,75.215-140.281,112.271c-4.908,3.868-9.835,7.708-14.788,11.51
			C31.149,318.138-8.682,429.955,46.769,457.288h638.071c0,0,58.04-3.068,43.735-65.435
			C718.562,348.199,702.217,306.72,680.537,268.536z"/>
	</g>
</g>
<g id="Floor">
	<g>
		
			<line style="fill:#FFFFFF;stroke:#000000;stroke-linecap:round;stroke-linejoin:round;stroke-miterlimit:10;" x1="713.646" y1="457.288" x2="732.244" y2="457.288"/>
		
			<line style="fill:#FFFFFF;stroke:#000000;stroke-linecap:round;stroke-linejoin:round;stroke-miterlimit:10;" x1="24.639" y1="457.288" x2="705.676" y2="457.288"/>
	</g>
</g>
<g id="Plant">
	<g>
		<g>
			<g>
				<path style="fill:#263238;" d="M601.875,330.069c2.736,1.195,9.427,1.044,9.432,1.044c0.069-0.002-1.438-4.38-1.565-4.646
					c-1.468-3.071-6.111-8.142-9.889-7.632c-2.721,0.368-4.235,3.092-3.621,5.654C596.86,327.107,599.545,329.051,601.875,330.069z"
					/>
				<path style="fill:#263238;" d="M604.185,349.451c2.838,0.414,8.809-1.318,9.284-1.458c0.943,3.343,2.182,6.697,3.622,10.021
					c0.821,1.902,1.708,3.792,2.621,5.676c-0.545-0.798-1.038-1.507-1.117-1.599c-2.228-2.575-8.045-6.239-11.553-4.749
					c-2.529,1.073-3.268,4.099-1.999,6.409c1.295,2.358,4.4,3.525,6.915,3.891c2.553,0.373,7.674-1.002,9.024-1.384
					c0.358,0.72,0.706,1.441,1.067,2.159c1.73,3.443,3.469,6.871,5.073,10.287c0.566,1.203,1.079,2.409,1.597,3.614
					c-0.484-0.709-0.899-1.301-0.971-1.385c-2.227-2.574-8.044-6.239-11.553-4.749c-2.528,1.073-3.269,4.1-1.999,6.409
					c1.297,2.358,4.4,3.525,6.916,3.891c2.436,0.355,7.174-0.871,8.781-1.317c0.493,1.25,0.989,2.5,1.411,3.733
					c0.269,0.849,0.587,1.647,0.809,2.514c0.239,0.854,0.474,1.699,0.707,2.536c0.391,1.628,0.804,3.307,1.145,4.905
					c0.246,1.11,0.46,2.173,0.678,3.242c-0.549-1.205-1.675-3.539-1.791-3.724c-1.811-2.882-7.006-7.385-10.7-6.444
					c-2.661,0.678-3.852,3.558-2.946,6.032c0.924,2.528,3.814,4.151,6.246,4.894c2.677,0.818,8.604,0.071,9.344-0.028
					c0.356,1.771,0.684,3.497,0.968,5.13c0.152,0.865,0.285,1.677,0.419,2.493h2.357c-0.174-0.941-0.356-1.903-0.556-2.909
					c-0.353-1.8-0.767-3.715-1.21-5.679c0.446-0.177,2.973-1.2,5.213-2.451c1.951,2.113,6.95,4.586,7.598,4.9
					c-0.68,1.673-1.358,3.294-2.023,4.813c-0.2,0.46-0.393,0.888-0.588,1.326h2.483c0.062-0.149,0.123-0.293,0.186-0.447
					c0.698-1.696,1.41-3.523,2.124-5.405c0.717,0.15,6.584,1.341,9.319,0.724c2.479-0.56,5.484-1.964,6.594-4.416
					c1.087-2.399,0.114-5.36-2.49-6.234c-3.613-1.214-9.129,2.89-11.15,5.629c-0.12,0.161-1.217,2.059-1.89,3.268
					c0.287-0.77,0.575-1.515,0.861-2.313c0.578-1.572,1.106-3.158,1.682-4.862c0.249-0.832,0.501-1.674,0.755-2.523
					c0.269-0.837,0.448-1.756,0.679-2.641c0.492-2.064,0.889-4.179,1.242-6.318c1.377,0.501,6.296,2.212,8.844,2.033
					c2.536-0.178,5.717-1.109,7.186-3.365c1.438-2.208,0.925-5.282-1.516-6.541c-3.388-1.747-9.462,1.474-11.875,3.876
					c-0.151,0.149-1.688,2.067-2.512,3.137c0.203-1.288,0.41-2.571,0.573-3.881c0.469-3.78,0.826-7.62,1.2-11.45
					c0.114-1.173,0.241-2.341,0.365-3.51c0.489,0.184,6.29,2.344,9.144,2.143c2.536-0.178,5.718-1.11,7.186-3.365
					c1.438-2.207,0.925-5.281-1.516-6.539c-3.388-1.748-9.462,1.473-11.874,3.875c-0.182,0.181-2.39,2.943-2.918,3.674
					c0.272-2.576,0.567-5.139,0.961-7.655c0.538-3.471,1.258-6.848,2.197-10.067c0.227,0.086,6.272,2.367,9.195,2.163
					c2.536-0.178,5.718-1.11,7.186-3.366c1.438-2.207,0.925-5.281-1.516-6.54c-3.388-1.747-9.461,1.474-11.875,3.875
					c-0.189,0.189-2.563,3.162-2.956,3.732c0.057-0.191,0.094-0.396,0.153-0.586c1.047-3.424,2.49-6.61,3.988-9.526
					c0.867-1.697,1.791-3.27,2.724-4.78c1.083,0.541,6.056,2.956,8.707,3.062c2.541,0.102,5.805-0.475,7.512-2.555
					c1.672-2.037,1.5-5.148-0.788-6.667c-3.177-2.109-9.567,0.426-12.229,2.548c-0.145,0.115-1.486,1.451-2.449,2.438
					c0.431-0.675,0.864-1.38,1.29-2.018c1.595-2.402,3.203-4.502,4.642-6.352c0.827-1.045,1.595-1.973,2.324-2.835
					c1.338-0.023,6.732-0.187,9.091-1.294c2.301-1.081,4.933-3.097,5.49-5.73c0.545-2.579-1.042-5.26-3.772-5.554
					c-3.79-0.409-8.294,4.786-9.679,7.895c-0.119,0.269-1.508,4.687-1.438,4.687c0,0,0.065-0.001,0.081-0.001
					c-0.718,0.814-1.477,1.696-2.288,2.676c-1.483,1.822-3.141,3.893-4.794,6.269c-1.658,2.371-3.393,4.993-4.971,7.919
					c-1.586,2.932-3.103,6.096-4.246,9.559c-0.013,0.039-0.021,0.082-0.035,0.121c0.02-1.117-0.029-4.241-0.061-4.48
					c-0.438-3.376-3.267-9.642-7.016-10.335c-2.7-0.499-4.988,1.616-5.203,4.243c-0.219,2.682,1.725,5.366,3.621,7.061
					c2.139,1.91,8.075,3.759,8.547,3.906c-1.058,3.308-1.875,6.788-2.508,10.355c-0.364,2.04-0.667,4.105-0.944,6.18
					c-0.014-0.966-0.034-1.83-0.05-1.95c-0.438-3.376-3.267-9.641-7.016-10.334c-2.701-0.5-4.988,1.617-5.203,4.243
					c-0.22,2.682,1.725,5.367,3.621,7.061c1.924,1.718,6.953,3.398,8.29,3.824c-0.098,0.797-0.205,1.592-0.3,2.389
					c-0.457,3.825-0.897,7.645-1.443,11.379c-0.191,1.316-0.429,2.604-0.662,3.894c-0.013-0.857-0.032-1.58-0.046-1.689
					c-0.438-3.377-3.267-9.642-7.015-10.335c-2.702-0.499-4.989,1.616-5.204,4.243c-0.22,2.681,1.726,5.366,3.622,7.06
					c1.835,1.64,6.464,3.232,8.05,3.746c-0.278,1.314-0.554,2.631-0.883,3.892c-0.244,0.856-0.419,1.696-0.712,2.543
					c-0.273,0.843-0.542,1.679-0.809,2.506c-0.573,1.574-1.154,3.202-1.751,4.723c-0.407,1.062-0.815,2.066-1.223,3.078
					c0.206-1.307,0.556-3.876,0.561-4.093c0.052-2.261-0.751-5.937-2.35-8.521c0.01-0.334-0.009-0.667-0.062-0.998
					c-0.418-2.602-2.862-4.534-5.517-3.827c-3.684,0.981-6.02,7.447-6.194,10.846c-0.01,0.2,0.121,2.389,0.226,3.768
					c-0.186-0.802-0.356-1.581-0.557-2.404c-0.387-1.629-0.82-3.243-1.28-4.983c-0.251-0.832-0.506-1.672-0.763-2.521
					c-0.237-0.846-0.594-1.711-0.89-2.576c-0.729-1.992-1.564-3.976-2.449-5.955c1.426-0.342,6.472-1.628,8.498-3.183
					c2.017-1.547,4.156-4.08,4.137-6.77c-0.019-2.635-2.141-4.916-4.872-4.619c-3.79,0.411-7.079,6.449-7.767,9.783
					c-0.042,0.208-0.267,2.656-0.365,4.003c-0.542-1.185-1.077-2.372-1.664-3.553c-1.693-3.412-3.514-6.812-5.316-10.212
					c-0.552-1.041-1.09-2.085-1.633-3.128c0.509-0.117,6.54-1.516,8.81-3.257c2.017-1.548,4.157-4.08,4.137-6.771
					c-0.019-2.634-2.142-4.915-4.872-4.618c-3.79,0.411-7.079,6.448-7.767,9.782c-0.051,0.251-0.369,3.773-0.406,4.673
					c-1.194-2.297-2.362-4.599-3.422-6.914c-1.466-3.192-2.728-6.405-3.721-9.609c0.237-0.054,6.538-1.487,8.863-3.269
					c2.017-1.548,4.157-4.08,4.137-6.771c-0.018-2.635-2.142-4.915-4.873-4.619c-3.789,0.411-7.079,6.449-7.766,9.783
					c-0.054,0.262-0.394,4.052-0.406,4.742c-0.059-0.19-0.141-0.381-0.197-0.571c-1.016-3.434-1.569-6.888-1.929-10.147
					c-0.213-1.893-0.31-3.714-0.365-5.488c1.201-0.147,6.682-0.876,8.951-2.25c2.176-1.317,4.58-3.599,4.856-6.275
					c0.271-2.621-1.589-5.121-4.335-5.126c-3.812-0.007-7.745,5.633-8.794,8.87c-0.057,0.176-0.44,2.031-0.698,3.385
					c-0.012-0.801-0.04-1.628-0.037-2.395c0.005-2.883,0.187-5.523,0.368-7.859c0.113-1.328,0.242-2.526,0.375-3.646
					c1.103-0.758,5.512-3.871,6.868-6.095c1.324-2.171,2.406-5.304,1.418-7.807c-0.967-2.451-3.771-3.813-6.209-2.552
					c-3.387,1.75-4.278,8.568-3.718,11.926c0.049,0.29,1.328,4.741,1.386,4.702c0,0,0.054-0.037,0.067-0.046
					c-0.149,1.075-0.296,2.229-0.432,3.494c-0.232,2.337-0.473,4.979-0.54,7.874c-0.075,2.891-0.076,6.036,0.223,9.348
					c0.295,3.319,0.774,6.797,1.732,10.315c0.011,0.04,0.028,0.08,0.039,0.12c-0.6-0.942-2.365-3.521-2.523-3.703
					c-2.227-2.575-8.044-6.239-11.553-4.75c-2.528,1.074-3.269,4.1-1.999,6.41C598.567,347.918,601.669,349.084,604.185,349.451z"/>
				<path style="fill:#263238;" d="M669.556,331.54c0.059,0.037,1.217-4.447,1.258-4.738c0.469-3.371-0.606-10.162-4.038-11.821
					c-2.473-1.194-5.238,0.243-6.138,2.719c-0.92,2.528,0.246,5.631,1.628,7.765C663.887,327.972,669.551,331.538,669.556,331.54z"
					/>
			</g>
		</g>
		<g>
			<path style="fill:#FFFFFF;stroke:#263238;stroke-linecap:round;stroke-miterlimit:10;" d="M651.292,457.288h-15.623
				c-9.399,0-17.018-7.619-17.018-17.018v-32.012h49.659v32.012C668.31,449.669,660.69,457.288,651.292,457.288z"/>
			<g>
				<path style="fill:#FFFFFF;stroke:#263238;stroke-linecap:round;stroke-miterlimit:10;" d="M668.31,433.224v-6.031
					c-3.948,3.102-9.076,2.415-12.828,0.045c-6.815-4.301-14.757-0.935-15.094-0.789c-1.326,0.577-1.933,2.119-1.357,3.446
					c0.577,1.326,2.118,1.932,3.446,1.357c0.054-0.026,5.782-2.382,10.207,0.415c3.042,1.921,6.309,2.858,9.463,2.858
					C664.291,434.525,666.375,434.075,668.31,433.224z"/>
				<path style="fill:#FFFFFF;stroke:#263238;stroke-linecap:round;stroke-miterlimit:10;" d="M618.651,432.436
					c2.952-0.434,6.56-1.517,10.964-3.635c8.698-4.184,23.809-10.175,27.247-3.297c0.647,1.293,2.217,1.819,3.514,1.171
					c1.294-0.647,1.818-2.22,1.171-3.514c-4.153-8.302-15.659-7.995-34.2,0.919c-3.61,1.736-6.448,2.628-8.696,3.039V432.436z"/>
			</g>
			<path style="fill:#FFFFFF;stroke:#263238;stroke-linecap:round;stroke-miterlimit:10;" d="M627.012,420.26
				c0,1.019-0.826,1.845-1.845,1.845s-1.845-0.826-1.845-1.845c0-1.019,0.826-1.845,1.845-1.845S627.012,419.241,627.012,420.26z"/>
			<path style="fill:#FFFFFF;stroke:#263238;stroke-linecap:round;stroke-miterlimit:10;" d="M637.619,416.57
				c0,1.019-0.826,1.845-1.845,1.845s-1.845-0.826-1.845-1.845s0.826-1.845,1.845-1.845S637.619,415.551,637.619,416.57z"/>
			<path style="fill:#FFFFFF;stroke:#263238;stroke-linecap:round;stroke-miterlimit:10;" d="M650.072,413.803
				c0,1.019-0.826,1.845-1.845,1.845s-1.845-0.826-1.845-1.845c0-1.019,0.826-1.845,1.845-1.845S650.072,412.784,650.072,413.803z"
				/>
			<path style="fill:#FFFFFF;stroke:#263238;stroke-linecap:round;stroke-miterlimit:10;" d="M662.294,415.417
				c0,1.019-0.826,1.845-1.845,1.845c-1.019,0-1.845-0.826-1.845-1.845c0-1.019,0.826-1.845,1.845-1.845
				C661.468,413.572,662.294,414.398,662.294,415.417z"/>
			<path style="fill:#FFFFFF;stroke:#263238;stroke-linecap:round;stroke-miterlimit:10;" d="M647.074,434.788
				c0,1.019-0.826,1.845-1.845,1.845c-1.019,0-1.845-0.826-1.845-1.845c0-1.019,0.826-1.845,1.845-1.845
				C646.248,432.943,647.074,433.769,647.074,434.788z"/>
			<path style="fill:#FFFFFF;stroke:#263238;stroke-linecap:round;stroke-miterlimit:10;" d="M656.298,438.477
				c0,1.019-0.826,1.845-1.845,1.845s-1.845-0.826-1.845-1.845c0-1.019,0.826-1.845,1.845-1.845S656.298,437.458,656.298,438.477z"
				/>
			<path style="fill:#FFFFFF;stroke:#263238;stroke-linecap:round;stroke-miterlimit:10;" d="M665.522,438.477
				c0,1.019-0.826,1.845-1.845,1.845s-1.845-0.826-1.845-1.845c0-1.019,0.826-1.845,1.845-1.845S665.522,437.458,665.522,438.477z"
				/>
		</g>
	</g>
</g>
<g id="Money_Icons">
	<g>
		<g>
			<path style="fill:#263238;" d="M637.829,134.159c-0.871,0-1.647-0.025-2.323-0.073c-0.679-0.049-1.319-0.109-1.924-0.182
				c-0.606-0.072-1.224-0.181-1.852-0.327c-0.63-0.145-1.307-0.316-2.033-0.508c-0.969-0.29-2.009-0.629-3.122-1.016
				c-1.113-0.387-2.081-0.581-2.904-0.581c-0.726,0-1.223,0.145-1.488,0.436c-0.267,0.291-0.496,0.702-0.69,1.234h-1.089v-15.61
				h0.799c0.773,3.679,1.826,6.56,3.158,8.64c1.33,2.081,2.771,3.63,4.319,4.646c1.549,1.017,3.122,1.659,4.72,1.924
				c1.597,0.267,3.073,0.399,4.429,0.399v-23.596l-4.211-1.234c-3.97-1.162-6.946-2.759-8.931-4.792
				c-1.985-2.033-2.977-4.694-2.977-7.986c0-2.178,0.387-4.199,1.162-6.063c0.773-1.863,1.862-3.46,3.267-4.791
				c1.403-1.331,3.086-2.384,5.046-3.159c1.961-0.773,4.103-1.162,6.426-1.162h0.218v-4.429h1.017v4.429
				c1.452,0.098,2.674,0.29,3.666,0.581c0.991,0.29,1.863,0.606,2.614,0.944c0.749,0.339,1.427,0.642,2.032,0.908
				c0.605,0.267,1.222,0.399,1.852,0.399c0.629,0,1.053-0.084,1.271-0.254c0.218-0.169,0.52-0.592,0.907-1.271h1.017v13.068h-0.871
				c-0.29-1.645-0.751-3.242-1.379-4.791c-0.63-1.549-1.452-2.928-2.469-4.139c-1.017-1.209-2.239-2.214-3.667-3.013
				c-1.428-0.799-3.085-1.271-4.973-1.416v20.547l6.025,1.742c0.678,0.194,1.707,0.544,3.086,1.053
				c1.38,0.508,2.759,1.271,4.139,2.287c1.379,1.017,2.589,2.336,3.63,3.957c1.04,1.622,1.561,3.667,1.561,6.135
				c0,2.227-0.425,4.369-1.271,6.425c-0.847,2.058-2.058,3.873-3.63,5.445c-1.573,1.574-3.497,2.832-5.771,3.775
				c-2.276,0.944-4.864,1.416-7.769,1.416v5.082h-1.017V134.159z M637.829,81.376h-0.218c-1.162,0-2.445,0.158-3.848,0.472
				c-1.405,0.315-2.712,0.847-3.921,1.597c-1.211,0.751-2.215,1.767-3.013,3.049c-0.799,1.283-1.198,2.868-1.198,4.755
				c0,1.55,0.302,2.868,0.907,3.957c0.604,1.089,1.403,2.021,2.396,2.795c0.991,0.775,2.116,1.405,3.376,1.888
				c1.258,0.484,2.516,0.896,3.775,1.234l1.742,0.508V81.376z M638.845,133.142c2.564,0,4.67-0.387,6.316-1.162
				c1.645-0.774,2.951-1.743,3.92-2.904c0.968-1.162,1.646-2.432,2.033-3.812c0.387-1.379,0.581-2.65,0.581-3.812
				c0-1.743-0.29-3.219-0.871-4.429c-0.581-1.209-1.319-2.215-2.215-3.013c-0.896-0.799-1.876-1.439-2.94-1.924
				c-1.065-0.483-2.081-0.872-3.049-1.162l-3.775-1.089V133.142z"/>
		</g>
		<circle style="fill:none;stroke:#263238;stroke-miterlimit:10;" cx="637.829" cy="109.546" r="35.917"/>
	</g>
	<g>
		<g>
			<path style="fill:#263238;" d="M113.129,380.25c-0.563,0.539-1.079,1.002-1.546,1.389c-0.469,0.388-0.92,0.745-1.355,1.072
				c-0.436,0.328-0.902,0.639-1.398,0.934c-0.496,0.296-1.039,0.604-1.628,0.929c-0.805,0.412-1.686,0.836-2.645,1.274
				c-0.959,0.438-1.704,0.911-2.235,1.42c-0.469,0.449-0.7,0.85-0.692,1.201c0.007,0.353,0.114,0.76,0.318,1.224l-0.703,0.673
				l-9.651-10.083l0.516-0.494c2.774,1.898,5.235,3.108,7.382,3.629c2.146,0.522,4.034,0.632,5.663,0.331
				c1.629-0.301,3.042-0.859,4.238-1.675c1.196-0.815,2.232-1.642,3.108-2.48l-14.589-15.242l-3.483,1.806
				c-3.283,1.704-6.193,2.512-8.732,2.426c-2.539-0.086-4.825-1.192-6.861-3.319c-1.347-1.407-2.346-2.951-2.998-4.635
				c-0.652-1.681-0.936-3.386-0.852-5.115c0.084-1.727,0.52-3.448,1.307-5.16c0.788-1.712,1.932-3.287,3.433-4.723l0.141-0.135
				l-2.738-2.861l0.657-0.629l2.738,2.861c0.998-0.835,1.907-1.466,2.727-1.891c0.82-0.425,1.578-0.761,2.272-1.007
				c0.694-0.244,1.319-0.467,1.874-0.67c0.555-0.202,1.036-0.498,1.443-0.887c0.406-0.389,0.628-0.705,0.664-0.95
				c0.036-0.244-0.031-0.704-0.2-1.382l0.657-0.628l8.08,8.442l-0.563,0.539c-1.204-0.883-2.49-1.63-3.853-2.243
				c-1.365-0.611-2.749-0.994-4.154-1.147c-1.404-0.152-2.816-0.046-4.231,0.321c-1.416,0.367-2.779,1.086-4.088,2.16l12.704,13.272
				l4.969-2.6c0.558-0.293,1.439-0.704,2.644-1.228c1.206-0.525,2.568-0.885,4.087-1.081c1.519-0.196,3.117-0.092,4.791,0.312
				c1.675,0.405,3.276,1.403,4.802,2.997c1.377,1.439,2.427,3.085,3.151,4.937c0.726,1.853,1.065,3.774,1.022,5.762
				c-0.043,1.989-0.508,3.991-1.394,6.007c-0.887,2.017-2.267,3.922-4.143,5.718l3.142,3.283l-0.657,0.629L113.129,380.25z
				 M80.494,346.154l-0.141,0.135c-0.751,0.719-1.482,1.614-2.194,2.684c-0.713,1.072-1.228,2.224-1.545,3.456
				c-0.318,1.234-0.338,2.511-0.061,3.832c0.277,1.323,0.999,2.593,2.166,3.813c0.958,1.001,1.968,1.666,3.033,1.995
				c1.064,0.33,2.156,0.438,3.276,0.324c1.119-0.112,2.236-0.401,3.348-0.868c1.112-0.465,2.179-0.976,3.202-1.537l1.44-0.749
				L80.494,346.154z M113.157,378.964c1.657-1.586,2.778-3.137,3.362-4.656c0.584-1.517,0.829-2.95,0.737-4.3
				c-0.093-1.349-0.441-2.589-1.043-3.719c-0.603-1.13-1.263-2.071-1.981-2.821c-1.078-1.126-2.178-1.9-3.301-2.322
				c-1.123-0.422-2.222-0.615-3.294-0.577c-1.072,0.038-2.102,0.23-3.089,0.575c-0.987,0.346-1.883,0.724-2.688,1.134l-3.112,1.631
				L113.157,378.964z"/>
		</g>
		
			<ellipse transform="matrix(0.0108 -0.9999 0.9999 0.0108 -267.4763 458.3187)" style="fill:none;stroke:#263238;stroke-miterlimit:10;" cx="97.911" cy="364.351" rx="32.115" ry="32.115"/>
	</g>
	<g>
		<g>
			<path style="fill:#263238;" d="M660.822,236.058c-0.331,0.23-0.632,0.424-0.902,0.585c-0.271,0.16-0.53,0.306-0.779,0.438
				c-0.25,0.132-0.513,0.254-0.79,0.364c-0.278,0.111-0.58,0.225-0.907,0.343c-0.445,0.145-0.929,0.291-1.454,0.437
				c-0.525,0.146-0.944,0.328-1.257,0.545c-0.276,0.191-0.426,0.377-0.451,0.558c-0.025,0.181-0.004,0.398,0.063,0.651l-0.414,0.287
				l-4.115-5.932l0.304-0.21c1.264,1.194,2.423,2.011,3.478,2.451c1.054,0.44,2.01,0.649,2.866,0.627
				c0.857-0.022,1.624-0.193,2.301-0.513c0.677-0.32,1.273-0.658,1.788-1.016l-6.22-8.967l-1.925,0.641
				c-1.815,0.605-3.367,0.782-4.657,0.533c-1.29-0.249-2.369-1-3.236-2.251c-0.574-0.828-0.96-1.698-1.156-2.61
				c-0.197-0.912-0.204-1.806-0.021-2.682c0.182-0.876,0.544-1.719,1.085-2.531c0.541-0.811,1.253-1.523,2.136-2.135l0.083-0.057
				l-1.167-1.683l0.386-0.268l1.167,1.683c0.578-0.346,1.093-0.594,1.546-0.745c0.453-0.151,0.868-0.261,1.242-0.33
				c0.374-0.068,0.711-0.132,1.012-0.191c0.3-0.058,0.569-0.17,0.809-0.336c0.239-0.166,0.378-0.309,0.416-0.431
				c0.038-0.122,0.041-0.362,0.01-0.722l0.386-0.268l3.445,4.966l-0.331,0.23c-0.544-0.549-1.14-1.034-1.787-1.458
				c-0.648-0.423-1.324-0.73-2.029-0.922c-0.705-0.191-1.435-0.251-2.188-0.178c-0.753,0.073-1.507,0.33-2.263,0.773l5.416,7.808
				l2.749-0.926c0.309-0.105,0.792-0.243,1.45-0.413c0.658-0.171,1.383-0.244,2.176-0.222c0.792,0.023,1.6,0.205,2.422,0.547
				c0.823,0.342,1.56,0.982,2.211,1.92c0.587,0.846,0.99,1.772,1.21,2.777c0.221,1.005,0.239,2.014,0.056,3.026
				c-0.183,1.013-0.583,1.998-1.198,2.956c-0.616,0.959-1.475,1.82-2.579,2.586l1.34,1.931l-0.386,0.268L660.822,236.058z
				 M646.909,215.999l-0.083,0.057c-0.442,0.306-0.888,0.704-1.338,1.194c-0.451,0.49-0.807,1.037-1.069,1.641
				c-0.262,0.604-0.376,1.255-0.341,1.953c0.034,0.698,0.301,1.406,0.798,2.123c0.409,0.589,0.871,1.01,1.388,1.265
				c0.517,0.255,1.066,0.398,1.648,0.43c0.581,0.033,1.174-0.024,1.781-0.173c0.606-0.147,1.192-0.322,1.76-0.526l0.796-0.266
				L646.909,215.999z M660.941,235.403c0.974-0.676,1.673-1.378,2.094-2.106c0.421-0.728,0.662-1.44,0.724-2.137
				c0.062-0.697-0.016-1.358-0.232-1.984c-0.217-0.626-0.478-1.16-0.784-1.602c-0.459-0.662-0.959-1.147-1.498-1.453
				c-0.54-0.307-1.085-0.494-1.636-0.561c-0.551-0.068-1.092-0.053-1.624,0.044c-0.532,0.097-1.021,0.217-1.465,0.362l-1.722,0.581
				L660.941,235.403z"/>
		</g>
		
			<ellipse transform="matrix(0.8152 -0.5792 0.5792 0.8152 -10.3882 420.8486)" style="fill:none;stroke:#263238;stroke-miterlimit:10;" cx="654.335" cy="226.704" rx="16.611" ry="16.611"/>
	</g>
	<g>
		<g>
			<path style="fill:#263238;" d="M85.532,215.969c-0.403,0-0.761-0.012-1.075-0.034c-0.314-0.023-0.61-0.05-0.89-0.084
				c-0.28-0.033-0.566-0.084-0.856-0.151c-0.291-0.067-0.604-0.146-0.94-0.235c-0.448-0.134-0.929-0.291-1.444-0.47
				c-0.515-0.179-0.962-0.269-1.343-0.269c-0.336,0-0.565,0.067-0.688,0.201c-0.123,0.134-0.229,0.325-0.319,0.571h-0.504v-7.219
				h0.369c0.358,1.702,0.845,3.034,1.461,3.996c0.615,0.963,1.281,1.679,1.998,2.149c0.716,0.47,1.444,0.767,2.183,0.89
				c0.739,0.123,1.421,0.185,2.048,0.185v-10.913l-1.948-0.571c-1.836-0.538-3.213-1.276-4.13-2.216
				c-0.918-0.94-1.377-2.171-1.377-3.694c0-1.007,0.179-1.942,0.537-2.804c0.358-0.861,0.861-1.6,1.511-2.216
				c0.649-0.616,1.427-1.102,2.334-1.461c0.907-0.358,1.897-0.537,2.972-0.537h0.101v-2.048h0.47v2.048
				c0.672,0.045,1.237,0.134,1.696,0.269c0.458,0.134,0.862,0.28,1.209,0.437c0.346,0.157,0.66,0.297,0.94,0.42
				c0.28,0.123,0.565,0.184,0.856,0.184c0.291,0,0.487-0.039,0.588-0.117c0.101-0.078,0.24-0.274,0.42-0.588h0.47v6.044h-0.403
				c-0.134-0.761-0.347-1.499-0.638-2.216c-0.291-0.716-0.672-1.354-1.142-1.914c-0.47-0.559-1.036-1.024-1.696-1.393
				c-0.66-0.369-1.427-0.588-2.3-0.655v9.503l2.787,0.806c0.313,0.09,0.79,0.252,1.427,0.487c0.638,0.235,1.276,0.588,1.914,1.058
				c0.638,0.47,1.197,1.08,1.679,1.83c0.481,0.75,0.722,1.696,0.722,2.837c0,1.03-0.197,2.02-0.588,2.972
				c-0.392,0.952-0.952,1.791-1.679,2.518c-0.728,0.728-1.617,1.31-2.669,1.746c-1.053,0.437-2.25,0.655-3.593,0.655v2.35h-0.47
				V215.969z M85.532,191.557h-0.101c-0.537,0-1.131,0.073-1.78,0.218c-0.65,0.146-1.254,0.392-1.813,0.739
				c-0.56,0.347-1.024,0.817-1.393,1.41c-0.369,0.593-0.554,1.326-0.554,2.199c0,0.717,0.14,1.326,0.42,1.83
				c0.28,0.504,0.649,0.935,1.108,1.293c0.458,0.358,0.979,0.65,1.561,0.873c0.582,0.224,1.164,0.415,1.746,0.571l0.806,0.235
				V191.557z M86.002,215.499c1.186,0,2.16-0.179,2.921-0.537c0.76-0.358,1.365-0.806,1.813-1.343
				c0.448-0.537,0.761-1.125,0.94-1.763c0.179-0.638,0.269-1.226,0.269-1.763c0-0.806-0.134-1.489-0.403-2.048
				c-0.269-0.559-0.61-1.024-1.024-1.394c-0.414-0.37-0.868-0.666-1.36-0.89c-0.493-0.224-0.962-0.403-1.41-0.538l-1.746-0.503
				V215.499z"/>
		</g>
		
			<ellipse transform="matrix(0.7071 -0.7071 0.7071 0.7071 -119.6123 120.4018)" style="fill:none;stroke:#263238;stroke-miterlimit:10;" cx="85.532" cy="204.586" rx="16.611" ry="16.611"/>
	</g>
	<g>
		<g>
			<path style="fill:#263238;" d="M401.753,63.1c-0.498-0.292-0.934-0.565-1.305-0.819c-0.372-0.255-0.718-0.504-1.04-0.748
				c-0.323-0.244-0.639-0.513-0.95-0.806c-0.312-0.294-0.642-0.618-0.993-0.971c-0.457-0.49-0.939-1.032-1.446-1.626
				c-0.507-0.594-0.996-1.029-1.467-1.304c-0.415-0.243-0.748-0.326-0.997-0.249c-0.25,0.077-0.519,0.236-0.807,0.476l-0.623-0.364
				l5.223-8.93l0.457,0.267c-0.789,2.364-1.15,4.364-1.084,6c0.064,1.636,0.37,3.004,0.916,4.104c0.546,1.1,1.231,1.993,2.056,2.68
				c0.824,0.687,1.625,1.257,2.4,1.71l7.895-13.499l-1.996-2.115c-1.882-1.993-3.051-3.903-3.506-5.73
				c-0.456-1.827-0.132-3.682,0.969-5.565c0.729-1.246,1.626-2.273,2.693-3.08c1.066-0.807,2.223-1.356,3.472-1.648
				c1.248-0.292,2.563-0.331,3.944-0.119c1.381,0.214,2.736,0.708,4.065,1.486l0.125,0.073l1.482-2.534l0.582,0.34l-1.482,2.534
				c0.798,0.542,1.432,1.061,1.903,1.559c0.47,0.498,0.863,0.97,1.18,1.415c0.315,0.445,0.601,0.845,0.859,1.199
				c0.257,0.355,0.565,0.637,0.926,0.848c0.36,0.21,0.63,0.304,0.812,0.28c0.181-0.024,0.495-0.165,0.944-0.423l0.582,0.34
				l-4.372,7.476l-0.498-0.291c0.385-1.038,0.655-2.106,0.814-3.203c0.158-1.097,0.149-2.161-0.028-3.194
				c-0.177-1.032-0.54-2.016-1.09-2.951c-0.549-0.935-1.34-1.759-2.371-2.474l-6.875,11.755l2.864,3.013
				c0.323,0.338,0.794,0.883,1.413,1.635c0.619,0.752,1.153,1.65,1.603,2.693c0.449,1.043,0.699,2.203,0.753,3.478
				c0.052,1.276-0.333,2.62-1.159,4.032c-0.745,1.274-1.705,2.357-2.877,3.25c-1.173,0.894-2.473,1.527-3.899,1.901
				c-1.427,0.374-2.948,0.45-4.565,0.229c-1.618-0.222-3.257-0.817-4.918-1.789l-1.7,2.907l-0.582-0.34L401.753,63.1z
				 M419.414,32.903l-0.125-0.073c-0.665-0.389-1.452-0.728-2.359-1.017c-0.909-0.29-1.835-0.423-2.778-0.398
				c-0.944,0.024-1.858,0.27-2.744,0.736c-0.886,0.467-1.645,1.24-2.277,2.32c-0.518,0.887-0.787,1.742-0.805,2.567
				c-0.018,0.825,0.126,1.626,0.436,2.401c0.308,0.775,0.741,1.512,1.3,2.209c0.557,0.698,1.139,1.355,1.747,1.969l0.827,0.874
				L419.414,32.903z M402.675,62.858c1.467,0.858,2.801,1.341,4.002,1.449c1.2,0.107,2.272-0.01,3.214-0.35
				c0.942-0.341,1.755-0.841,2.439-1.5c0.683-0.66,1.219-1.321,1.608-1.986c0.583-0.997,0.911-1.938,0.983-2.825
				c0.072-0.886-0.014-1.708-0.259-2.465c-0.245-0.757-0.592-1.451-1.039-2.084c-0.448-0.633-0.899-1.195-1.355-1.685l-1.796-1.886
				L402.675,62.858z"/>
		</g>
		
			<ellipse transform="matrix(0.5853 -0.8108 0.8108 0.5853 130.2743 352.7511)" style="fill:none;stroke:#263238;stroke-miterlimit:10;" cx="409.988" cy="49.019" rx="23.804" ry="23.804"/>
	</g>
</g>
<g id="Puzzle_3">
	<g>
		<path style="fill:#FFFFFF;stroke:#000000;stroke-linecap:round;stroke-linejoin:round;stroke-miterlimit:10;" d="M580.534,159.616
			V100.96H402.097v58.656l3.074,4.65c1.97,2.916,5.044,5.123,8.67,6.305c5.28,1.734,11.034,0.394,15.605-2.68
			c3.389-2.285,7.409-3.626,11.665-3.626c12.453,0,22.463,11.192,22.463,25.142c0,13.871-10.01,25.063-22.463,25.063
			c-4.256,0-8.276-1.34-11.665-3.626c-4.65-3.152-10.404-4.492-15.684-2.679c-3.625,1.182-6.699,3.31-8.591,6.226l-3.074,4.65
			v59.506h59.506l4.65-3.074c2.916-1.892,5.044-4.965,6.227-8.591c1.812-5.281,0.473-11.034-2.68-15.685
			c-2.285-3.389-3.626-7.408-3.626-11.664c0-12.453,11.192-22.462,25.063-22.462c13.95,0,25.142,10.009,25.142,22.462
			c0,4.256-1.34,8.275-3.625,11.664c-3.074,4.572-4.414,10.325-2.68,15.606c1.182,3.625,3.389,6.699,6.305,8.67l4.65,3.074h59.505
			v-59.506l0.114-0.173l-0.057-59.168L580.534,159.616z"/>
		<g>
			<path style="fill:#263238;" d="M459.128,145.434c-1.169,0.913-3.446,1.364-6.819,1.364c-3.379,0-6.691-0.712-9.936-2.143
				c-3.251-1.424-6.886-3.05-10.911-4.871c-4.03-1.814-8.706-3.507-14.028-5.066c-4.295-1.257-9.404-2.167-15.3-2.749v5.556
				c8.333,1.104,15.775,3.473,22.315,7.13c7.659,4.287,14.223,9.681,19.679,16.172c1.221,1.454,2.382,2.961,3.499,4.506
				c0.009,0.003,0.018,0.007,0.027,0.01c0.54,0.182,1.07,0.389,1.592,0.615c0.056,0.024,0.111,0.049,0.166,0.073
				c1.068,0.472,2.095,1.031,3.074,1.673c0.022,0.014,0.044,0.028,0.066,0.042c0.483,0.319,0.954,0.658,1.413,1.015
				c0.042,0.033,0.083,0.066,0.125,0.099c0.886,0.7,1.723,1.47,2.507,2.303c0.081,0.086,0.163,0.172,0.243,0.26
				c0.345,0.378,0.679,0.766,1.002,1.168c0.112,0.139,0.218,0.282,0.327,0.423c0.217,0.284,0.429,0.573,0.635,0.867
				c0.203,0.289,0.398,0.583,0.59,0.882c0.147,0.23,0.293,0.46,0.433,0.695c0.168,0.282,0.332,0.568,0.49,0.857
				c0.029,0.053,0.056,0.108,0.085,0.162c2.027,3.774,3.207,8.188,3.207,12.932c0,2.935-0.456,5.747-1.285,8.361
				c0.976,3.618,1.801,7.278,2.456,10.986h4.677v-70.141h-5.456C461.917,142.255,460.297,144.527,459.128,145.434z"/>
			<path style="fill:#263238;" d="M402.097,278.549h59.506l4.65-3.074c0.647-0.42,1.249-0.907,1.817-1.436
				c-7.137-5.164-14.274-9.074-21.411-11.703c-7.403-2.727-12.926-4.609-16.561-5.65l-27.965-8.086v29.949L402.097,278.549
				L402.097,278.549z"/>
		</g>
	</g>
</g>
<g id="Puzzle_2">
	<g>
		<path style="fill:#92E3A9;stroke:#000000;stroke-linecap:round;stroke-linejoin:round;stroke-miterlimit:10;" d="M521.2,278.591
			l-4.65-3.074c-2.916-1.892-5.044-4.965-6.227-8.591c-1.813-5.28-0.473-11.034,2.68-15.684c2.286-3.389,3.626-7.409,3.626-11.665
			c0-12.453-11.192-22.541-25.063-22.541c-13.95,0-25.142,10.088-25.142,22.541c0,4.256,1.34,8.197,3.625,11.665
			c3.074,4.571,4.414,10.325,2.68,15.606c-1.182,3.625-3.389,6.699-6.305,8.669l-4.65,3.074h-59.505v59.505l-3.074,4.65
			c-1.971,2.916-5.044,5.044-8.669,6.305c-5.281,1.734-11.034,0.394-15.606-2.68c-3.389-2.364-7.409-3.625-11.665-3.625
			c-12.453,0-22.462,11.192-22.462,25.064c0,13.871,10.009,25.142,22.462,25.142c4.256,0,8.275-1.34,11.665-3.626
			c4.65-3.153,10.403-4.571,15.684-2.758c3.625,1.26,6.699,3.389,8.591,6.305l3.074,4.65v59.495l-0.045,0.045l178.482-0.035v-59.505
			v-59.427v-59.505H521.2z"/>
		<g>
			<path style="fill:#263238;" d="M397.755,344.522c-1.49,1.581-3.35,2.856-5.456,3.81v38.918c2.117,0.948,3.984,2.22,5.456,3.801
				V344.522z"/>
			<path style="fill:#263238;" d="M381.777,349.367c-1.961-0.446-3.863-1.212-5.624-2.232v41.418c1.771-1.042,3.671-1.833,5.624-2.3
				V349.367z"/>
			<path style="fill:#263238;" d="M470.429,392.487c8.44-8.439,14.936-18.181,19.483-29.226c4.543-11.039,6.819-22.534,6.819-34.486
				c0-13.249-2.794-24.221-8.378-32.928c-5.589-8.7-12.08-15.781-19.483-21.237c-0.233-0.172-0.466-0.33-0.699-0.499
				c-0.551,0.511-1.129,0.988-1.747,1.406l-4.65,3.074h-59.505v12.519l15.749,4.543c5.193,1.559,10.649,3.641,16.366,6.234
				c5.711,2.601,10.972,6.04,15.782,10.327c4.804,4.286,8.768,9.681,11.885,16.171c3.117,6.497,4.676,14.418,4.676,23.771
				c0,6.234-1.041,13.054-3.117,20.458c-2.082,7.403-5.717,14.223-10.911,20.458c-5.199,6.234-12.214,11.434-21.042,15.587
				c-7.849,3.694-17.648,5.741-29.388,6.153v5.457c13.767-0.446,26.161-2.947,37.182-7.519
				C451.658,407.684,461.984,400.932,470.429,392.487z"/>
		</g>
	</g>
</g>
<g id="Puzzle_1">
	<g>
		<path style="fill:#FFFFFF;stroke:#000000;stroke-linecap:round;stroke-linejoin:round;stroke-miterlimit:10;" d="M363.21,342.702
			c4.256,0,8.276,1.34,11.665,3.626c4.571,3.152,10.324,4.492,15.684,2.758c3.547-1.261,6.62-3.389,8.591-6.305l3.074-4.651v-59.505
			h-59.505l-4.65-3.074c-2.916-1.892-5.044-4.965-6.305-8.59c-1.813-5.281-0.394-11.035,2.759-15.685
			c2.285-3.389,3.625-7.408,3.625-11.665c0-12.453-11.27-22.462-25.142-22.462c-13.871,0-25.063,10.009-25.063,22.462
			c0,4.257,1.262,8.276,3.626,11.665c3.074,4.571,4.414,10.325,2.68,15.606c-1.261,3.625-3.389,6.699-6.305,8.669l-4.65,3.074
			h-59.506v59.505v59.427v59.505h59.506h59.426h59.505v-59.505l-3.074-4.65c-1.971-2.916-5.044-5.123-8.67-6.305
			c-5.359-1.734-11.034-0.394-15.684,2.679c-3.389,2.286-7.33,3.626-11.586,3.626c-12.452,0-22.541-11.191-22.541-25.063
			C340.669,353.894,350.758,342.702,363.21,342.702z"/>
		<g>
			<path style="fill:#263238;" d="M402.224,414.813c-1.461,0.051-2.947,0.08-4.468,0.08v-23.721
				c-1.487-1.607-3.347-2.915-5.456-3.857v27.578c-3.367,0-6.878-0.16-10.522-0.465v-28.16c-1.952,0.435-3.848,1.186-5.624,2.19
				v25.389c-2.484-0.302-5.02-0.662-7.623-1.097c-8.573-1.425-17.018-4.87-25.329-10.326c-8.317-5.455-16.044-13.767-23.186-24.939
				c-7.148-11.166-12.799-26.625-16.951-46.371h-4.286v83.78h5.845c1.035-2.855,2.271-5.065,3.702-6.624
				c1.425-1.56,4.092-2.339,7.988-2.339c4.414,0,9.608,1.042,15.587,3.118c5.974,2.082,11.557,3.896,16.756,5.455
				c3.897,1.035,7.532,1.948,10.911,2.727c3.373,0.779,6.686,1.364,9.937,1.754c2.129,0.256,4.351,0.479,6.649,0.679v28.378h5.624
				v-27.967c3.158,0.177,6.652,0.273,10.522,0.273v27.277h5.456v-27.277c1.507,0,2.993-0.031,4.468-0.078V414.813z"/>
			<path style="fill:#263238;" d="M321.769,255.906c2.72,2.787,5.793,5.42,9.208,7.902c-0.509-4.369,0.904-8.849,3.453-12.608
				c2.286-3.389,3.626-7.408,3.626-11.665c0-6.578-3.147-12.473-8.159-16.572c-4.466-3.616-10.393-5.813-16.892-5.813
				c-2.449,0-4.812,0.318-7.048,0.9C306.885,233.425,312.142,246.048,321.769,255.906z"/>
			<path style="fill:#263238;" d="M369.699,281.625l6.454,1.892v63.619c1.76,1.037,3.66,1.811,5.624,2.261v-64.232l10.522,3.084
				v60.119c2.094-0.963,3.96-2.255,5.456-3.859v-54.7l4.468,1.289v-12.472h-41.811C363.391,279.676,366.474,280.681,369.699,281.625
				z"/>
		</g>
	</g>
</g>
<g id="Character">
	<g>
		<g>
			<path style="fill:#263238;stroke:#263238;stroke-miterlimit:10;" d="M155.316,203.934c-2.467-0.06-10.457,3.998-10.457,3.998
				l7.709,24.545c0,0,50.726-5.859,51.284-5.931c0.558-0.072,1.651-0.402,1.993-2.149c0.342-1.747,10.277-48.447,10.277-48.447
				l-11.484-2.491l-11.67,34.224C192.968,207.683,157.783,203.994,155.316,203.934z"/>
			<path style="fill:#263238;stroke:#263238;stroke-miterlimit:10;" d="M227.43,153.329c-0.465,0.06-3.952,0.51-3.952,0.51
				l-5.358,1.519l4.128-3.723c0,0,4.136-1.834,4.788-2.272c0.652-0.439,0.255-1.687-0.094-1.642
				c-0.349,0.045-4.083,0.409-5.201,0.908c-1.117,0.499-7.004,4.331-7.004,4.331l4.079-5.017c0,0,4.492-3.652,4.852-4.526
				c0.36-0.874-0.008-1.89-1.14-1.507c-1.132,0.382-5.118,3.378-5.943,4.312c-0.825,0.934-5.358,5.182-5.358,5.182l0.533-1.369
				c0,0,4.323-5.876,4.784-6.881c0.461-1.005,0.311-2.167-0.184-2.34c-0.495-0.172-1.567,0.675-2.347,1.957
				c-0.78,1.282-6.813,8.56-7.086,9.187c-0.274,0.626-0.719,16.401-0.719,16.401l-1.57,5.102l10.438,2.262l0.851-5.309
				c0,0,1.084-1.676,1.56-2.565s1.803-7.087,1.803-7.087l4.462-3.885c0,0,3.281-1.132,4.252-1.849
				C228.975,154.311,227.895,153.268,227.43,153.329z"/>
		</g>
		<g>
			<path style="fill:#92E3A9;stroke:#000000;stroke-linecap:round;stroke-linejoin:round;stroke-miterlimit:10;" d="M343.951,62.421
				c-3.571,2.316-6.215,5.627-7.815,9.388c-2.164,5.066-6.262,9.32-11.636,10.738c-3.685,0.981-7.531,0.843-10.705-0.574
				l-5.108-2.23l-31.911-49.217l-149.721,97.075l96.69,148.96l49.786-32.28l2.296-5.152c1.375-3.24,1.488-6.976,0.574-10.704
				c-1.418-5.374-5.672-9.473-10.805-11.593c-3.761-1.6-7.072-4.244-9.388-7.815c-6.775-10.449-2.763-24.979,8.876-32.525
				c11.639-7.547,26.542-5.28,33.316,5.169c2.316,3.572,3.378,7.673,3.303,11.76c-0.116,5.617,1.824,11.216,6.219,14.661
				c3.03,2.356,6.487,3.777,9.897,3.821l5.64,0.006l49.929-32.373l-32.373-49.929l0.049-5.574c0.001-3.476,1.422-6.934,3.821-9.898
				c3.445-4.393,9.001-6.4,14.618-6.284c4.087,0.074,8.123-0.946,11.76-3.304c10.382-6.732,12.759-21.611,5.212-33.25
				C368.887,59.592,354.333,55.689,343.951,62.421z"/>
			<path style="fill:#263238;stroke:#263238;stroke-miterlimit:10;" d="M237.353,168.144l-7.217,5.403l-5.082,13.835
				c0,0-14.4,49.695-16.094,52.236c-1.694,2.541-6.212,4.518-6.212,4.518l-7.341-10.73l28.8-62.966l6.494-1.694L237.353,168.144z"/>
			<g>
				<path style="fill:#263238;" d="M357.096,154.406l-4.362,1.319L292.74,63.195c1.311-0.714,2.62-1.367,3.928-1.988l-3.023-4.662
					c-1.266,0.654-2.551,1.336-3.873,2.073l-12.932-19.945l-4.578,2.968l12.932,19.945l-0.981,0.636
					c-2.67,1.731-5.209,3.543-7.625,5.433l-13.174-20.318l-4.719,3.06l13.544,20.889c-5.185,4.565-9.721,9.533-13.571,14.929
					c-6.565,9.213-11.068,18.867-13.502,28.956c-2.436,10.099-2.677,20.471-0.722,31.119c1.953,10.657,6.11,20.885,12.47,30.694
					c0.908,1.401,1.848,2.734,2.803,4.032c1.548-1.68,3.338-3.21,5.366-4.525c11.639-7.547,26.542-5.28,33.316,5.169
					c2.316,3.572,3.378,7.673,3.303,11.76c-0.093,4.54,1.158,9.069,3.962,12.457c9.729,0.518,20.576-0.662,32.528-3.522
					l35.196-22.82L357.096,154.406z M331.202,162.225c-4.52,1.283-9.124,2.433-13.831,3.426c-7.081,1.5-13.988,1.951-20.715,1.356
					c-6.73-0.585-13.049-2.453-18.952-5.592c-5.908-3.135-11.116-8.191-15.641-15.169c-5.512-8.501-8.341-16.804-8.491-24.914
					c-0.147-8.105,1.407-15.614,4.665-22.53c3.257-6.909,7.588-13.12,12.993-18.641c1.388-1.416,2.77-2.76,4.146-4.036
					L331.202,162.225z M347.309,157.386l-9.331,2.799c-0.384,0.124-0.777,0.237-1.163,0.359l-57.166-88.169
					c2.53-2.097,5.041-3.961,7.532-5.576l0.981-0.636L347.309,157.386z"/>
				<path style="fill:#263238;" d="M349.967,59.79c6.164,2.389,12.103,5.566,17.814,9.552c4.266,2.983,8.318,6.211,12.166,9.67
					c-0.727-2.645-1.874-5.253-3.47-7.715C370.268,61.722,359.4,57.372,349.967,59.79z"/>
			</g>
		</g>
		<g>
			<path style="fill:#BFBFBF;stroke:#263238;stroke-miterlimit:10;" d="M170.383,201.828l4.647,1.481l0.408,7.697l-3.494-2.995
				v2.995c0,0,5.242,12.979,10.233,32.198c4.992,19.219,5.741,31.449,5.242,43.18c-0.499,11.731-1.498,19.718-1.498,19.718
				l-5.741-19.219l-13.229-76.127l-0.749-5.99L170.383,201.828z"/>
			<path style="fill:#263238;stroke:#263238;stroke-miterlimit:10;" d="M182.677,285.386c0,0,4.243,22.214,5.242,31.699
				c0.998,9.485,10.103,40.292,8.873,54.058c-0.533,5.967-1.403,60.697-1.403,60.697l3.569,2.596l-1.027,8.573
				c0,0,13.628,7.138,16.548,8.112c2.92,0.973,1.622-1.947,2.92,0.973s-3.894,4.543-11.357,5.192
				c-7.463,0.649-13.628-0.324-13.628-0.324l-3.245-1.947l-0.951,1.908c0,0-4.538-0.151-5.899-0.151
				c-1.361,0-2.572-0.151-2.572-0.151s-1.21-6.051-1.513-8.622s-0.454-5.294-0.454-5.294s-2.42-2.874-2.42-4.387
				c0-1.513,1.815-7.412,1.815-7.412l-2.137-35.202l-0.931-22.312l-7.099-30.441c0,0-5.933,33.233-6.632,34.746
				c-0.698,1.513-22.702,58.742-22.702,58.742l1.815,1.513l-1.967,6.807l5.748,6.505c0,0,9.378,4.538,9.378,5.294
				c0,0.756-1.21,1.966-1.21,1.966s-7.866,0.303-13.16-0.302c-5.294-0.605-8.168-1.361-9.984-1.815
				c-1.815-0.454-4.387-3.328-4.387-3.328l-1.815,1.059l-7.715-4.387c0,0,1.966-10.135,2.874-12.555
				c0.908-2.42,2.723-3.63,2.723-3.63l3.933-6.353l15.341-58.524l0.664-53.242l-1.629-9.774l3.142-18.966L182.677,285.386z"/>
			<g>
				<path style="fill:#FFFFFF;stroke:#263238;stroke-miterlimit:10;" d="M169.305,156.428c0,0,4.552,4.792,4.792,6.948
					c0.24,2.156-0.839,4.313-0.24,5.271c0.599,0.958,6.229,6.469,5.99,7.187c-0.24,0.719-3.115,2.755-3.115,2.755l-9.104,23.119
					l-21.323-7.667l2.396-7.187l-9.583-9.463c0,0-0.599-10.302,6.708-17.489C153.134,152.714,169.305,156.428,169.305,156.428z"/>
				<path style="fill:#263238;stroke:#263238;stroke-miterlimit:10;" d="M158.524,161.459c0,0,12.818-4.073,13.417-8.505
					c0.599-4.432-9.823-6.948-18.927-5.031c-9.104,1.917-19.646,11.979-20.005,20.364c-0.359,8.385,11.739,16.771,12.458,17.13
					c0.719,0.359,0.599,2.156,2.036,2.635c1.438,0.479,1.917,0.839,3.833-0.719c1.917-1.557,1.438-5.99,1.438-5.99
					s-5.391-0.839-6.109-4.552c-0.719-3.714,2.516-5.63,4.672-4.432c2.156,1.198,3.953,5.63,4.432,6.948
					c0.479,1.318,0.479,10.062,3.594,12.219c3.115,2.156,13.656,3.953,16.89,3.833c3.234-0.12,3.594-1.318,2.875-3.953
					c-0.719-2.635-1.917-7.786-2.036-8.984c-0.12-1.198,0.958-3.354-0.359-3.833c-1.318-0.479-4.432,2.276-7.667,4.911
					c-3.234,2.635-4.073,3.115-4.073,3.115s0-0.359-3.953-6.828c-3.953-6.469-5.63-9.463-5.63-9.823
					c0-0.359,7.068-1.198,6.349-4.193C161.04,162.776,158.524,161.459,158.524,161.459z"/>
				<path style="fill:none;stroke:#263238;stroke-miterlimit:10;" d="M172.061,166.49c0,0-2.156-1.677-3.833,1.677"/>
				<path style="fill:none;stroke:#FFFFFF;stroke-miterlimit:10;" d="M171.462,183.5c0,0,2.036,1.198,4.552,0.719"/>
				<path style="fill:#263238;" d="M171.924,171.546c0.221,1.001,0.087,1.882-0.301,1.968c-0.388,0.086-0.881-0.657-1.103-1.658
					c-0.221-1.001-0.087-1.882,0.301-1.968C171.209,169.802,171.702,170.544,171.924,171.546z"/>
			</g>
			<polygon style="fill:#FFFFFF;stroke:#263238;stroke-miterlimit:10;" points="146.066,191.526 170.383,201.828 168.587,209.255 
				143.91,196.318 			"/>
			<path style="fill:#FFFFFF;stroke:#263238;stroke-miterlimit:10;" d="M168.587,209.255c0,0,8.599,13.981,10.596,37.943
				c1.997,23.961,3.494,38.188,3.494,38.188l-10.483,1.248L168.587,209.255z"/>
			<path style="fill:#BFBFBF;stroke:#263238;stroke-miterlimit:10;" d="M143.91,196.318l-2.755,6.109c0,0-8.166,18.507-7.938,22.605
				c0.228,4.098,4.553,45.535,4.553,45.535l-9.56,44.437c0,0,13.658,9.188,26.635,10.326c12.977,1.138,21.174-1.594,21.174-1.594
				s1.366-28.58,0-46.794c-1.366-18.214-3.187-50.771-4.781-57.374c-1.594-6.603-2.652-10.313-2.652-10.313L143.91,196.318z"/>
			<polyline style="fill:none;stroke:#263238;stroke-miterlimit:10;" points="141.155,202.427 161.593,211.391 172.215,261.64 			
				"/>
			<g>
				<path style="fill:#BFBFBF;stroke:#263238;stroke-miterlimit:10;" d="M148.121,209.971c0,0,8.443-3.002,10.882-2.627
					c2.439,0.375,36.862,8.538,36.862,8.538l15.955-32.449l11.07,3.94c0,0-15.831,45.045-16.394,46.733s-1.689,1.876-2.251,1.876
					s-51.621-0.682-51.621-0.682"/>
				<polygon style="fill:#FFFFFF;stroke:#263238;stroke-miterlimit:10;" points="211.82,183.433 214.031,178.574 223.407,181.856 
					221.883,187.013 				"/>
				<path style="fill:#FFFFFF;stroke:#263238;stroke-miterlimit:10;" d="M214.031,178.574c0,0,2.461-15.588,2.813-16.174
					c0.352-0.586,7.266-7.032,8.204-8.204c0.938-1.172,2.11-1.875,2.578-1.641c0.469,0.234,0.469,1.406-0.117,2.344
					s-5.626,6.212-5.626,6.212l-0.703,1.289c0,0,5.04-3.633,5.977-4.454c0.938-0.82,5.274-3.282,6.446-3.516
					c1.172-0.234,1.406,0.82,0.938,1.641c-0.469,0.82-5.391,3.868-5.391,3.868l-4.688,4.454c0,0,6.329-3.047,7.501-3.399
					c1.172-0.352,4.922-0.234,5.274-0.234c0.352,0,0.586,1.289-0.117,1.641c-0.703,0.352-5.04,1.641-5.04,1.641l-4.571,3.164
					l5.508-0.82c0,0,3.516,0,3.985,0s1.406,1.172,0.352,1.758c-1.055,0.586-4.454,1.289-4.454,1.289l-4.922,3.282
					c0,0-2.11,5.977-2.696,6.798c-0.586,0.82-1.875,2.344-1.875,2.344L214.031,178.574z"/>
			</g>
		</g>
	</g>
</g>
</svg>
