<?xml version="1.0" encoding="utf-8"?>
<!-- Generator: Adobe Illustrator 27.5.0, SVG Export Plug-In . SVG Version: 6.00 Build 0)  -->
<svg version="1.1" xmlns="http://www.w3.org/2000/svg" xmlns:xlink="http://www.w3.org/1999/xlink" x="0px" y="0px"
	 viewBox="0 0 500 500" style="enable-background:new 0 0 500 500;" xml:space="preserve">
<g id="BACKGROUND">
	<rect style="fill:#FFFFFF;" width="500" height="500"/>
</g>
<g id="OBJECTS">
	<g>
		<path style="fill:#91E2D8;" d="M137.95,376.84c0.83,0.93,0.68,2.5-0.17,3.35c-1,1-2.51,0.89-3.53,0c-3.33-2.9-4.5-7.24-5.46-11.38
			c-0.98-4.25-2.46-8.22-4.1-12.26c-1.75-4.29-3.16-8.66-4.1-13.21c-1.86-8.99-2.25-18.19-2.61-27.34
			c-0.05-1.26,0.99-2.27,2.17-2.45c1.32-0.2,2.28,0.63,2.74,1.79c1.92,4.8,3.84,9.6,5.76,14.41c1.67,4.18,3.45,8.35,4.98,12.59
			c1.54,4.25,2.08,8.38,2.02,12.88c-0.03,1.99,0.02,3.93,0.57,5.86c0.56,1.95,1.4,3.81,2.01,5.75
			C139.25,370.02,139.58,373.82,137.95,376.84z"/>
		<path style="fill:#91E2D8;" d="M382.79,292.58c-1.1-2.97-2.2-5.94-3.33-8.9c-0.31-0.5-0.63-0.99-0.98-1.46
			c-1.68-2.27-4.1-4.92-6.94-5.66c-0.97-0.25-1.84-0.2-2.27,0.82c-0.58,1.39-0.38,3.21-0.43,4.68c-0.28,8.54-0.57,17.08-0.85,25.62
			c-0.09,2.74-4.3,3.5-4.91,0.67c-0.83-3.82-2.22-7.44-4.25-10.79c-2.04-3.39-4.75-6.01-7.43-8.88c-1.21-1.29-2.38-2.69-3.2-4.26
			c-0.78-1.47-1.21-3.1-2.04-4.55c-0.77-1.33-2.2-1.92-3.53-2.57c-1.66-0.8-3.32-1.61-5.02-2.33c-3.45-1.46-7.14-2.62-10.93-2.61
			c-3.56,0.02-7.19,0.93-10.7-0.15c-1.63-0.5-2.97-1.4-4.32-2.42c-0.85-0.65-2.05-1.81-3.17-1.79c-0.78,0.01-1.27,0.84-1.46,1.64
			c-0.3,1.28,0.3,2.58,0.97,3.69c1.66,2.72,4.15,5.6,7.02,7.07c1.75,0.89,4.81,1.22,6.17-0.59c0.73-0.97,2.26-1.78,3.42-0.9
			c4.59,3.51,4.59,9.85,1.52,14.4c-1.64,2.43-3.82,4.36-6.01,6.28c-2.48,2.19-4.92,4.42-7.44,6.56c-2.01,1.71-4.22,3.26-6.92,3.52
			c-2.42,0.23-4.82-0.86-6.43-2.65c-1.77-1.97-2.66-4.39-3.02-6.98c-0.37-2.64-0.26-5.34-0.92-7.93c-1.05-4.09-3.6-7.56-6.8-10.25
			c-1.62-1.35-3.47-2.46-5.37-3.36c-1.44-0.67-3.77-1.83-5.02-0.3c-1.26,1.55-0.89,3.66-0.21,5.38c1,2.51,2.65,4.84,4.06,7.13
			c3.01,4.91,6.15,9.73,9.42,14.47c1.54,2.22,3.06,4.49,4.71,6.62c1.31,1.69,2.75,2.8,4.95,2.68c2.08-0.11,4.14-1.06,6.07-1.78
			c2.31-0.86,4.61-1.58,7.09-1.72c1.32-0.08,2.53,1.2,2.5,2.5c-0.11,4.09-1.32,7.97-3.25,11.56c-4.04,7.52-10.72,13.02-15.51,19.98
			c-2.4,3.49-4.54,7.42-5.13,11.68c-0.26,1.93-0.14,3.9,0.4,5.77c0.61,2.11,1.78,4.04,2.21,6.2c0.86,4.37-1.34,7.55-4.86,9.85
			c-2.74,1.8-5.43,3.01-6.72,6.25c-1.42,3.56-1.76,7.46-3.72,10.82c-2.27,3.91-6.24,6.34-9.9,8.79l-12.63,8.45
			c-3.23,2.16-6.98,5.53-11.18,4.98c-2.06-0.28-3.73-1.71-4.19-3.76c-0.26-1.16-0.06-2.34,0.24-3.47c0.2-0.71,0.59-1.64,0.51-2.27
			c-0.05-0.32-0.39-0.74-0.82-1.16c-0.56-0.56-1.2-1.04-1.81-1.54c-1.48-1.2-2.73-2.5-3.46-4.29c-0.79-1.93-0.85-4.03-0.92-6.08
			c-0.06-1.66-0.08-3.38-1.02-4.82c-1.48-2.25-4.54-3.64-6.56-5.73c-1.1-1.13-2.03-2.52-2.34-4.1c-0.43-2.22,0.29-4.18,1.25-6.15
			c0.82-1.67,1.05-2.9,0.32-4.65c-0.74-1.79-1.82-3.41-2.55-5.21c-1.69-4.16-0.42-8.35,0.43-12.54c0.36-1.78,0.61-3.69-0.04-5.43
			c-0.56-1.49-1.65-2.71-2.72-3.86c-1.3-1.41-2.63-2.78-3.75-4.34c-1.28-1.8-1.87-3.86-2.6-5.92c-1.05-2.97-3.5-4.38-6.51-4.8
			c-8.12-1.12-15.46,4.38-23.57,4.35c-8.73-0.03-14.77-7.04-16.21-15.22c-0.84-4.79-0.27-9.61,0.54-14.36
			c0.81-4.75,1.47-9.55,2.41-14.28c0.86-4.28,2.47-8.35,5.09-11.87c2.55-3.41,5.63-6.25,9-8.84c3.22-2.48,6.64-4.9,10.18-6.91
			c1.92-1.1,4.13-1.98,6.39-1.82c2.04,0.14,3.89,0.99,5.64,2.01c1.33,0.78,2.68,1.81,4.21,2.15c1.41,0.31,2.59-0.57,3.67-1.62
			c2.85-2.8,6.53-6.46,10.91-4.43c2.11,0.98,2.81,2.92,3.67,4.91c0.59,1.36,1.32,2.31,2.39,3.27c1.96,1.76,4.82,2.73,7.44,2.77
			c1.47,0.03,2.52-0.13,3.95-0.64c1.31-0.46,2.4-1.43,3.56-2.38c1.82-1.48,4.12-1.81,6.13-0.49c1.58,1.03,2.43,2.68,3.73,3.98
			c2.25,2.26,5.88,2.24,8.72,1.32c3.74-1.22,6.59-4.45,8.98-7.41c0.64-0.79,1.27-1.6,1.88-2.42c0.41-0.54,1.16-1.46,1.21-2.02
			c0.01-0.11-0.14-0.32-0.12-0.3c-0.19-0.21-0.21-0.23-0.52-0.4c-0.47-0.24-1.1-0.44-1.6-0.52c-1.78-0.28-3.65,0.22-5.45,0.16
			c-2.16-0.08-4.14-0.67-5.73-2.18c-0.9-0.86-1.04-2.71,0-3.54c2.23-1.79,4.74-2.45,7.57-2.6c2.37-0.13,4.87,0.2,7.19-0.28
			c1.75-0.36,3.22-1.21,3.75-3.03c0.51-1.79,0.08-3.73-1.08-5.18c-2.78-3.48-7.94-4.19-12.01-3.1c-4.34,1.15-7.57,4.03-9.53,8.01
			c-1.98,4.01-3.52,8.72-7.9,10.73c-1.57,0.73-3.05,0.11-3.67-1.49c-1.99-5.15-5.19-9.8-9.22-13.56c-0.82-0.77-1.54-1.23-2.56-1.64
			c0.05,0.32,0.05,0.91,0.07,1.05c0.37,3.18,1.24,6.32,2.34,9.32c0.46,1.25-0.51,2.77-1.74,3.08c-2.35,0.58-4.63-0.29-6.26-2.03
			c-1.51-1.62-2.2-3.59-2.94-5.63c-0.48-1.31-1.12-2.95-2.67-3.18c-1.41-0.21-2.99,0.6-4.15,1.44c-2.82,2.03-4.36,5.45-6.86,7.83
			c-2.62,2.51-6.04,3.95-9.64,2.78c-3.19-1.03-5.97-3.85-5.3-7.43c0.68-3.58,4.15-5.09,7.37-5.74c1.5-0.3,3.06-0.4,4.34-1.33
			c0.42-0.3,0.84-0.85,1.02-1.09c0.03-0.04,0.03-0.05,0.05-0.08c-0.03-0.02-0.31-0.32-0.38-0.39c-1.66-1.47-2.86-3.02-2.43-5.39
			c0.35-1.85,1.66-3.51,3.31-4.39c1.92-1.02,4.06-1.02,6.16-1.26c1.59-0.18,3.18-0.64,4.61-1.35c3.05-1.52,5.43-3.9,6.94-6.96
			c0.81-1.64,3.49-1.61,4.31,0c1.21,2.37,2.84,5.48,5.44,6.56c1.06,0.45,2.05,0.25,3.1-0.38c1.7-1,3.24-2.33,4.82-3.5
			c3.4-2.53,6.92-4.95,10.22-7.61c0.8-0.65,1.07-1.13,0-1.84c-1.23-0.8-3.18-0.48-4.55-0.39c-2.05,0.14-3.31-2.73-1.88-4.15
			c-0.03-0.04-0.06-0.07-0.06-0.07c-0.22-0.23-0.35-0.31-0.44-0.37c-0.33-0.23-0.22-0.16-0.52-0.25c-0.24-0.08-0.24-0.09-0.33-0.08
			c-0.25,0.04-0.97,0.45-1.38,0.82c-2.52,2.29-3.54,5.68-6.57,7.53c-2.63,1.61-6.36,2.08-8.68-0.33c-2.72-2.82-1.46-6.84,0.72-9.52
			c4.15-5.11,11.38-7.16,17.59-8.23c6.14-1.05,12.42-1.33,18.38-3.29c4.81-1.59,9.86-4.45,11.74-9.44c0.47-1.27,1.67-2.13,3.07-1.74
			c0.48,0.13,0.92,0.44,1.25,0.84c2.62,0.84,5.19,1.81,7.71,2.88c2.6,1.04,5.18,2.14,7.72,3.31c18.94,8.75,36.1,21.4,50.07,36.89
			c0.38,0.43,0.58,0.89,0.64,1.35c3.08,3.73,5.92,7.66,8.53,11.73c8.5,13.27,14.59,27.86,20.18,42.58c1.86,3,3.13,6.4,3.7,9.88
			C388.13,294.42,383.92,295.62,382.79,292.58z"/>
		<path style="fill:#91E2D8;" d="M316.59,373.73c-0.35,0.84-0.85,1.48-1.44,2c-2.2,4.41-4.4,8.82-6.6,13.23
			c-0.89,1.79-1.7,3.72-3.12,5.18c-1.52,1.56-4.24,2.6-6.07,0.88c-1.8-1.68-0.98-4.23,0.04-6.1c0.77-1.41,1.82-2.58,1.82-4.05
			c-0.01-1.87-0.64-3.71-0.37-5.66c0.28-2.06,1.53-3.84,3.38-4.81c1.65-0.87,3.4-1.08,5.18-1.48c0.72-0.16,1.4-0.36,1.86-0.6
			c0.02-0.02,0.03-0.05,0.04-0.07c0.2-0.4,0.53-0.7,0.9-0.9c0.02-0.05,0.04-0.09,0.07-0.14c0.52-1.26,2.37-1.51,3.42-0.9
			C316.97,371.05,317.12,372.49,316.59,373.73z"/>
		<path style="fill:#32384C;" d="M390.058,319.235c-0.148,1.342-0.337,2.68-0.436,4.025c-2.281,30.937-13.519,58.188-34.192,81.305
			c-22.478,25.134-50.626,39.889-84.057,44.453c-6.502,0.888-13.047,1.414-19.62,1.229c-37.371-1.05-69.53-14.43-95.816-41.14
			c-19.907-20.227-32.064-44.549-36.872-72.529c-1.256-7.307-1.881-14.673-1.866-22.085c0.069-34.877,11.44-65.575,34.634-91.629
			c20.439-22.959,45.979-37.235,76.18-43.084c13.408-2.597,26.933-3.135,40.482-1.575c33.453,3.853,61.883,17.964,84.895,42.571
			c20.435,21.852,32.202,47.824,35.68,77.539c0.311,2.656,0.454,5.331,0.695,7.995c0.057,0.631,0.194,1.255,0.294,1.882
			C390.058,311.874,390.058,315.554,390.058,319.235z M306.148,269.756c-0.582,1.594-0.485,2.752,0.133,3.953
			c1.166,2.267,2.925,3.589,5.552,3.779c1.957,0.142,3.569,1.074,4.783,2.66c1.608,2.1,1.617,2.093,3.031-0.212
			c1.622-2.645,4.775-2.709,6.426-0.059c0.627,1.005,1.208,2.133,1.423,3.278c0.294,1.567,0.976,2.645,2.281,3.57
			c1.706,1.21,1.795,3.654,0.377,5.196c-0.296,0.322-0.641,0.601-0.978,0.884c-3.788,3.174-7.869,6.056-10.07,10.741
			c-0.431,0.918-1.164,1.743-1.91,2.45c-0.975,0.925-1.997,1.903-3.182,2.487c-4.161,2.05-8.492,2.681-13,1.098
			c-1.382-0.485-2.388-1.3-2.39-2.797c-0.002-1.662,0.084-3.359,0.428-4.977c0.457-2.154,0.095-3.898-1.788-5.135
			c-3.505-2.304-6.523-5.077-8.664-8.728c-0.02-0.034-0.055-0.059-0.078-0.091c-0.968-1.367-1.892-2.767-2.913-4.093
			c-1.288-1.672-2.609-3.324-4.006-4.905c-0.747-0.844-1.895-1.129-2.856-0.588c-0.72,0.405-1.406,1.229-1.635,2.006
			c-0.128,0.434,0.605,1.27,1.127,1.72c1.542,1.327,3.173,2.549,4.767,3.815c3.558,2.824,5.262,6.552,5.273,11.051
			c0.006,2.251,0.816,3.951,2.88,4.973c0.322,0.159,0.615,0.375,0.934,0.54c2.069,1.072,3.358,2.763,4.067,4.964
			c0.379,1.176,0.862,2.32,1.332,3.465c0.702,1.71,2.103,2.546,3.847,2.591c0.954,0.025,1.918-0.454,2.883-0.678
			c1.232-0.286,2.588-0.997,3.679-0.713c1.877,0.489,3.263-0.159,4.748-0.96c0.806-0.435,1.606-0.915,2.465-1.208
			c1.547-0.529,3.746,0.291,4.45,1.547c0.707,1.261,0.368,2.436-1.301,3.798c-3.003,2.451-3.455,6.156-4.486,9.471
			c-1.144,3.678-2.094,7.442-4.374,10.547c-1.854,2.525-4.327,4.586-6.398,6.963c-1.725,1.981-3.516,3.977-4.83,6.227
			c-2.072,3.547-1.97,7.408-0.665,11.253c0.208,0.613,0.467,1.348-0.359,1.645c-0.839,0.302-1.1-0.447-1.301-1.051
			c-1.832-5.503-1.316-10.657,2.45-15.24c1.491-1.814,3.145-3.494,4.722-5.238c0.193-0.213,0.367-0.442,0.55-0.664
			c-4.133,3.199-8.037,6.593-10.477,11.316c-0.365,0.707-0.659,1.462-0.892,2.223c-1.372,4.482-1.604,8.842,1.079,13.037
			c0.8,1.251,1.293,2.758,1.663,4.215c1.095,4.316-0.904,8.873-4.771,11.062c-1.425,0.806-2.92,1.488-4.372,2.247
			c-1.965,1.027-3.257,2.601-3.567,4.818c-0.182,1.298-0.172,2.627-0.191,3.942c-0.045,3.035-1.187,5.561-3.629,7.354
			c-1.24,0.91-2.649,1.639-4.069,2.245c-3.693,1.576-6.93,3.591-9.446,6.902c-2.064,2.716-5.162,4.143-8.558,4.879
			c-3.391,0.735-6.801,1.448-8.791,4.887c-1.054,1.82-3.403,1.782-5.053,0.165c-1.967-1.928-2.527-4.895-1.408-7.421
			c0.291-0.658,0.58-1.318,0.835-1.99c1.154-3.054,0.685-4.865-1.935-6.794c-2.814-2.073-4.672-4.67-5.013-8.228
			c-0.197-2.063-1.063-3.861-2.435-5.371c-1.125-1.239-2.358-2.387-3.597-3.516c-3.629-3.307-3.849-7.607-0.696-11.329
			c1.308-1.544,2.376-3.297,3.49-4.996c0.613-0.936,0.653-1.985,0.04-2.955c-1.064-1.682-2.044-3.442-3.297-4.974
			c-1.992-2.434-3.532-5.064-4.115-8.154c-0.464-2.462-0.65-4.975-1.085-7.443c-0.21-1.192-0.557-2.414-1.118-3.477
			c-0.685-1.297-1.639-2.457-2.518-3.647c-0.783-1.06-1.877-1.394-3.172-1.292c-1.31,0.103-2.628,0.199-3.939,0.155
			c-1.543-0.051-2.846-0.668-3.809-1.957c-0.669-0.895-1.398-1.753-2.168-2.563c-1.505-1.582-3.344-1.9-5.196-0.709
			c-1.529,0.984-2.958,2.149-4.318,3.362c-0.979,0.872-2.009,1.332-3.311,1.454c-3.063,0.289-5.397-1.04-7.47-3.095
			c-1.678-1.663-3.58-3.142-6.015-3.105c-2.55,0.04-4.255-0.966-5.253-3.181c-0.665-1.476-1.175-3.033-1.63-4.59
			c-0.323-1.105-0.442-2.271-0.645-3.41c-0.409-2.294-2.093-3.826-3.373-5.589c-2.361-3.251-3.139-6.64-0.906-10.245
			c0.685-1.106,1.53-2.185,2.519-3.017c2.059-1.73,2.644-3.801,1.992-6.33c-0.831-3.218-0.728-6.388,0.319-9.566
			c0.669-2.031,1.803-3.619,3.568-4.804c1.693-1.136,3.35-2.327,5.033-3.479c1.509-1.034,2.534-2.39,3.033-4.175
			c0.322-1.151,0.648-2.34,1.221-3.374c1.463-2.64,3.233-5.097,6.553-5.407c1.832-0.171,2.963-0.867,3.845-2.5
			c1.414-2.617,3.444-3.287,6.285-2.401c0.457,0.143,0.914,0.299,1.35,0.496c3.016,1.364,6.01,2.779,9.053,4.078
			c0.579,0.247,1.413,0.237,2.017,0.024c2.004-0.708,3.354-2.182,4.469-3.979c2.324-3.745,4.729-4.565,8.92-3.218
			c1.77,0.569,2.522,1.608,2.13,3.441c-0.274,1.283-0.912,2.489-1.451,3.897c0.659,0.539,1.542,1.277,2.441,1.994
			c1.244,0.991,2.61,1.619,4.244,1.765c2.696,0.241,5.427,0.374,7.938,1.604c0.526,0.258,1.151,0.33,1.739,0.442
			c2.037,0.387,3.511-0.819,3.537-2.874c0.02-1.562,0.545-2.418,1.816-2.734c0.65-0.162,1.346-0.202,2.019-0.19
			c2.393,0.042,4.316,1.197,6.221,2.529c1.754,1.226,3.578,2.452,5.545,3.251c2.843,1.155,5.722,0.51,8.528-0.56
			c1.365-0.521,2.316-1.396,2.955-2.648c1.067-2.089,2.109-4.191,3.137-6.3c0.724-1.484,0.585-3.519-0.37-4.406
			c-1.233-1.144-2.596-1.032-4.125-0.474c-1.866,0.682-3.803,1.275-5.759,1.572c-1.288,0.196-2.732,0.013-3.988-0.38
			c-1.735-0.543-2.283-2.378-1.368-3.914c0.757-1.269,1.536-2.531,2.393-3.732c1.559-2.183,3.731-3.056,6.374-2.703
			c1.027,0.137,2.049,0.35,3.058,0.592c3.743,0.899,7.471,0.41,11.196-0.1c0.857-0.117,1.179-0.563,0.652-1.416
			c-0.915-1.482-2.066-2.715-3.813-3.076c-1.982-0.41-3.312-1.302-3.834-3.408c-0.328-1.321-1.756-1.657-2.887-1.79
			c-0.531-0.063-1.24,0.791-1.753,1.337c-0.458,0.487-0.699,1.174-1.142,1.68c-0.599,0.685-1.339,1.179-2.324,0.752
			c-1.017-0.441-2.036-0.879-3.035-1.357c-0.819-0.392-1.526-0.313-2.2,0.306c-2.51,2.304-4.297,4.942-3.89,8.558
			c0.314,2.788-1.792,4.727-4.267,4.237c-0.86-0.17-1.304,0.275-1.599,1.068c-0.418,1.121-0.89,2.231-1.444,3.291
			c-0.733,1.402-2.148,1.808-3.585,1.133c-1.285-0.604-2.094-1.669-2.425-2.977c-0.39-1.54-0.562-3.135-0.808-4.71
			c-0.215-1.376-0.235-2.815-1.413-3.835c-1.179-1.02-2.304-2.113-3.551-3.044c-0.948-0.708-2.005-1.324-3.103-1.753
			c-0.505-0.198-1.579-0.042-1.762,0.296c-0.266,0.491-0.183,1.45,0.152,1.926c0.582,0.826,1.476,1.43,2.231,2.136
			c1.455,1.357,3.069,2.586,4.307,4.118c1.118,1.384,0.651,3.085-0.664,3.849c-1.382,0.803-2.504,0.365-3.539-1.3
			c-0.304-0.488-0.773-0.873-1.167-1.305c-0.121,0.053-0.243,0.106-0.364,0.158c-0.092,0.654-0.173,1.309-0.278,1.961
			c-0.114,0.705-0.153,1.442-0.397,2.102c-0.48,1.299-1.675,1.996-3.02,1.907c-1.165-0.077-1.985-0.808-2.308-2.234
			c-0.155-0.685-0.237-1.443-0.111-2.123c0.231-1.248,0.03-2.334-0.544-3.462c-0.423-0.832-0.607-1.8-0.809-2.727
			c-0.204-0.934-0.25-1.903-0.455-2.836c-0.294-1.338-0.967-2-2.282-1.69c-1.173,0.276-2.3,1.006-3.283,1.751
			c-0.993,0.752-1.955,1.254-3.231,1.351c-3.33,0.254-6.12,1.488-7.667,4.71c-0.311,0.647-0.709,1.252-1.075,1.872
			c-1.399,2.37-3.551,3.792-6.111,4.532c-2.937,0.849-5.275-0.023-6.266-2.248c-0.804-1.805-1.902-3.297-3.557-4.411
			c-1.304-0.878-1.8-2.167-1.625-3.751c0.267-2.421,2.298-4.776,4.769-5.471c2.012-0.566,3.944-0.185,5.899,0.35
			c1.103,0.301,2.277,0.582,3.4,0.52c2.144-0.119,2.92-1.652,1.912-3.539c-0.47-0.879-1.11-1.667-1.577-2.547
			c-0.708-1.335-1.421-2.681-1.969-4.085c-0.567-1.453-0.072-1.972,1.469-2.254c1.553-0.284,3.072-0.767,4.593-1.207
			c1.264-0.366,2.49-0.88,3.768-1.179c2.332-0.546,4.702-0.932,7.035-1.476c2.429-0.566,3.422-1.842,3.908-4.232
			c0.248-1.219,0.715-2.49,1.423-3.5c1.345-1.92,3.944-1.562,4.949,0.551c0.206,0.433,0.398,0.877,0.539,1.333
			c0.363,1.17,1.161,1.89,2.29,2.267c1.702,0.569,3.398,1.166,5.124,1.651c0.627,0.176,1.351,0.171,2.003,0.071
			c2.716-0.417,4.096-2.342,4.938-4.704c0.928-2.603,2.701-4.068,5.398-4.501c0.788-0.126,1.573-0.293,2.345-0.496
			c1.014-0.266,1.446-1.305,1.097-2.531c-0.322-1.131-1.129-0.796-1.844-0.572c-1.218,0.381-2.394,0.918-3.63,1.212
			c-1.598,0.38-2.481-0.406-2.136-2.015c0.287-1.34,0.947-2.6,1.451-3.892c0.172-0.442,0.371-0.873,0.629-1.478
			c-0.502,0.035-0.737,0.018-0.955,0.071c-3.11,0.752-4.808,2.995-5.009,6.19c-0.129,2.054-0.419,4.133-0.95,6.117
			c-0.451,1.682-1.743,2.035-3.328,1.401c-0.499-0.199-1.156-0.25-1.673-0.112c-1.655,0.443-2.883,0.134-3.637-1.438
			c-0.814-1.698-2.101-2.615-3.789-3.229c-1.212-0.441-2.439-1.071-2.614-2.537c-0.183-1.527,1.149-2.06,2.149-2.75
			c1.61-1.112,3.314-2.101,4.836-3.321c1-0.801,1.992-0.972,3.308-0.857c-2.285,3.08-5.665,4.535-8.791,6.794
			c0.857,0.485,1.428,0.911,2.069,1.15c1.871,0.699,3.412,1.722,4.21,3.655c0.371,0.898,1.027,1.016,1.968,0.771
			c0.716-0.186,1.624-0.212,2.28,0.074c1.03,0.45,1.472,0.109,1.609-0.802c0.279-1.851,0.503-3.712,0.681-5.575
			c0.43-4.49,3.165-7.005,7.642-6.978c1.359,0.008,2.066,0.886,1.627,2.197c-0.275,0.822-0.819,1.551-1.178,2.35
			c-0.341,0.758-0.599,1.554-0.997,2.608c0.795-0.252,1.205-0.397,1.624-0.512c1.26-0.346,2.506-0.8,3.79-0.984
			c1.106-0.158,2.047,0.498,2.239,1.588c0.553,3.135,0.164,4.874-2.935,5.247c-3.218,0.387-5.168,1.821-6.421,4.975
			c-1.916,4.821-6.872,5.73-10.092,3.939c-0.48-0.267-1.043-0.425-1.587-0.526c-2.839-0.526-5.02-1.786-5.793-4.823
			c-0.103-0.406-0.674-0.98-1.011-0.968c-0.451,0.016-1.087,0.431-1.284,0.845c-0.438,0.922-0.771,1.931-0.93,2.938
			c-0.225,1.423-0.828,2.526-1.925,3.464c-1.474,1.261-3.263,1.59-5.052,2.032c-4.548,1.122-9.079,2.317-13.893,3.553
			c0.719,1.334,1.298,2.453,1.919,3.547c0.65,1.146,1.446,2.22,1.992,3.411c0.881,1.919,0.304,3.774-1.599,4.658
			c-1.1,0.511-2.443,0.725-3.663,0.683c-1.248-0.043-2.477-0.578-3.72-0.872c-3.014-0.712-5.4,0.171-6.659,2.446
			c-0.939,1.696-0.733,2.832,0.834,3.929c1.557,1.09,2.663,2.515,3.443,4.221c0.795,1.739,1.439,2.22,3.352,2.002
			c1.038-0.118,2.073-0.537,3.036-0.979c2.251-1.034,3.355-3.116,4.459-5.166c1.515-2.811,3.868-4.497,7.003-4.86
			c2.11-0.244,3.784-1.062,5.447-2.368c3.18-2.498,6.566-1.069,7.177,2.915c0.291,1.898,0.533,3.762,1.46,5.513
			c0.374,0.707,0.243,1.696,0.282,2.56c0.024,0.514-0.202,1.072-0.07,1.541c0.154,0.545,0.576,1.015,0.882,1.517
			c0.443-0.445,1.089-0.817,1.279-1.351c0.273-0.767,0.07-1.7,0.334-2.472c0.264-0.772,0.714-1.817,1.335-2.042
			c0.695-0.251,1.715,0.188,2.513,0.521c0.419,0.175,0.627,0.805,1,1.155c0.351,0.33,0.793,0.562,1.195,0.837
			c-0.013-0.53,0.069-1.086-0.07-1.58c-0.097-0.346-0.464-0.646-0.765-0.901c-1.098-0.929-2.201-1.853-3.335-2.736
			c-1.244-0.968-2.438-1.971-2.95-3.533c-0.671-2.045,0.735-4.077,2.859-3.906c1.148,0.092,2.374,0.485,3.355,1.086
			c1.384,0.847,2.489,2.147,3.865,3.012c2.741,1.723,3.454,4.342,3.597,7.292c0.012,0.24-0.024,0.494,0.044,0.717
			c0.394,1.284,0.617,2.674,1.275,3.809c0.75,1.294,1.742,1.117,2.371-0.234c0.421-0.905,0.785-1.837,1.162-2.762
			c0.612-1.5,1.317-1.966,2.938-1.922c2.258,0.061,2.865-0.483,2.688-2.696c-0.349-4.371,1.873-7.433,4.988-10.052
			c0.895-0.752,1.957-0.835,3.058-0.439c0.788,0.283,1.58,0.553,2.373,0.822c1.122,0.381,1.921,0.199,2.473-1.027
			c0.517-1.149,1.393-2.072,2.78-2.222c1.945-0.211,4.588,1.457,5.141,3.356c0.31,1.063,0.889,1.583,1.955,1.801
			c2.415,0.495,4.172,1.934,5.406,4.038c1.172,1.999,0.547,3.609-1.727,4.005c-2.158,0.376-4.37,0.726-6.545,0.659
			c-2.535-0.079-5.067-0.554-7.579-0.984c-2.801-0.48-4.595,0.271-6.035,2.729c-0.323,0.552-0.704,1.076-0.972,1.653
			c-0.314,0.677-0.534,1.398-0.794,2.1c0.805,0.28,1.603,0.586,2.421,0.823c0.247,0.072,0.56-0.016,0.826-0.089
			c2.112-0.582,4.248-1.092,6.322-1.789c2.956-0.993,5.985,0.483,6.557,3.376c0.345,1.744,0.048,3.382-0.878,4.956
			c-0.864,1.468-1.59,3.023-2.29,4.579c-0.737,1.641-1.596,3.186-3.286,3.977c-4.829,2.26-9.609,2.582-14.221-0.598
			c-1.151-0.794-2.283-1.616-3.425-2.424c-1.437-1.017-3.002-1.672-4.793-1.647c-1.375,0.019-1.559,0.222-1.569,1.627
			c-0.018,2.436-2.588,4.703-4.993,4.305c-1.215-0.201-2.392-0.629-3.594-0.922c-1.385-0.338-2.766-0.737-4.173-0.938
			c-2.484-0.354-5.051-0.331-7.138-2.065c-1.014-0.843-2.089-1.614-3.106-2.453c-1.112-0.917-1.062-1.707-0.246-2.891
			c0.582-0.846,0.908-1.884,1.248-2.871c0.085-0.246-0.166-0.864-0.355-0.907c-1.465-0.333-2.815-1.322-4.481-0.56
			c-1.394,0.638-2.362,1.603-3.073,2.898c-1.184,2.157-2.933,3.695-5.215,4.564c-0.753,0.287-1.715,0.556-2.42,0.331
			c-1.892-0.606-3.713-1.446-5.53-2.266c-1.637-0.739-3.196-1.657-4.852-2.347c-2.758-1.149-3.997-0.699-5.393,1.916
			c-0.848,1.588-2.06,2.542-3.869,2.598c-1.995,0.062-3.609,0.921-4.668,2.523c-0.954,1.443-1.829,3.016-2.34,4.656
			c-0.79,2.533-2.135,4.516-4.348,5.959c-1.54,1.005-3.019,2.104-4.552,3.12c-1.461,0.968-2.374,2.271-2.958,3.936
			c-1.091,3.113-0.884,6.194-0.155,9.32c0.638,2.738-0.135,5.046-2.238,6.922c-0.596,0.531-1.23,1.059-1.684,1.703
			c-2.6,3.694-2.71,5.66-0.544,8.733c1.058,1.501,2.165,2.982,3.383,4.354c1.296,1.46,2.086,3.097,2.401,5.002
			c0.43,2.596,2.365,4.574,4.953,5.021c0.902,0.156,1.826,0.187,2.741,0.26c1.994,0.158,3.418,1.462,4.987,2.472
			c2.792,1.798,5.958,1.64,8.806-0.064c2.073-1.241,4.313-2.276,6.591-3.082c2.511-0.889,5.05-0.512,7.111,1.267
			c1.029,0.888,1.829,2.095,2.55,3.269c0.657,1.068,1.45,1.61,2.702,1.641c0.99,0.025,2.091-0.035,2.941,0.369
			c3.009,1.428,5.199,3.714,5.616,7.126c0.372,3.045,0.417,6.135,0.515,9.208c0.136,4.229,1.454,7.944,4.222,11.207
			c1.33,1.568,2.339,3.414,3.443,5.165c1.051,1.666,0.927,3.396-0.125,4.978c-1.301,1.957-2.665,3.883-4.146,5.705
			c-1.204,1.481-1.479,2.997-1.005,4.803c0.581,2.217,2.258,3.519,3.827,4.939c2.587,2.341,4.555,5.026,4.911,8.648
			c0.286,2.904,1.83,5.059,4.161,6.712c0.196,0.139,0.385,0.288,0.569,0.44c2.74,2.264,3.439,4.77,2.235,8.107
			c-0.312,0.864-0.67,1.712-1.033,2.556c-0.759,1.766-0.356,3.957,0.998,5.316c1.013,1.017,1.878,0.887,2.751-0.231
			c0.777-0.995,1.543-2.201,2.605-2.727c2.089-1.035,4.331-1.867,6.599-2.411c3.418-0.821,6.291-2.31,8.569-5.054
			c1.207-1.454,2.607-2.841,4.17-3.884c1.843-1.231,3.909-2.169,5.961-3.037c4.126-1.744,5.924-4.265,5.993-8.744
			c0.01-0.64,0.011-1.28,0.029-1.92c0.092-3.279,1.58-5.727,4.438-7.314c1.257-0.698,2.535-1.376,3.858-1.935
			c3.861-1.632,5.836-6.698,4.306-10.509c-0.564-1.405-1.299-2.741-1.906-4.13c-0.478-1.093-1.083-2.184-1.283-3.336
			c-0.848-4.872,0.04-9.488,2.574-13.721c2.095-3.501,5.052-6.27,8.066-8.972c3.551-3.183,7.012-6.499,9.295-10.726
			c1.587-2.938,2.807-6.093,3.977-9.23c0.789-2.115,1.74-4.01,3.531-5.446c0.385-0.308,0.877-1.097,0.747-1.306
			c-0.271-0.432-0.925-0.856-1.424-0.859c-0.753-0.004-1.542,0.275-2.253,0.579c-1.062,0.454-2.031,1.141-3.113,1.526
			c-0.756,0.269-1.69,0.425-2.442,0.231c-1.255-0.323-2.362-0.131-3.502,0.309c-0.67,0.259-1.338,0.537-2.029,0.727
			c-2.982,0.822-5.885-0.468-7.228-3.234c-0.47-0.968-0.93-1.963-1.208-2.996c-0.643-2.389-1.992-4.115-4.234-5.209
			c-2.747-1.341-3.967-3.518-3.97-6.659c-0.003-3.794-1.44-7.094-4.514-9.521c-1.786-1.41-3.569-2.822-5.375-4.206
			c-1.884-1.443-1.849-4.622,0.09-5.901c2.17-1.432,4.58-1.299,6.315,0.617c1.573,1.737,2.93,3.671,4.353,5.54
			c0.7,0.92,1.323,1.898,2,2.837c1.05,1.456,2.074,2.934,3.194,4.335c0.611,0.764,1.355,1.441,2.119,2.058
			c1.396,1.127,2.872,2.156,4.277,3.272c1.822,1.446,2.291,3.336,1.849,5.582c-0.3,1.522-0.501,3.08-0.544,4.628
			c-0.016,0.546,0.455,1.47,0.893,1.604c2.207,0.675,4.465,1.434,6.815,0.947c4.026-0.835,7.637-2.388,9.768-6.235
			c0.464-0.838,0.935-1.684,1.507-2.449c0.951-1.273,1.863-2.613,3.012-3.69c1.835-1.72,3.85-3.246,5.789-4.855
			c1.728-1.434,1.73-2.542-0.085-3.798c-1.199-0.83-1.781-1.907-2.087-3.335c-0.27-1.259-0.823-2.516-1.507-3.614
			c-0.835-1.342-2.363-1.208-3.216,0.128c-0.258,0.404-0.473,0.836-0.732,1.239c-1.399,2.182-3.215,2.273-4.608,0.107
			c-1.206-1.875-2.837-2.778-5.014-3.046c-3.393-0.418-6.029-2.872-6.722-6.261c-0.208-1.017-0.141-2.155,0.081-3.177
			c0.261-1.202,1.447-1.799,2.525-1.222c0.939,0.503,1.834,1.286,2.449,2.157c1.479,2.094,2.703,2.316,4.536,0.493
			c1.306-1.299,2.853-1.695,4.506-1.069c1.083,0.41,2.044,1.177,3.009,1.857c1.002,0.706,1.852,1.681,2.928,2.219
			c2.578,1.287,5.282,1.33,8.043,0.453c4.41-1.401,6.689-0.665,9.055,3.213c1.278,2.095,2.936,3.495,5.153,4.421
			c3.984,1.664,6.928,4.383,8.344,8.575c0.165,0.49,0.437,0.943,0.64,1.421c0.735,1.733,1.816,3.183,3.364,4.282
			c1.562,1.108,2.571,2.627,3.064,4.461c0.341,1.271,0.641,2.561,0.832,3.861c0.273,1.861,0.889,3.56,1.997,5.078
			c0.536,0.735,1.236,1.591,2.132,1.135c0.706-0.359,1.199-1.283,1.589-2.055c0.199-0.394,0.08-1.05-0.096-1.511
			c-0.381-1.001-0.76-2.046-1.371-2.909c-2.297-3.24-2.175-6.375,0.125-9.535c0.956-1.314,1.385-2.8,1.021-4.423
			c-0.428-1.908-0.899-3.807-1.375-5.704c-0.674-2.685-0.386-5.207,1.049-7.621c1.95-3.281,3.615-3.576,6.458-1.08
			c1.469,1.29,2.848,2.758,4.51,3.733c2.31,1.355,3.71,3.189,4.357,5.724c0.603,2.362,1.179,4.736,1.935,7.05
			c0.39,1.194,1.144,2.27,1.734,3.399c0.104-0.047,0.208-0.094,0.312-0.141c-0.036-0.392-0.043-0.789-0.113-1.174
			c-0.564-3.148-1.042-6.316-1.728-9.437c-10.825-49.256-47.375-87.86-95.952-101.383c-2.345-0.653-3.695,0.257-4.05,2.815
			c0.846,0.177,1.737,0.254,2.546,0.552c4.608,1.701,9.548,2.476,13.816,5.169c0.944,0.596,1.145,1.006,0.922,1.919
			c-0.502,2.052-0.991,4.108-1.475,6.164c-0.079,0.337-0.186,0.701-0.134,1.029c0.205,1.293-0.139,1.589-1.388,1.236
			c-3.728-1.056-7.423-2.273-11.205-3.08c-8.311-1.774-16.769-2.395-25.246-2.572c-8.251-0.173-16.437,0.793-24.613,1.787
			c-13.098,1.592-25.431,5.805-37.523,10.872c-0.459,0.192-1.233,0.03-1.683-0.251c-0.547-0.342-1.042-0.921-1.322-1.51
			c-1.337-2.816-2.619-5.659-3.866-8.516c-0.448-1.027,0.013-2.099,1.017-2.609c4.931-2.504,10.073-4.489,15.373-6.044
			c6.487-1.903,13.08-3.293,19.792-4.208c8.639-1.178,17.28-2.387,26.009-2.286c6.586,0.076,13.172,0.541,19.748,0.973
			c2.413,0.158,4.8,0.719,7.139,1.086c0.627-1.248,1.193-2.374,1.761-3.498c-28.52-7.653-72.311-5.976-110.893,22.218
			c-41.873,30.599-55.024,76.005-55.04,106.575c2.74,0.368,4.18,2.241,5.123,4.624c0.337,0.851,0.643,1.732,0.81,2.629
			c0.43,2.316,0.77,4.648,1.155,6.973c0.482,2.904,0.651,5.884,2.58,8.369c2.182,2.81,4.365,5.63,6.345,8.581
			c1.024,1.526,1.816,3.284,2.346,5.047c0.753,2.506,0.058,5.027-0.783,7.4c-0.893,2.518-0.763,4.749,0.599,7.097
			c1.719,2.962,2.493,6.248,2.083,9.69c-0.197,1.655-0.763,3.263-1.039,4.913c-0.14,0.834-0.038,1.716,0.014,2.573
			c0.027,0.449,0.366,0.966,0.225,1.314c-0.126,0.309-0.72,0.428-1.142,0.649c0.171,0.31,0.335,0.626,0.517,0.933
			c27.747,47.001,79.229,69.415,125.602,65.646c30.523-2.481,57.333-13.844,80.209-34.193c31.46-27.984,47.642-70.226,44.38-110.277
			c-0.165-2.024-0.6-3.85-1.833-5.457c-2.113-2.754-3.334-5.884-4.018-9.262c-0.237-1.172-0.626-2.314-0.936-3.472
			c-0.458-1.708-1.465-2.919-2.993-3.861c-1.416-0.873-2.665-2.021-3.964-3.076c-0.713-0.579-1.373-1.223-2.065-1.829
			c-0.804-0.704-1.515-0.581-2.131,0.263c-1.205,1.653-2.175,3.432-1.83,5.545c0.326,2.003,0.861,3.973,1.326,5.952
			c0.616,2.618,0.707,5.175-1.003,7.46c-1.894,2.532-1.932,4.981-0.103,7.613c0.798,1.149,1.379,2.554,1.672,3.925
			c0.481,2.252-0.698,4.489-2.389,5.136c-1.81,0.692-3.471-0.146-4.924-2.412c-1.175-1.832-1.635-3.871-1.972-5.983
			c-0.353-2.215-0.699-4.553-2.655-5.986c-2.467-1.807-4.059-4.181-5.055-6.98c-1.28-3.599-3.767-5.985-7.219-7.402
			c-2.688-1.103-4.714-2.811-6.212-5.356c-1.709-2.903-3.204-3.33-6.479-2.444c-0.386,0.104-0.759,0.253-1.144,0.361
			c-2.25,0.631-4.498,0.593-6.749-0.015c-2.235-0.603-4.008-1.865-5.563-3.572c-1.588-1.743-3.405-1.784-4.921-0.322
			c-2.477,2.389-5.129,2.044-6.991-0.863C307.398,271.02,306.808,270.502,306.148,269.756z M135.91,379.283
			c0.326-1.493,0.535-2.861,0.929-4.173c0.89-2.96,0.99-5.905-0.032-8.83c-0.459-1.313-1.006-2.615-1.678-3.83
			c-1.155-2.086-1.431-4.196-0.646-6.457c0.314-0.904,0.568-1.831,0.809-2.758c0.826-3.169,0.613-6.178-1.416-8.896
			c-2.126-2.849-4.22-5.724-6.383-8.545c-1.369-1.785-2.299-3.732-2.637-5.957c-0.402-2.644-0.78-5.292-1.207-7.931
			c-0.364-2.25-0.763-4.504-2.04-6.464c-0.634-0.973-1.397-1.801-2.721-1.775c-0.279,9.844,1.423,25.888,6.424,41.234
			C128.063,363.34,131.535,371.46,135.91,379.283z M223.211,340.055c0.031-1.757-0.567-3.205-1.697-4.318
			c-1.006-0.991-2.065-2.174-3.625-2.101c-2.876,0.135-4.807-0.911-6.133-3.587c-1.333-2.689-4.199-3.75-7.059-2.757
			c-2.131,0.74-4.104,1.926-6.184,2.829c-1.406,0.61-2.837,1.296-4.325,1.553c-2.545,0.439-4.948-0.232-6.977-1.87
			c-1.704-1.376-3.619-1.91-5.771-1.961c-1.732-0.041-3.256-0.74-4.532-1.939c-0.262-0.246-0.537-0.479-0.806-0.718
			c0.745,1.757,1.466,3.523,3.794,3.407c3.004-0.15,5.189,1.508,7.346,3.277c1.07,0.877,2.157,1.776,3.364,2.432
			c2.039,1.11,3.958,0.584,5.664-0.948c1.44-1.293,3.031-2.47,4.707-3.437c2.157-1.244,4.862-0.738,6.613,1.044
			c0.922,0.939,1.685,2.035,2.611,2.969c0.481,0.486,1.126,1.007,1.759,1.103c1.243,0.189,2.546,0.231,3.794,0.083
			c2.459-0.292,4.413,0.332,5.758,2.521C222.027,338.475,222.642,339.251,223.211,340.055z M270.843,186.567c0,1.36,0,2.573,0,3.688
			c3.717,0.616,7.347,1.315,11.008,1.764c1.073,0.132,0.823-1.252,1.038-1.954c0.169-0.554-0.072-1.235-0.145-1.858
			c-0.003-0.025-0.146-0.037-0.224-0.05c-1.4-0.224-2.799-0.447-4.243-0.678c-0.13,0.904-0.157,1.715-0.395,2.458
			c-0.111,0.348-0.633,0.564-0.968,0.84c-0.226-0.333-0.589-0.643-0.647-1.003c-0.087-0.537,0.015-1.113,0.085-1.666
			c0.099-0.78-0.269-1.073-1-1.129C273.847,186.862,272.345,186.707,270.843,186.567z M233.628,187.98
			c-2.926,0.422-5.661,0.816-8.515,1.227c0.107,1.146,0.165,2.172,0.328,3.182c0.034,0.208,0.491,0.536,0.699,0.5
			c2.538-0.438,5.066-0.934,7.726-1.44C233.787,190.297,233.712,189.211,233.628,187.98z M243.221,186.807
			c-2.656,0.307-5.193,0.601-7.697,0.891c0,1.076-0.044,1.952,0.028,2.819c0.02,0.246,0.397,0.675,0.582,0.661
			c2.366-0.179,4.728-0.424,7.087-0.652C243.221,189.287,243.221,188.153,243.221,186.807z M290.265,193.772
			c0.174-1.108,0.379-2.078,0.448-3.057c0.02-0.291-0.28-0.803-0.536-0.883c-1.588-0.494-3.205-0.895-4.95-1.363
			c-0.406,1.46-0.759,2.732-1.139,4.101C286.19,192.979,288.101,193.351,290.265,193.772z M200.311,196.298
			c0.604,1.277,1.084,2.419,1.691,3.49c0.166,0.293,0.812,0.612,1.068,0.507c1.317-0.542,2.579-1.218,3.883-1.859
			c-0.532-1.095-0.974-2.122-1.532-3.083c-0.164-0.283-0.722-0.598-0.985-0.519C203.068,195.244,201.738,195.777,200.311,196.298z
			 M245.12,190.426c2.044-0.108,3.965-0.209,5.944-0.313c-0.085-1.142-0.119-2.133-0.257-3.11c-0.038-0.266-0.399-0.705-0.595-0.696
			c-1.69,0.076-3.376,0.237-5.092,0.375C245.12,187.965,245.12,189.07,245.12,190.426z M213.164,196.267
			c-0.495-1.198-0.918-2.3-1.417-3.366c-0.093-0.198-0.535-0.408-0.742-0.349c-1.403,0.397-2.786,0.865-4.254,1.336
			c0.644,1.394,1.216,2.632,1.811,3.918C210.082,197.298,211.54,196.81,213.164,196.267z M263.121,189.951
			c0-0.825,0.136-1.611-0.043-2.318c-0.145-0.571-0.61-1.425-1.036-1.492c-1.271-0.199-2.593-0.071-3.821-0.071
			c0,1.329,0,2.55,0,3.881C259.87,189.951,261.401,189.951,263.121,189.951z M197.63,203.339c1.136-0.714,2.133-1.341,3.191-2.006
			c-0.779-1.445-1.497-2.777-2.216-4.111c-1.162,0.566-2.047,0.997-3.041,1.481C196.247,200.236,196.907,201.717,197.63,203.339z
			 M213.361,191.904c0.451,1.171,0.84,2.245,1.29,3.294c0.078,0.183,0.447,0.402,0.618,0.358c1.136-0.294,2.254-0.655,3.455-1.017
			c-0.402-1.015-0.679-1.939-1.137-2.762c-0.192-0.345-0.801-0.708-1.165-0.658C215.417,191.258,214.44,191.611,213.361,191.904z
			 M264.919,190.054c0.872,0.071,1.615,0.123,2.357,0.194c1.874,0.178,1.901,0.176,1.856-1.679
			c-0.013-0.545-0.162-1.093-0.307-1.624c-0.051-0.185-0.264-0.446-0.424-0.463c-1.193-0.122-2.392-0.191-3.481-0.269
			C264.919,187.625,264.919,188.8,264.919,190.054z M223.694,193.324c-0.082-1.046-0.114-2.044-0.27-3.022
			c-0.041-0.257-0.506-0.672-0.718-0.638c-1.2,0.189-2.381,0.492-3.65,0.775c0.15,0.425,0.233,0.685,0.332,0.939
			C220.539,194.327,220.539,194.327,223.694,193.324z M291.989,194.168c1.406,0.39,2.735,0.758,4.24,1.175
			c0.182-0.929,0.397-1.769,0.482-2.622c0.025-0.249-0.267-0.688-0.511-0.779c-1.142-0.425-2.319-0.758-3.575-1.153
			C292.403,191.971,292.206,193.017,291.989,194.168z M256.376,190.101c0-1.197,0.062-2.19-0.035-3.166
			c-0.032-0.323-0.465-0.848-0.736-0.862c-1.006-0.053-2.021,0.068-3.048,0.125c0.08,1.159,0.086,2.12,0.246,3.054
			c0.054,0.318,0.474,0.776,0.769,0.812C254.465,190.169,255.38,190.101,256.376,190.101z M297.741,195.99
			c0.776,0.321,1.597,0.661,2.512,1.04c0.199-1.178,0.388-2.297,0.58-3.432c-0.778-0.294-1.449-0.547-2.06-0.778
			C298.411,193.93,298.085,194.933,297.741,195.99z M264.244,191.951c0-0.031,0-0.062,0-0.093c-3.818,0-7.636,0-11.454,0
			c0,0.031,0,0.062,0,0.093C256.608,191.951,260.426,191.951,264.244,191.951z M258.43,195.226c0.002,0.021,0.004,0.043,0.006,0.064
			c2.379,0,4.758,0,7.137,0c0-0.021,0-0.043,0-0.064C263.192,195.226,260.811,195.226,258.43,195.226z"/>
		<path style="fill:#32384C;" d="M297.424,392.413c-0.097-1.782,0.571-3.403,1.922-4.636c1.663-1.519,1.994-3.223,1.322-5.304
			c-0.327-1.013-0.499-2.098-0.584-3.163c-0.143-1.79,0.733-3.081,2.308-3.852c1.289-0.63,2.632-1.149,3.949-1.721
			c2.109-0.916,4.322-1.608,5.492-3.945c0.3-0.599,1.476-1.156,2.142-1.051c0.565,0.089,1.222,1.096,1.41,1.81
			c0.856,3.246,0.183,6.244-1.842,8.925c-0.602,0.796-1.217,1.586-1.874,2.336c-1.656,1.893-2.566,4.12-2.997,6.562
			c-0.664,3.76-3.329,5.958-6.351,7.655C299.746,397.475,297.426,395.671,297.424,392.413z M313.523,370.3
			c-1.16,2.577-3.161,3.649-5.268,4.576c-1.644,0.723-3.33,1.357-4.954,2.121c-1.276,0.6-1.662,1.433-1.421,2.84
			c0.175,1.021,0.435,2.03,0.687,3.036c0.539,2.146,0.165,4.035-1.488,5.599c-0.347,0.328-0.777,0.666-0.928,1.085
			c-0.394,1.099-0.884,2.24-0.914,3.375c-0.043,1.609,1.282,2.303,2.627,1.377c2.412-1.66,4.707-3.449,5.189-6.691
			c0.37-2.492,1.407-4.733,3.057-6.675c0.776-0.913,1.539-1.844,2.226-2.824C313.935,375.84,314.406,373.357,313.523,370.3z"/>
		<path style="fill:#32384C;" d="M304.817,240.773c0,0.36,0.018,0.72-0.003,1.079c-0.099,1.728,0.633,2.939,2.256,3.553
			c2.313,0.875,3.815,2.563,4.815,4.752c0.973,2.129,0.435,3.539-1.803,4.164c-3.461,0.966-6.817,1.006-9.731-1.644
			c-1.224-1.114-2.045-2.34-1.969-4.038c0.148-3.295-1.226-5.734-3.973-7.547c-2.557-1.688-2.999-3.723-1.488-6.386
			c0.607-1.07,1.326-2.102,2.132-3.031c1.963-2.264,4.638-1.769,5.442,1.142c0.41,1.483,0.929,2.391,2.422,2.921
			c1.319,0.469,1.757,1.783,1.88,3.119c0.058,0.634,0.01,1.278,0.01,1.917C304.81,240.773,304.813,240.773,304.817,240.773z
			 M303.031,240.815c0.092-2.898-0.125-3.593-2.566-4.213c-0.928-0.236-1.231-1.024-1.361-1.923c-0.089-0.618-0.212-1.28-0.52-1.806
			c-0.615-1.051-1.299-1.122-2.066-0.17c-0.846,1.05-1.652,2.164-2.274,3.355c-0.789,1.509-0.543,2.471,0.891,3.384
			c3.341,2.129,5.085,5.028,4.98,9.067c-0.044,1.709,2.127,4.02,3.771,4.346c0.171,0.034,0.367-0.086,0.553-0.091
			c0.488-0.012,1.02-0.123,1.457,0.028c1.379,0.476,2.671,0.235,3.968-0.259c0.659-0.251,0.83-0.675,0.547-1.319
			c-0.741-1.687-1.738-3.112-3.49-3.928C303.626,245.752,302.863,244.436,303.031,240.815z"/>
		<path style="fill:#32384C;" d="M181.558,253.991c0.189-2.06,1.348-3.045,3.35-2.752c3.377,0.493,4.924,3.305,3.244,5.913
			c-0.701,1.088-1.705,1.643-3.017,1.576c-1.249-0.063-2.093-0.749-2.565-1.847C182.169,255.945,181.891,254.956,181.558,253.991z"
			/>
		<path style="fill:#32384C;" d="M126.778,284.838c-0.013-2.364,1.132-3.759,3.08-3.754c2.08,0.005,3.828,1.742,3.836,3.811
			c0.007,1.985-1.748,3.818-3.698,3.862C128.241,288.798,126.79,287.031,126.778,284.838z"/>
		<path style="fill:#32384C;" d="M192.91,269.897c0.511,0.447,0.865,0.757,1.22,1.068c-0.324,0.323-0.634,0.662-0.975,0.966
			c-0.427,0.381-1.002,0.657-1.291,1.117c-0.396,0.631-0.644,1.377-0.849,2.103c-1.219,4.308-4.26,6.928-8.131,8.744
			c-0.41,0.193-1.044-0.09-1.573-0.152c0.266-0.464,0.428-1.068,0.821-1.363c0.792-0.594,1.745-0.968,2.568-1.526
			c2.368-1.604,3.958-3.766,4.758-6.549c0.303-1.053,0.825-2.092,1.463-2.983C191.341,270.733,192.147,270.421,192.91,269.897z"/>
		<path style="fill:#32384C;" d="M164.279,408.299c-0.558,0.236-0.994,0.596-1.347,0.527c-0.469-0.091-0.945-0.447-1.292-0.81
			c-3.117-3.262-6.218-6.54-9.29-9.843c-0.453-0.487-0.838-1.1-1.052-1.723c-0.115-0.334,0.201-0.817,0.323-1.232
			c0.379,0.133,0.922,0.149,1.113,0.417c3.106,4.352,6.825,8.128,10.802,11.67C163.76,407.503,163.905,407.79,164.279,408.299z"/>
		<path style="fill:#32384C;" d="M353.65,386.468c-1.71,0.006-2.863-1.002-2.894-2.53c-0.033-1.629,1.495-3.5,2.858-3.501
			c1.708-0.001,3.286,1.441,3.297,3.012C356.924,385.314,355.684,386.461,353.65,386.468z"/>
		<path style="fill:#32384C;" d="M153.426,390.265c0.438,0.296,0.845,0.483,1.138,0.782c2.373,2.423,4.74,4.851,7.058,7.325
			c0.246,0.263,0.166,0.832,0.238,1.259c-0.465-0.002-1.089,0.189-1.368-0.04c-1.108-0.908-2.143-1.914-3.141-2.946
			c-1.469-1.521-2.899-3.08-4.303-4.661c-0.226-0.255-0.334-0.715-0.301-1.062C152.767,390.703,153.15,390.517,153.426,390.265z"/>
		<path style="fill:#32384C;" d="M142.222,381.689c0.511,0.448,0.821,0.629,1.007,0.897c1.771,2.548,3.531,5.105,5.271,7.675
			c0.433,0.639,1.477,1.349,0.488,2.11c-0.908,0.698-1.374-0.399-1.825-0.982c-1.514-1.959-3.016-3.93-4.447-5.95
			c-0.473-0.667-0.81-1.472-1.021-2.264C141.602,382.82,141.974,382.342,142.222,381.689z"/>
		<path style="fill:#32384C;" d="M384.654,329.796c-0.295,2.391-0.579,5.011-0.981,7.614c-0.061,0.395-0.667,0.707-1.022,1.057
			c-0.237-0.444-0.709-0.908-0.672-1.329c0.169-1.948,0.53-3.878,0.719-5.825c0.107-1.101,0.016-2.222,0.008-3.334
			c-0.003-0.358-0.143-0.772-0.007-1.061c0.161-0.343,0.516-0.724,0.855-0.806c0.2-0.049,0.712,0.412,0.772,0.708
			C384.509,327.715,384.54,328.641,384.654,329.796z"/>
		<path style="fill:#32384C;" d="M227.949,347.694c0.13-0.697,0.157-1.44,0.434-2.073c0.138-0.316,0.733-0.432,1.122-0.639
			c0.161,0.394,0.521,0.827,0.452,1.176c-0.5,2.55-0.019,4.742,2.038,6.479c0.391,0.33,0.783,0.728,0.996,1.178
			c0.152,0.322,0.007,0.785-0.005,1.185c-0.398-0.013-0.944,0.14-1.171-0.063C229.668,353.008,227.707,350.951,227.949,347.694z"/>
		<path style="fill:#32384C;" d="M382.2,342.331c-0.245,1.045-0.342,1.897-0.644,2.668c-0.858,2.192-1.76,4.369-2.745,6.505
			c-0.173,0.375-0.834,0.525-1.27,0.779c-0.087-0.522-0.384-1.122-0.224-1.552c0.781-2.092,1.716-4.126,2.527-6.207
			c0.271-0.696,0.253-1.505,0.529-2.198c0.142-0.358,0.637-0.787,0.977-0.791C381.647,341.532,381.95,342.079,382.2,342.331z"/>
		<path style="fill:#32384C;" d="M238.651,364.746c-0.057,0.594,0,1.235-0.214,1.766c-0.134,0.332-0.676,0.5-1.036,0.741
			c-0.213-0.341-0.65-0.716-0.605-1.019c0.431-2.939-0.548-5.424-2.309-7.69c-0.146-0.188-0.355-0.407-0.356-0.612
			c0-0.431,0.119-0.861,0.19-1.292c0.415,0.113,0.977,0.092,1.222,0.36C237.538,359.181,238.59,361.93,238.651,364.746z"/>
		<path style="fill:#32384C;" d="M380.798,335.725c-0.42,1.394-0.786,2.574-1.131,3.76c-0.488,1.682-0.921,3.383-1.47,5.045
			c-0.132,0.4-0.629,0.679-0.958,1.013c-0.267-0.431-0.822-0.919-0.751-1.283c0.306-1.561,0.791-3.087,1.221-4.624
			c0.364-1.303,0.693-2.619,1.141-3.893c0.152-0.431,0.621-0.751,0.945-1.122C380.134,334.994,380.472,335.366,380.798,335.725z"/>
		<path style="fill:#32384C;" d="M275.39,392.453c-0.13,3.432-1.879,5.424-5.168,5.947c-0.371,0.059-0.807-0.29-1.213-0.449
			c0.205-0.38,0.332-0.851,0.638-1.114c0.313-0.268,0.8-0.336,1.213-0.484c2.013-0.723,2.858-1.961,2.801-4.073
			c-0.018-0.661-0.455-1.651,0.674-1.684c1.141-0.033,0.985,1.022,1.054,1.796C275.396,392.471,275.39,392.551,275.39,392.453z"/>
		<path style="fill:#32384C;" d="M240.124,360.566c-0.015-2.017-0.485-3.855-1.982-5.352c-0.262-0.263-0.157-0.893-0.221-1.353
			c0.463,0.034,1.048-0.1,1.368,0.131c1.843,1.335,3.253,5.675,2.562,7.863c-0.111,0.351-0.636,0.571-0.97,0.851
			c-0.252-0.354-0.581-0.679-0.733-1.072C240.028,361.322,240.124,360.926,240.124,360.566z"/>
		<path style="fill:#32384C;" d="M298.116,329.062c0.253,0.213,0.703,0.421,0.828,0.752c0.098,0.259-0.135,0.912-0.345,0.975
			c-2.218,0.667-3.011,2.725-4.307,4.286c-0.329,0.397-0.565,0.902-0.961,1.202c-0.244,0.185-0.776,0.205-1.055,0.06
			c-0.197-0.103-0.365-0.715-0.243-0.911c1.409-2.257,2.729-4.605,5.121-6.027C297.389,329.261,297.676,329.213,298.116,329.062z"/>
		<path style="fill:#32384C;" d="M266.814,399.43c-0.169,0.257-0.305,0.544-0.511,0.768c-1.727,1.875-3.448,3.756-5.222,5.585
			c-0.237,0.244-0.76,0.21-1.151,0.304c-0.074-0.423-0.33-0.927-0.184-1.251c0.289-0.641,0.742-1.236,1.23-1.753
			c1.286-1.363,2.603-2.701,3.967-3.986c0.3-0.283,0.836-0.38,1.277-0.424c0.299-0.03,0.622,0.183,0.935,0.287
			C267.04,399.117,266.927,399.273,266.814,399.43z"/>
		<path style="fill:#32384C;" d="M361.903,374.331c-0.234,0.463-0.52,1.354-1.068,2.032c-0.729,0.901-1.8,0.551-2.196-0.552
			c-0.199-0.557-0.574-1.048-0.817-1.593c-0.119-0.266-0.218-0.611-0.151-0.876c0.205-0.814,1.715-1.59,2.655-1.403
			C361.391,372.151,361.835,372.873,361.903,374.331z"/>
		<path style="fill:#32384C;" d="M176.72,291.797c0.464-1.414,0.844-2.837,1.425-4.172c0.16-0.367,0.919-0.473,1.404-0.699
			c0.045,0.489,0.265,1.049,0.103,1.456c-0.722,1.814-1.324,3.589-0.491,5.551c0.111,0.261-0.171,0.939-0.42,1.034
			c-0.277,0.106-0.935-0.134-1.059-0.397C177.282,293.726,177.052,292.802,176.72,291.797z"/>
		<path style="fill:#32384C;" d="M298.541,335.234c-0.249,0.381-0.419,0.689-0.634,0.96c-1.239,1.563-2.458,3.146-3.761,4.655
			c-0.289,0.334-0.889,0.4-1.346,0.589c-0.042-0.499-0.311-1.165-0.087-1.471c1.27-1.737,2.635-3.407,4.03-5.047
			c0.228-0.269,0.765-0.368,1.157-0.365C298.099,334.556,298.295,334.959,298.541,335.234z"/>
		<path style="fill:#32384C;" d="M131.82,275.714c0.002-1.326,0.592-1.806,2.227-1.811c1.222-0.004,2.092,0.758,2.076,1.819
			c-0.016,1.066-1.253,2.164-2.452,2.176C132.57,277.909,131.818,277.021,131.82,275.714z"/>
		<path style="fill:#32384C;" d="M261.506,400.282c-0.197-0.673-0.539-1.207-0.432-1.626c0.151-0.586,0.57-1.146,0.993-1.609
			c1.023-1.117,2.076-2.214,3.207-3.216c0.271-0.24,0.899-0.078,1.362-0.101c-0.077,0.456-0.004,1.035-0.257,1.348
			c-1.248,1.543-2.578,3.02-3.894,4.507C262.312,399.781,262.052,399.899,261.506,400.282z"/>
		<path style="fill:#32384C;" d="M286.682,262.845c-0.72,1.788-1.33,3.462-2.076,5.073c-0.271,0.586-0.865,1.227-1.639,0.687
			c-0.772-0.538-0.102-1.068,0.143-1.639c0.53-1.234,0.944-2.519,1.394-3.787c0.052-0.145,0.025-0.317,0.044-0.476
			c0.075-0.643,0.127-1.473,0.99-1.294C285.954,261.495,286.232,262.249,286.682,262.845z"/>
		<path style="fill:#32384C;" d="M305.474,327.076c-0.35,0.765-0.527,1.505-0.963,2.032c-0.828,1.002-1.758,1.937-2.749,2.778
			c-0.259,0.22-0.899-0.009-1.363-0.032c0.089-0.424,0.032-1.031,0.293-1.242c1.357-1.098,2.56-2.257,3.02-4.034
			c0.058-0.225,0.688-0.517,0.923-0.429C304.965,326.271,305.175,326.72,305.474,327.076z"/>
		<path style="fill:#32384C;" d="M285.104,259.775c-1.019,1.834-1.962,3.578-2.974,5.28c-0.105,0.176-0.764,0.254-0.927,0.109
			c-0.238-0.211-0.415-0.704-0.34-1.009c0.128-0.527,0.478-0.999,0.719-1.501c0.517-1.075,0.978-2.182,1.565-3.217
			c0.189-0.333,0.701-0.65,1.071-0.656C284.467,258.775,284.726,259.327,285.104,259.775z"/>
		<path style="fill:#32384C;" d="M180.794,291.536c0.316-0.836,0.609-1.871,1.103-2.799c0.229-0.43,0.814-0.753,1.307-0.924
			c0.252-0.087,0.772,0.188,0.954,0.451c0.125,0.18-0.018,0.749-0.225,0.92c-1.247,1.03-1.437,2.28-1.056,3.772
			c0.091,0.356-0.241,0.819-0.378,1.233c-0.411-0.222-0.984-0.345-1.193-0.689C181.013,293.018,180.992,292.371,180.794,291.536z"/>
		<path style="fill:#32384C;" d="M183.562,263.854c-0.004,1.296-0.854,2.333-1.909,2.329c-1.011-0.003-1.748-0.92-1.739-2.163
			c0.008-1.065,0.936-1.856,2.198-1.872C182.938,262.137,183.564,262.874,183.562,263.854z"/>
		<path style="fill:#32384C;" d="M139.733,280.09c0.531,0.006,1.139,0.324,1.175,1.289c0.041,1.104-1.312,2.768-2.232,2.763
			c-0.843-0.005-1.428-1.01-1.415-2.431C137.27,280.801,138.197,280.1,139.733,280.09z"/>
		<path style="fill:#32384C;" d="M176.831,257.804c1.304-0.012,1.997,0.681,1.999,1.596c0.002,0.789-0.331,1.316-1.193,1.311
			c-0.8-0.004-1.772-0.975-1.599-1.756C176.148,258.457,176.654,258.047,176.831,257.804z"/>
		<path style="fill:#32384C;" d="M350.615,369.302c1.623,0.038,2.198,0.47,2.119,1.409c-0.062,0.742-0.345,1.755-1.142,1.452
			c-0.729-0.277-1.217-1.279-1.689-2.038C349.836,370.016,350.457,369.479,350.615,369.302z"/>
		<path style="fill:#32384C;" d="M299.254,362.473c-0.556,0.468-0.899,0.954-1.129,0.905c-0.354-0.074-0.786-0.472-0.883-0.818
			c-0.06-0.214,0.423-0.811,0.69-0.829C298.269,361.709,298.634,362.1,299.254,362.473z"/>
		<path style="fill:#32384C;" d="M299.822,366.067c-0.485,0.277-0.833,0.621-1.019,0.548c-0.279-0.109-0.565-0.492-0.608-0.793
			c-0.023-0.164,0.477-0.589,0.688-0.556C299.167,365.311,299.4,365.683,299.822,366.067z"/>
	</g>
	<g>
		<path style="fill:#91E2D8;" d="M352.76,164.92c-3.36,4.13-7.84,7.34-12.53,9.82c-10.64,5.63-22.85,8.34-34.86,8.15
			c-3.07-0.05-3.21-4.57-0.45-4.97c4.99-4.15,8.77-9.59,12.47-14.87c3.64-5.21,7.07-10.55,10.3-16.02c1.6-2.72,3.13-5.46,4.63-8.23
			c1.28-2.36,2.62-4.7,4.37-6.75c1.68-1.96,4.4-4.33,7.14-4.16c3.52,0.23,3.92,4.02,3.54,6.73c-0.62,4.45-1.78,8.79-3.4,12.96
			c1.91-0.37,3.84-0.6,5.74-0.62c3.17-0.03,6.15,1.29,7.35,4.37C358.94,156.14,355.69,161.32,352.76,164.92z"/>
		<path style="fill:#91E2D8;" d="M190.17,176.24c0.41,0.95,0.41,2.01-0.19,2.8c-0.35,1.51-1.93,2.73-3.58,1.63
			c-6.19-4.13-12.08-8.71-17.57-13.72c-4.82-4.39-9.33-9.11-13.5-14.12c-2.13-2.56-4.18-5.19-6.14-7.88
			c-1.98-2.73-3.89-5.49-5.19-8.62c-1.24-2.99-2.1-6.92-0.66-9.99c1.51-3.22,5.19-3.74,8.25-2.62c3.06,1.13,5.91,3.09,8.57,4.93
			c0.97,0.68,1.92,1.39,2.86,2.11c-0.43-2.47-0.85-4.94-1.22-7.41c-0.68-4.48-1.03-9.1,0.29-13.51c1.02-3.4,3.12-7.15,6.45-8.73
			c1.82-0.87,3.91-1.06,5.72-0.06c1.64,0.9,2.6,2.53,3.26,4.21c1.47,3.72,2.05,7.86,2.47,11.81c0.42,3.99,0.51,8.01,0.61,12.02
			c0.19,8.14,0.75,16.18,2.38,24.18C184.59,161.14,186.98,168.87,190.17,176.24z"/>
		<path style="fill:#91E2D8;" d="M308.768,124.024c-3.19,14.7-11.17,28.75-23.91,37.14c-14.65,9.65-34.18,10.41-50.42,4.61
			c-16.01-5.72-29.34-17.61-36.17-33.25c-0.7-1.6-1.32-3.23-1.89-4.88c-4.55-10.78-5.9-22.93-3.61-34.4
			c3.12-15.67,13.04-29.6,26.18-38.51c13.57-9.21,30.71-12.36,46.72-8.84c8.09,1.78,15.71,5.35,22.2,10.5
			c6.6,5.25,11.8,12.24,15.42,19.81C310.348,90.964,312.228,108.064,308.768,124.024z"/>
		<path style="fill:#32384C;" d="M320.424,106.74c-0.001,37.749-30.104,67.741-67.982,67.731
			c-37.634-0.011-67.597-30.224-67.565-68.145c0.031-37.297,30.202-67.175,67.06-67.456
			C290.844,38.572,320.67,69.879,320.424,106.74z M309.603,106.791c-0.256-3.023-0.46-6.052-0.779-9.068
			c-0.602-5.695-2.456-11.059-4.636-16.299c-1.286-3.093-2.813-6.095-4.372-9.064c-4.071-7.752-9.785-14.057-16.892-19.17
			c-5.324-3.829-10.992-6.992-17.07-9.42c-4.517-1.805-9.209-3.104-14.078-3.135c-4.63-0.029-9.238,0.566-13.783,1.602
			c-31.734,7.232-53.794,36.832-51.244,69.22c1.499,19.046,9.702,34.855,24.662,46.802c13.773,10.999,29.636,15.745,47.26,14.279
			c1.929-0.16,3.919-0.444,5.717-1.112c2.567-0.953,5.053-2.189,7.447-3.53c3.023-1.694,6.138-3.341,8.826-5.492
			c7.068-5.656,13.043-12.373,17.958-19.99C305.607,131.58,309.519,119.794,309.603,106.791z M302.35,139.911
			c-0.754,1.168-1.466,2.273-2.18,3.375c-0.71,1.095-1.422,2.189-2.195,3.378c1.044,0.635,2.037,1.149,2.913,1.816
			c0.353,0.269,0.731,0.985,0.605,1.304c-0.292,0.74-0.97,0.48-1.519,0.161c-1.033-0.6-2.056-1.216-3.258-1.929
			c-0.984,1.416-1.95,2.805-2.915,4.194c1,1.069,1.997,2.14,3.004,3.203c0.068,0.072,0.21,0.075,0.371,0.128
			c4.183-3.792,7.778-8.071,10.825-12.808C306.08,141.772,304.266,140.867,302.35,139.911z M306.815,130.423
			c2.285,0.615,4.489,1.208,6.908,1.859c1.165-3.602,2.3-7.11,3.527-10.902c-2.636-0.376-4.938-0.703-7.207-1.027
			C308.967,123.71,307.934,126.933,306.815,130.423z M318.931,108.726c-2.566,0-4.827-0.026-7.085,0.038
			c-0.247,0.007-0.657,0.514-0.692,0.823c-0.3,2.692-0.515,5.393-0.796,8.087c-0.069,0.657,0.147,0.979,0.78,1.064
			c2.079,0.28,4.157,0.563,6.466,0.877C318.036,116.078,318.461,112.583,318.931,108.726z M310.715,97.653
			c0.188,3.029,0.351,5.851,0.561,8.671c0.017,0.225,0.35,0.607,0.542,0.611c2.297,0.043,4.596,0.028,7.128,0.028
			c-0.276-3.437-0.546-6.796-0.829-10.314C315.502,97.003,313.142,97.323,310.715,97.653z M306.213,132.096
			c-0.812,1.662-1.594,3.399-2.503,5.066c-0.496,0.91-0.248,1.337,0.593,1.75c1.525,0.748,3.015,1.566,4.678,2.437
			c1.255-2.36,2.552-4.8,3.952-7.434C310.554,133.272,308.422,132.694,306.213,132.096z M303.936,76.13
			c0.844,2.051,1.588,3.89,2.371,5.711c0.084,0.195,0.427,0.435,0.61,0.406c2.176-0.351,4.344-0.748,6.702-1.167
			c-1.003-2.035-1.902-3.895-2.849-5.73c-0.108-0.209-0.513-0.427-0.736-0.388C308.044,75.31,306.062,75.714,303.936,76.13z
			 M304.216,65.066c-2.388-2.462-4.562-4.714-6.761-6.941c-0.15-0.152-0.538-0.228-0.736-0.147c-1.228,0.507-2.433,1.068-3.596,1.59
			c1.727,2.257,3.347,4.422,5.04,6.528c0.218,0.271,0.855,0.404,1.231,0.316C300.865,66.069,302.309,65.611,304.216,65.066z
			 M299.607,68.211c1.082,2.036,2.082,3.984,3.17,5.882c0.135,0.236,0.758,0.331,1.12,0.274c1.259-0.198,2.504-0.488,3.753-0.751
			c0.597-0.126,1.191-0.269,2.029-0.46c-1.464-2.143-2.775-4.094-4.136-6.009c-0.15-0.211-0.624-0.357-0.889-0.292
			C302.992,67.261,301.347,67.735,299.607,68.211z M314.286,82.803c-2.496,0.429-4.757,0.818-7.114,1.223
			c0.603,1.841,1.125,3.55,1.748,5.221c0.098,0.263,0.684,0.537,1.002,0.494c2.076-0.279,4.14-0.644,6.359-1.006
			C315.604,86.721,314.962,84.81,314.286,82.803z M267.991,42.422c-0.047,0.088-0.094,0.175-0.141,0.263
			c1.588,0.715,3.255,1.294,4.748,2.17c3.916,2.299,7.753,4.734,11.633,7.096c0.344,0.21,0.861,0.504,1.138,0.386
			c0.848-0.363,1.618-0.907,2.585-1.48C281.578,46.88,275.009,44.114,267.991,42.422z M309.543,91.583
			c0.304,1.52,0.58,2.904,0.863,4.319c2.478-0.338,4.826-0.658,7.291-0.994c-0.257-1.182-0.53-2.302-0.737-3.434
			c-0.118-0.644-0.429-0.884-1.066-0.791C313.848,90.981,311.8,91.264,309.543,91.583z M286.692,159.98
			c-4.285,3.142-8.503,6.236-12.473,9.147c4.974-1.676,9.957-4.118,14.718-7.232C288.067,161.153,287.289,160.489,286.692,159.98z
			 M290.518,160.901c1.75-1.352,3.418-2.64,4.941-3.817c-1.144-1.132-2.202-2.18-2.902-2.873c-1.488,1.3-3.104,2.712-4.851,4.238
			C288.669,159.289,289.527,160.037,290.518,160.901z M286.743,53.684c1.557,1.449,3.027,2.83,4.519,4.186
			c0.15,0.136,0.472,0.238,0.643,0.172c1.192-0.459,2.366-0.966,3.841-1.581c-2.073-1.541-3.844-2.88-5.651-4.17
			c-0.227-0.162-0.707-0.189-0.957-0.06C288.337,52.644,287.589,53.16,286.743,53.684z"/>
		<path style="fill:#32384C;" d="M153.18,79.852c0.094-0.536,0.154-1.08,0.287-1.606c1.355-5.326,3.676-10.146,7.676-13.999
			c0.921-0.887,2.122-1.591,3.32-2.056c2.07-0.804,3.747,0.192,4.285,2.339c0.563,2.246,0.127,4.46-0.391,6.635
			c-1.174,4.934-3.404,9.455-5.615,13.981c-2.507,5.133-4.982,10.282-7.487,15.416c-0.384,0.787-0.781,1.585-1.3,2.282
			c-0.75,1.008-1.625,1.056-2.388,0.093c-3.669-4.633-7.587-9.121-9.992-14.594c-1.747-3.976-3.396-8.015-4.736-12.14
			c-0.606-1.866-0.563-4.025-0.434-6.027c0.138-2.146,2.113-3.332,4.093-2.46c1.609,0.709,3.216,1.69,4.45,2.923
			c1.884,1.881,3.437,4.092,5.147,6.149c0.904,1.087,1.842,2.146,2.765,3.218C152.967,79.955,153.074,79.903,153.18,79.852z
			 M144.811,82.883c-0.599-1.835-1.158-3.65-1.806-5.432c-0.099-0.274-0.726-0.632-0.898-0.543c-0.316,0.163-0.716,0.678-0.66,0.962
			c0.373,1.863,0.81,3.718,1.352,5.539c0.098,0.33,0.781,0.675,1.181,0.659C144.237,84.059,144.468,83.402,144.811,82.883z
			 M148.466,90.312c-0.556-1.492-0.996-2.857-1.59-4.152c-0.168-0.366-0.788-0.525-1.2-0.778c-0.248,0.452-0.775,0.962-0.694,1.344
			c0.3,1.425,0.737,2.833,1.273,4.188c0.118,0.299,0.906,0.564,1.285,0.464C147.91,91.28,148.154,90.697,148.466,90.312z"/>
		<path style="fill:#32384C;" d="M334.22,95.22c0.782-2.794,1.465-5.578,2.352-8.294c0.734-2.247,2.162-4.107,4.024-5.562
			c0.804-0.628,1.736-1.178,2.698-1.499c2.911-0.97,5.269,0.314,6.161,3.249c0.806,2.654,0.441,5.296-0.109,7.938
			c-1.237,5.947-3.538,11.514-5.996,17.033c-1.641,3.684-3.172,7.416-4.746,11.13c-0.608,1.434-2.911,1.774-3.895,0.563
			c-0.125-0.154-0.239-0.323-0.332-0.498c-2.529-4.758-5.143-9.474-7.55-14.293c-1.792-3.588-2.449-7.497-2.503-11.5
			c-0.004-0.319,0.001-0.641,0.037-0.958c0.33-2.895,2.415-3.909,4.715-2.124c1.724,1.338,3.21,2.984,4.801,4.492
			C334.044,95.054,334.208,95.208,334.22,95.22z M330.832,102.785c-0.383-1.977-0.689-3.7-1.076-5.404
			c-0.058-0.257-0.506-0.607-0.75-0.589c-0.245,0.018-0.681,0.47-0.654,0.683c0.234,1.837,0.519,3.671,0.892,5.484
			c0.048,0.231,0.704,0.492,1.049,0.456C330.544,103.389,330.745,102.896,330.832,102.785z M335.242,109.374
			c-0.641-1.128-1.239-2.354-2.013-3.456c-0.284-0.405-1.29-0.607-1.174,0.277c0.183,1.387,0.725,2.741,1.249,4.056
			c0.112,0.282,0.824,0.505,1.203,0.437C334.754,110.643,334.899,110.025,335.242,109.374z"/>
		<path style="fill:#32384C;" d="M162.793,127.29c-0.786-3.016-1.641-5.838-2.244-8.714c-1.162-5.539-0.512-10.995,1.334-16.282
			c0.51-1.46,1.464-2.855,2.504-4.021c1.977-2.219,4.805-2.411,7.257-0.719c1.784,1.231,3.092,2.873,4.056,4.806
			c2.329,4.669,3.625,9.659,4.283,14.788c0.721,5.623,1.082,11.292,1.762,16.921c0.589,4.874,1.403,9.722,2.123,14.58
			c0.784,5.293,1.324,10.639,2.444,15.86c0.798,3.719,2.288,7.304,3.66,10.876c0.486,1.266,1.647,2.259,2.285,3.487
			c0.366,0.705,0.56,1.717,0.331,2.43c-0.131,0.406-1.28,0.702-1.951,0.669c-1.143-0.056-2.282-0.368-3.403-0.648
			c-7.909-1.973-14.784-5.986-21.168-10.903c-10.108-7.784-18.073-17.37-23.76-28.799c-1.712-3.44-3.124-7.047-3.563-10.891
			c-0.232-2.033-0.206-4.174,0.167-6.181c0.705-3.786,3.524-5.548,7.344-4.893c3.685,0.632,6.927,2.413,10.195,4.087
			C158.575,124.832,160.625,126.071,162.793,127.29z M190.807,180.352c0.051-0.086,0.103-0.173,0.154-0.259
			c-0.359-0.506-0.726-1.007-1.075-1.519c-0.472-0.691-1.061-1.337-1.372-2.096c-1.621-3.952-3.434-7.855-4.113-12.115
			c-0.867-5.442-1.614-10.904-2.414-16.357c-0.643-4.386-1.384-8.759-1.906-13.159c-0.659-5.552-1.035-11.139-1.726-16.686
			c-0.644-5.172-1.769-10.27-4.255-14.906c-0.842-1.57-2.118-3.006-3.477-4.176c-1.672-1.44-3.605-1.236-4.993,0.468
			c-1.008,1.238-1.894,2.708-2.374,4.221c-2.648,8.343-1.6,16.403,2.136,24.215c0.22,0.46,0.307,1.322,0.044,1.585
			c-0.297,0.297-1.139,0.318-1.606,0.126c-1.288-0.532-2.5-1.245-3.748-1.874c-3.744-1.886-7.441-3.878-11.264-5.588
			c-1.398-0.625-3.093-0.734-4.662-0.785c-1.573-0.051-2.852,0.844-3.191,2.413c-0.39,1.81-0.746,3.71-0.611,5.534
			c0.317,4.282,1.893,8.26,3.824,12.041c5.578,10.922,13.261,20.133,22.992,27.603c6.005,4.609,12.447,8.42,19.837,10.401
			C188.264,179.776,189.539,180.049,190.807,180.352z"/>
		<path style="fill:#32384C;" d="M346.813,146.361c1.869,0,3.562-0.213,5.182,0.039c5.456,0.849,8.691,5.436,8.397,11.23
			c-0.223,4.402-2.689,7.657-5.824,10.385c-6.779,5.899-14.653,9.547-23.489,11.292c-8.258,1.631-16.605,2.361-24.976,2.903
			c-1.232,0.08-2.559-0.424-3.748-0.895c-0.838-0.332-0.751-1.143,0.011-1.58c12.558-7.188,19.668-18.729,25.298-31.489
			c1.758-3.984,3.633-7.921,5.609-11.8c1.309-2.57,3-4.919,5.274-6.771c0.494-0.403,1.01-0.795,1.563-1.107
			c5.678-3.194,9.251,1.1,9.294,5.147c0.025,2.352-0.575,4.73-1.053,7.063C347.973,142.636,347.352,144.443,346.813,146.361z
			 M305.233,180.274c0.026,0.091,0.051,0.182,0.077,0.273c1.005-0.089,2.009-0.198,3.016-0.263
			c6.981-0.447,13.916-1.217,20.823-2.39c7.596-1.29,14.508-4.122,20.834-8.436c2.892-1.972,5.466-4.312,7.264-7.386
			c2.019-3.452,1.837-8.039-0.432-10.987c-2.133-2.771-5.854-3.78-9.907-2.686c-1.385,0.374-2.2-0.349-1.851-1.818
			c0.653-2.759,1.454-5.483,2.146-8.233c0.509-2.026,0.879-4.073,0.164-6.14c-0.911-2.634-3.077-3.619-5.618-2.473
			c-0.79,0.356-1.544,0.86-2.203,1.426c-2.761,2.37-4.534,5.462-6.089,8.678c-3.15,6.512-6.064,13.145-9.408,19.554
			c-4.034,7.732-9.798,14.087-16.709,19.396C306.658,179.312,305.935,179.78,305.233,180.274z"/>
		<path style="fill:#32384C;" d="M357.445,111.213c1.653-0.73,3.151-1.489,4.721-2.046c0.879-0.312,1.879-0.417,2.819-0.392
			c1.932,0.05,3.076,1.684,2.225,3.398c-0.731,1.472-1.744,2.876-2.894,4.054c-2.299,2.356-4.981,4.252-7.937,5.74
			c-2.212,1.114-4.375,2.333-6.629,3.352c-1.504,0.679-2.52-0.072-2.361-1.69c0.42-4.286,0.869-8.571,1.439-12.839
			c0.226-1.692,0.743-3.354,1.233-4.998c0.337-1.13,0.902-2.227,2.227-2.429c1.309-0.199,2.329,0.598,2.867,1.611
			c0.813,1.532,1.334,3.222,1.95,4.856C357.271,110.271,357.334,110.753,357.445,111.213z M350.894,109.093
			c-0.33,1.92-0.671,3.758-0.952,5.605c-0.111,0.732,0.085,1.393,0.979,1.489c0.857,0.092,1.208-0.423,1.328-1.2
			c0.19-1.223,0.435-2.437,0.607-3.662C353.076,109.758,352.647,109.243,350.894,109.093z"/>
		<path style="fill:#32384C;" d="M141.573,105.167c-0.22,0.506-0.297,0.881-0.511,1.145c-1.511,1.858-2.246,4.026-2.644,6.345
			c-0.087,0.509-0.239,1.015-0.43,1.496c-0.407,1.027-1.164,1.136-1.921,0.326c-1.364-1.46-2.684-2.967-4.132-4.338
			c-0.702-0.664-1.663-1.051-2.488-1.592c-0.362-0.237-0.947-0.536-0.954-0.82c-0.012-0.437,0.28-1.145,0.627-1.285
			c1.713-0.694,2.272-2.172,2.739-3.717c0.531-1.757,0.944-3.549,1.496-5.299c0.175-0.555,0.633-1.022,0.961-1.529
			c0.476,0.356,1.068,0.627,1.399,1.086c0.509,0.705,0.894,1.517,1.232,2.325c0.699,1.67,1.729,3.013,3.248,4.05
			C140.798,103.77,141.135,104.57,141.573,105.167z M134.92,99.04c-1.092,3.077-1.505,6.049-3.48,8.198
			c1.75,1.691,3.417,3.302,4.98,4.812c1.002-2.373,1.964-4.651,3.007-7.123C137.31,103.826,135.938,101.731,134.92,99.04z"/>
		<path style="fill:#32384C;" d="M360.728,127.373c0.473,0.729,0.857,1.127,1.015,1.6c0.697,2.076,1.649,3.995,3.29,5.485
			c0.288,0.262,0.801,0.272,1.207,0.41c0.344,0.116,0.865,0.161,0.976,0.395c0.127,0.268-0.01,0.782-0.21,1.063
			c-0.624,0.875-1.392,1.65-1.993,2.538c-0.758,1.121-1.354,2.351-2.126,3.461c-0.328,0.472-0.95,1.073-1.394,1.039
			c-0.446-0.035-1.091-0.727-1.208-1.233c-0.509-2.201-1.684-3.936-3.317-5.426c-0.693-0.633-0.63-1.429-0.086-2.042
			c1.501-1.692,2.424-3.627,2.877-5.832C359.847,128.405,360.265,128.049,360.728,127.373z M360.81,131.959
			c-0.685,1.092-1.392,2.195-2.063,3.32c-0.097,0.162-0.114,0.49-0.013,0.632c1.039,1.461,2.111,2.9,3.174,4.346
			c0.797-1.176,1.665-2.457,2.475-3.653C363.16,135.013,361.999,133.504,360.81,131.959z"/>
		<path style="fill:#32384C;" d="M180.033,90.297c0.348-1.435,0.591-2.649,0.937-3.833c1.776-6.067,4.341-11.825,6.936-17.569
			c0.245-0.543,0.487-1.14,0.897-1.54c0.323-0.315,0.904-0.366,1.371-0.533c0.038,0.465,0.248,1.002,0.087,1.381
			c-0.873,2.053-1.921,4.034-2.753,6.102c-1.606,3.993-3.145,8.013-4.63,12.052c-0.464,1.263-0.611,2.64-1.017,3.929
			c-0.111,0.353-0.629,0.786-0.971,0.795C180.595,91.088,180.286,90.546,180.033,90.297z"/>
		<path style="fill:#32384C;" d="M197.66,154.688c0.249-0.275,0.492-0.754,0.847-0.862c0.242-0.073,0.818,0.302,0.943,0.603
			c2.066,4.956,5.705,8.404,10.329,10.932c0.42,0.229,0.897,0.419,1.21,0.756c0.217,0.234,0.368,0.782,0.238,1.017
			c-0.136,0.244-0.64,0.307-0.996,0.393c-0.127,0.031-0.3-0.089-0.442-0.16c-5.17-2.58-9.183-6.335-11.727-11.575
			C197.924,155.51,197.844,155.199,197.66,154.688z"/>
		<path style="fill:#32384C;" d="M369.16,121.629c1.556,0.005,3.107,1.859,3.08,3.682c-0.024,1.593-1.52,3.199-2.989,3.208
			c-1.403,0.009-2.679-1.698-2.671-3.573C366.588,123.072,367.714,121.625,369.16,121.629z"/>
		<path style="fill:#32384C;" d="M124.836,94.823c0.001-1.359,1.188-2.694,2.386-2.684c1.548,0.013,2.871,1.238,2.866,2.653
			c-0.006,1.442-1.338,2.93-2.628,2.936C126.119,97.734,124.835,96.313,124.836,94.823z"/>
		<path style="fill:#32384C;" d="M192.67,63.908c-0.251-0.613-0.583-1.039-0.539-1.422c0.049-0.431,0.387-0.866,0.688-1.225
			c2.074-2.48,4.146-4.964,6.291-7.383c0.294-0.332,0.99-0.308,1.5-0.449c-0.046,0.501,0.093,1.152-0.169,1.48
			c-1.844,2.307-3.772,4.546-5.671,6.809c-0.359,0.428-0.687,0.882-1.06,1.296C193.482,63.266,193.195,63.462,192.67,63.908z"/>
		<path style="fill:#32384C;" d="M316.47,143.548c-0.157,0.421-0.257,0.722-0.38,1.013c-1.291,3.06-3.218,5.697-5.443,8.132
			c-0.264,0.289-0.584,0.595-0.938,0.711c-0.273,0.09-0.723-0.013-0.938-0.205c-0.164-0.146-0.114-0.569-0.097-0.865
			c0.008-0.136,0.149-0.279,0.258-0.393c2.361-2.482,4.311-5.238,5.727-8.374c0.161-0.355,0.751-0.581,1.188-0.709
			C315.978,142.82,316.266,143.312,316.47,143.548z"/>
		<path style="fill:#32384C;" d="M192.007,57.61c-0.344,0.569-0.495,0.893-0.711,1.165c-2.037,2.563-4.071,5.129-6.151,7.658
			c-0.222,0.27-0.726,0.309-1.1,0.456c-0.137-0.411-0.326-0.815-0.388-1.237c-0.028-0.192,0.163-0.446,0.31-0.628
			c2.008-2.486,4.021-4.968,6.047-7.439c0.17-0.207,0.456-0.489,0.656-0.466C191.084,57.167,191.474,57.4,192.007,57.61z"/>
		<path style="fill:#32384C;" d="M201.004,164.034c0.088,0.048,0.316,0.1,0.421,0.242c1.775,2.394,4.606,3.315,6.906,4.975
			c0.576,0.416,1.654,0.651,1.112,1.626c-0.536,0.965-1.361,0.284-1.964-0.089c-2.205-1.362-4.388-2.761-6.548-4.192
			c-0.408-0.27-0.785-0.703-0.983-1.147C199.636,164.75,200.209,163.981,201.004,164.034z"/>
		<path style="fill:#32384C;" d="M317.664,135.7c0.278-0.711,0.513-1.299,0.739-1.89c0.498-1.299,1.001-2.596,1.485-3.901
			c0.22-0.593,0.512-1.253,1.223-0.919c0.31,0.146,0.576,0.981,0.447,1.364c-0.646,1.92-1.398,3.807-2.196,5.67
			c-0.119,0.279-0.695,0.525-1.031,0.493C318.085,136.494,317.885,135.989,317.664,135.7z"/>
		<path style="fill:#32384C;" d="M322.712,140.465c-0.174,0.603-0.231,1.009-0.404,1.359c-0.705,1.431-1.398,2.872-2.207,4.244
			c-0.194,0.329-0.815,0.407-1.24,0.6c-0.099-0.452-0.405-0.987-0.262-1.34c0.747-1.839,1.588-3.641,2.455-5.427
			c0.116-0.239,0.713-0.516,0.834-0.428C322.249,139.734,322.485,140.17,322.712,140.465z"/>
		<path style="fill:#32384C;" d="M372.331,132.082c0.077-1.346,0.785-2.28,1.692-2.232c0.836,0.044,1.685,1.131,1.608,2.058
			c-0.084,1.017-1.167,2.023-2.084,1.935C372.763,133.769,372.275,133.062,372.331,132.082z"/>
		<path style="fill:#32384C;" d="M133.12,123.948c-0.079,1.231-0.289,2.047-1.274,2.149c-0.929,0.097-1.325-0.566-1.443-1.41
			c-0.016-0.118-0.022-0.238-0.023-0.358c-0.004-0.538-0.213-1.262,0.053-1.559c0.249-0.278,1.116-0.303,1.508-0.08
			C132.491,123.002,132.853,123.645,133.12,123.948z"/>
		<path style="fill:#32384C;" d="M133.04,88.181c-0.038,0.659-0.282,1.298-1.201,1.339c-0.721,0.032-2.211-1.113-2.195-1.643
			c0.022-0.738,0.907-1.479,1.747-1.463C132.391,86.433,133.027,87.066,133.04,88.181z"/>
		<path style="fill:#32384C;" d="M125.548,87.02c-0.995-0.093-1.259-0.938-1.157-1.696c0.071-0.526,0.704-0.976,1.085-1.46
			c0.659,0.605,1.709,1.114,1.887,1.837C127.628,86.78,126.398,86.788,125.548,87.02z"/>
		<path style="fill:#32384C;" d="M378.227,127.203c-1.15,0.053-1.458-0.397-1.464-1.155c-0.005-0.659,0.14-1.237,0.937-1.217
			c0.933,0.023,1.163,0.811,1.19,1.497C378.902,126.666,378.372,127.025,378.227,127.203z"/>
		<path style="fill:#32384C;" d="M191.412,110.411c0.188-5.846,1.11-11.516,2.732-17.135c1.868-6.475,3.929-12.848,7.248-18.737
			c6.709-11.905,16.344-20.639,28.929-25.932c4.704-1.979,9.658-3.197,14.884-3.347c4.391-0.126,8.552,0.854,12.774,1.654
			c1.962,0.372,3.916,0.791,5.86,1.246c5.138,1.202,9.528,3.977,13.652,7.053c4.023,3.001,7.835,6.327,11.48,9.784
			c4.23,4.011,7.506,8.752,10.04,14.067c2.944,6.172,4.81,12.603,5.673,19.349c0.758,5.917,0.297,11.78-0.644,17.662
			c-1.626,10.162-5.607,19.389-10.826,28.125c-4.3,7.197-10.406,12.591-17.586,16.828c-5.047,2.979-10.417,5.068-16.233,5.9
			c-5.207,0.745-10.432,0.704-15.672,0.305c-6.679-0.508-12.933-2.396-18.873-5.441c-6.311-3.235-12.176-7.115-16.946-12.399
			c-4.288-4.751-8.391-9.713-11.186-15.524c-2.437-5.066-3.825-10.506-4.629-16.066C191.736,115.357,191.63,112.876,191.412,110.411
			z M193.241,111.098c0.113,1.367,0.162,3.536,0.491,5.662c1.038,6.7,2.483,13.31,6.143,19.15
			c3.296,5.259,7.063,10.16,11.578,14.475c6.548,6.259,14.24,10.627,22.794,13.292c7.717,2.404,15.742,2.587,23.751,1.65
			c10.209-1.195,18.671-6.086,26.166-12.817c3.932-3.531,6.82-7.881,9.379-12.505c4.077-7.369,7.099-15.07,8.598-23.389
			c1.165-6.465,1.608-12.914,0.599-19.428c-0.947-6.121-2.742-11.95-5.424-17.563c-2.382-4.983-5.616-9.271-9.374-13.24
			c-3.48-3.675-7.371-6.884-11.494-9.771c-4.117-2.883-8.311-5.727-13.372-6.806c-3.515-0.749-7.024-1.53-10.548-2.238
			c-3.378-0.679-6.821-0.803-10.209-0.353c-5.829,0.775-11.331,2.635-16.502,5.506c-10.555,5.858-18.54,14.131-24.033,24.89
			c-2.657,5.204-4.271,10.744-5.97,16.288C194.17,99.267,193.44,104.734,193.241,111.098z"/>
		<path style="fill:#32384C;" d="M144.712,131.196c0.071-0.245,0.127-0.689,0.334-1.046c0.097-0.168,0.559-0.307,0.719-0.216
			c0.274,0.155,0.591,0.48,0.629,0.768c0.526,4.03,2.359,7.611,3.828,11.316c0.162,0.408,0.4,0.816,0.427,1.236
			c0.019,0.293-0.189,0.748-0.427,0.868c-0.236,0.119-0.655-0.05-0.959-0.176c-0.154-0.064-0.27-0.297-0.337-0.479
			c-1.346-3.628-2.689-7.257-4.01-10.893C144.782,132.207,144.794,131.788,144.712,131.196z"/>
		<path style="fill:#32384C;" d="M159.96,157.008c-0.609,0.207-1.048,0.493-1.453,0.451c-0.327-0.034-0.675-0.415-0.907-0.723
			c-1.894-2.517-3.778-5.042-5.618-7.598c-0.177-0.245-0.18-0.92-0.01-1.041c0.283-0.202,0.849-0.271,1.152-0.116
			c0.393,0.202,0.668,0.661,0.953,1.04c1.699,2.264,3.386,4.536,5.074,6.808C159.358,156.109,159.546,156.403,159.96,157.008z"/>
		<path style="fill:#32384C;" d="M155.125,143.618c0.375,0.355,0.749,0.598,0.972,0.94c0.763,1.169,1.422,2.409,2.222,3.552
			c0.577,0.825,1.348,1.513,1.964,2.316c0.252,0.328,0.322,0.795,0.474,1.199c-0.422,0.106-0.996,0.438-1.238,0.276
			c-0.805-0.54-1.635-1.155-2.193-1.93c-1.068-1.485-1.976-3.088-2.898-4.672c-0.171-0.294-0.193-0.76-0.097-1.093
			C154.396,143.982,154.788,143.853,155.125,143.618z"/>
		<path style="fill:#32384C;" d="M355.712,157.775c0.012,2.624-2.772,6.775-5.107,7.633c-0.336,0.124-0.824-0.167-1.242-0.265
			c0.147-0.409,0.171-1,0.462-1.197c1.526-1.034,2.755-2.327,3.511-3.99c0.327-0.72,0.493-1.607,0.418-2.388
			c-0.065-0.686-0.138-1.241,0.595-1.424c0.798-0.199,1.136,0.392,1.31,1.06C355.719,157.432,355.704,157.679,355.712,157.775z"/>
		<path style="fill:#32384C;" d="M339.262,171.342c-0.415-0.354-0.92-0.582-0.963-0.878c-0.045-0.307,0.279-0.863,0.577-0.99
			c1.061-0.453,2.206-0.71,3.272-1.154c1.097-0.458,2.122-1.088,3.215-1.56c0.375-0.162,0.857-0.075,1.29-0.102
			c-0.05,0.462-0.024,0.952-0.178,1.376c-0.094,0.258-0.435,0.486-0.717,0.606C343.633,169.543,341.496,170.417,339.262,171.342z"/>
		<path style="fill:#32384C;" d="M259.592,87.962c-0.954-1.529-1.986-3.183-3.2-5.13c-0.118,0.717-0.223,1.118-0.245,1.522
			c-0.343,6.346-0.676,12.692-1.011,19.038c-0.013,0.24,0.027,0.497-0.046,0.716c-0.856,2.557,0.565,4.039,2.368,5.527
			c3.852,3.18,7.32,6.768,10.068,10.952c2.227,3.391,3.785,7.078,3.532,11.277c-0.164,2.713,0.028,5.534-0.663,8.113
			c-2.031,7.577-7.127,12.177-14.773,13.926c-0.887,0.203-1.811,0.253-2.688,0.486c-0.285,0.076-0.642,0.492-0.676,0.786
			c-0.122,1.067-0.198,2.151-0.146,3.222c0.051,1.029-0.343,1.528-1.347,1.522c-2.118-0.014-4.235-0.036-6.352-0.089
			c-0.815-0.021-1.228-0.556-1.275-1.324c-0.065-1.036-0.091-2.076-0.082-3.114c0.006-0.649-0.115-0.973-0.891-1.077
			c-5.082-0.679-9.51-2.905-13.26-6.292c-1.734-1.566-3.118-3.596-4.38-5.593c-1.842-2.915-2.964-6.155-3.287-9.616
			c-0.126-1.346-0.122-2.71-0.079-4.062c0.009-0.268,0.436-0.695,0.729-0.753c2.896-0.577,5.802-1.097,8.709-1.62
			c0.826-0.149,1.656-0.287,2.49-0.369c1.405-0.139,1.687,0.156,1.754,1.558c0.098,2.075-0.001,4.197,0.41,6.212
			c0.834,4.086,2.847,7.36,7.193,8.583c0.104,0.029,0.232-0.029,0.517-0.07c0-0.41-0.002-0.833,0-1.255
			c0.054-8.839,0.091-17.678,0.184-26.517c0.011-1.03-0.331-1.639-1.124-2.298c-3.195-2.656-6.505-5.221-9.4-8.183
			c-5.908-6.042-7.385-13.48-5.671-21.545c0.607-2.858,1.731-5.663,2.997-8.312c2.517-5.269,6.921-8.566,12.232-10.709
			c0.713-0.288,0.899-0.605,0.854-1.297c-0.073-1.117-0.109-2.239-0.089-3.358c0.033-1.835,0.58-2.501,2.366-2.626
			c3.823-0.266,7.65-0.464,11.478-0.641c1.414-0.066,2.014,0.521,1.953,1.935c-0.066,1.553-0.246,3.104-0.434,4.649
			c-0.107,0.877,0.044,1.454,0.935,1.918c4.33,2.255,7.988,5.303,10.587,9.49c1.136,1.831,2.225,3.7,3.184,5.627
			c0.37,0.742,0.385,1.69,0.428,2.551c0.016,0.312-0.284,0.819-0.567,0.938c-4.306,1.821-8.633,3.592-12.956,5.372
			C259.887,88.045,259.841,88.018,259.592,87.962z M251.663,71.571c0.526,0.145,0.904,0.237,1.275,0.352
			c3.905,1.218,6.923,3.74,9.696,6.617c0.721,0.748,1.387,1.553,2.146,2.259c0.235,0.219,0.695,0.196,1.051,0.283
			c0.061-0.372,0.235-0.77,0.155-1.109c-0.095-0.408-0.36-0.802-0.629-1.14c-3.329-4.189-7.31-7.483-12.549-9.004
			c-0.681-0.198-0.963-0.478-0.939-1.234c0.059-1.837-0.033-3.68,0.041-5.517c0.017-0.411,0.464-0.805,0.557-0.954
			c-1.276,0.38-0.359-1.816-1.697-2.048c-1.033,2.926-0.232,6.046-0.725,8.988c-0.237,0.036-0.354,0.07-0.471,0.07
			c-7.769-0.026-14.728,5.078-16.863,12.516c-2.248,7.83-0.1,14.753,4.667,21.045c2.57,3.392,5.95,5.89,9.383,8.327
			c0.383,0.272,0.741,0.868,0.753,1.324c0.064,2.434,0.084,4.873-0.007,7.305c-0.345,9.308-0.736,18.613-1.113,27.92
			c-0.019,0.464-0.068,0.926-0.115,1.558c-1.384-0.096-2.696,0.006-3.904-0.302c-7.341-1.872-12.179-6.391-14.224-13.767
			c-0.117-0.422-0.178-0.891-0.412-1.241c-0.19-0.285-0.686-0.652-0.891-0.574c-0.321,0.122-0.59,0.558-0.729,0.919
			c-0.102,0.265,0.016,0.629,0.08,0.939c2.057,10.057,12.039,16.395,19.154,15.916c0.805-0.054,1.041,0.271,1.024,1.037
			c-0.033,1.435-0.058,2.879,0.068,4.305c0.041,0.464,0.547,1.244,0.865,1.256c0.851,0.034,0.842-0.767,0.837-1.419
			c-0.01-1.398-0.002-2.797-0.053-4.194c-0.026-0.737,0.243-0.991,0.985-1.164c1.932-0.451,3.981-0.764,5.708-1.662
			c4.875-2.534,8.288-6.346,9.106-12.011c0.638-4.418-0.331-8.539-2.265-12.535c-2.694-5.568-6.489-10.133-11.597-13.63
			c-0.399-0.273-0.712-0.972-0.716-1.475c-0.017-2.708-0.029-5.424,0.152-8.125c0.561-8.411,1.208-16.816,1.826-25.223
			C251.407,74.676,251.535,73.178,251.663,71.571z"/>
		<path style="fill:#32384C;" d="M249.963,71.229c-1.105,12.604-2.609,25.118-2.349,37.742c-0.131,0.076-0.262,0.152-0.393,0.228
			c-2.039-1.697-4.199-3.269-6.091-5.116c-4.223-4.122-6.795-9.096-7.375-15.06c-0.8-8.222,5.067-16.453,12.823-17.77
			C247.613,71.078,248.702,71.229,249.963,71.229z M243.145,78.48c-2.784,1.236-4.737,5.065-3.92,7.993
			c0.773,2.77,1.865,5.452,2.861,8.157c0.187,0.508,0.587,0.938,1.059,1.665C243.145,90.161,243.145,84.38,243.145,78.48z
			 M244.924,98.143c0.028,0,0.056,0,0.084,0c0-1.71,0-3.42,0-5.13c-0.028,0-0.056,0-0.084,0
			C244.924,94.723,244.924,96.433,244.924,98.143z"/>
		<path style="fill:#32384C;" d="M249.257,112.817c3.366,2.489,6.31,4.929,8.257,8.341c1.879,3.292,3.782,6.536,4.48,10.388
			c1.667,9.2-4.848,16.073-12.442,17.34c-1.363,0.227-1.471,0.143-1.416-1.225c0.325-7.986,0.691-15.971,0.988-23.958
			c0.117-3.147,0.093-6.299,0.131-9.449C249.261,113.869,249.257,113.483,249.257,112.817z M253.379,141.573
			c4.494-2.506,4.974-11.497,1.034-17.065C254.066,130.231,253.725,135.868,253.379,141.573z"/>
	</g>
	<g>
		<g>
			<path style="fill:#32384C;" d="M434.704,362.123c-117.902-40.277-240.226-40.28-358.136,0
				c1.213-14.844,2.708-29.528,4.507-44.313c-10.421-7.263-15.78-10.781-26.784-17.564c131.428-41.719,267.317-39.173,396.925,8.04
				c-11.984,5.667-17.824,8.659-29.183,14.923C426.752,335.964,431.011,349.033,434.704,362.123z"/>
		</g>
		<path id="SVGID_x5F_1_x5F_" style="fill:none;" d="M97.534,342.318c0,0,33.267-25.857,155.22-25.857
			s165.244,25.857,165.244,25.857"/>
		<text>		<textPath  xlink:href="#SVGID_x5F_1_x5F_" startOffset="0.464%">
<tspan  style="fill:#FFFFFF; font-family:'TrashHand'; font-size:48.2265px;">Day of Charity </tspan>		</textPath>
</text>
	</g>
	<g>
		<g>
			<path style="fill:#91E2D8;" d="M171.65,434.68c0.42,0.93,0.38,1.98-0.45,2.8c-0.71,0.72-2.07,0.96-2.99,0.44
				c-7.35,2-14.3,5.17-21.37,7.99c-6.44,2.57-12.98,4.69-19.89,5.54c-6.19,0.76-12.48,0.47-18.61-0.66
				c-12.36-2.28-24.05-8.34-32.88-17.3c-1.42-1.45-0.47-4.47,1.77-4.27c8.32,0.74,16.67-0.17,24.6-2.79
				c7.03-2.32,13.42-6.28,20.55-8.29c5.77-1.62,11.9-2.01,17.83-1.24c11.5,1.48,22.51,6.99,30.03,15.89
				C170.99,433.15,171.48,433.88,171.65,434.68z"/>
			<g>
				<path style="fill:#32384C;" d="M108.174,399.913c-4.348-2.128-8.497-4.159-12.649-6.191c-3.085,4.031-7.041,7.11-11.333,9.79
					c-2.28,1.423-4.76,2.268-7.483,2.218c-2.998-0.055-4.239-2.095-2.712-4.673c2.776-4.688,6.933-7.549,12.24-8.7
					c1.733-0.376,3.506-0.57,5.451-0.878c-0.919-0.605-1.743-1.078-2.488-1.653c-2.307-1.781-4.571-3.617-6.879-5.396
					c-0.592-0.456-1.304-0.753-1.924-1.177c-3.748-2.57-7.193-5.468-9.851-9.206c-1.224-1.722-2.075-3.605-2.374-5.703
					c-0.182-1.272-0.097-2.57,1.1-3.332c1.248-0.795,2.554-0.41,3.533,0.515c1.381,1.304,2.756,2.669,3.851,4.209
					c1.925,2.709,3.406,5.668,4.449,8.858c1.207,3.692,3.89,6.235,7.009,8.369c0.916,0.627,1.843,1.236,3.017,2.022
					c-0.693-1.833-1.282-3.374-1.859-4.92c-1.098-2.94-2-5.95-1.708-9.114c0.14-1.512,0.603-3.056,1.235-4.443
					c0.654-1.435,2.063-1.73,3.316-0.763c0.851,0.657,1.723,1.554,2.09,2.529c1.996,5.3,3.014,10.756,2.04,16.444
					c-0.148,0.862-0.249,1.738-0.284,2.61c-0.01,0.235,0.245,0.595,0.472,0.71c3.532,1.78,7.078,3.53,10.625,5.282
					c0.056,0.028,0.149-0.019,0.255-0.035c-1.242-1.7-2.524-3.353-3.695-5.081c-2.281-3.366-4.07-6.965-4.91-10.982
					c-0.025-0.117-0.053-0.234-0.07-0.353c-0.259-1.831,0.4-3.547,1.575-4.104c1.08-0.512,2.745-0.077,3.865,1.466
					c1.563,2.154,3.182,4.371,4.189,6.804c1.843,4.453,3.782,8.912,4.575,13.734c0.055,0.335,0.317,0.808,0.595,0.909
					c3.92,1.428,7.86,2.803,11.796,4.191c0.073-0.147,0.146-0.294,0.219-0.441c-0.3-0.278-0.598-0.558-0.899-0.834
					c-4.401-4.03-7.759-8.725-9.031-14.658c-0.287-1.338-0.284-2.791-0.126-4.158c0.27-2.336,2.264-3.113,4.086-1.63
					c2.943,2.394,4.984,5.533,6.644,8.865c2.102,4.219,4.022,8.542,4.935,13.214c0.143,0.732,0.473,0.95,1.143,1.102
					c4.693,1.064,9.45,1.588,14.247,1.818c0.239,0.011,0.531-0.024,0.703,0.097c0.295,0.209,0.769,0.609,0.712,0.778
					c-0.111,0.333-0.512,0.764-0.829,0.796c-0.868,0.088-1.755,0.004-2.633-0.036c-7.518-0.343-14.78-2.073-21.981-4.104
					c-2.498-0.705-4.963-1.531-7.422-2.362c-0.678-0.229-1.022-0.21-1.433,0.477c-0.651,1.09-1.374,2.187-2.273,3.07
					c-4.413,4.331-9.24,8.136-14.713,11.059c-1.885,1.007-3.895,1.652-6.081,1.596c-3.111-0.08-4.451-2.072-3.168-4.916
					c1.321-2.928,3.69-5.003,6.138-6.947c3.982-3.162,8.609-5.014,13.451-6.39C107.264,400.165,107.608,400.071,108.174,399.913z"/>
				<path style="fill:#32384C;" d="M76.342,429.551c5.617,1.203,11.03-0.511,16.324-2.45c4.493-1.646,8.802-3.785,13.221-5.64
					c6.426-2.698,12.967-5.062,19.925-5.965c7.237-0.94,14.366-0.246,21.349,1.813c9.031,2.663,16.64,7.682,23.243,14.302
					c1.715,1.719,3.065,3.706,3.688,6.088c0.116,0.444-0.142,0.986-0.227,1.483c-0.425-0.182-0.846-0.375-1.276-0.545
					c-0.828-0.327-1.644-0.858-2.495-0.923c-3.196-0.246-6.328,0.215-9.238,1.594c-4.293,2.033-8.458,4.354-12.813,6.239
					c-7.106,3.076-14.244,6.078-22.057,7.057c-13.703,1.716-26.374-1.15-38.153-8.233c-4.626-2.782-8.443-6.443-11.578-10.822
					c-0.487-0.68-0.935-1.401-1.297-2.153C74.394,430.217,74.881,429.513,76.342,429.551z M127.965,450.323
					c0.18,0.042,0.295,0.098,0.403,0.088c0.237-0.022,0.472-0.074,0.707-0.12c6.04-1.191,11.702-3.468,17.252-6.054
					c0.368-0.171,0.727-0.509,0.931-0.861c2.113-3.663,4.196-7.344,6.279-11.024c0.183-0.323,0.308-0.68,0.51-1.133
					c-4.362-0.584-8.533-0.737-12.704-0.022c-0.282,0.048-0.593,0.253-0.779,0.477c-0.814,0.985-1.654,1.959-2.362,3.018
					c-3.331,4.977-6.622,9.98-9.922,14.977C128.153,449.86,128.079,450.083,127.965,450.323z M122.644,433.413
					c-0.224-0.335-0.324-0.503-0.441-0.658c-2.804-3.734-5.63-7.453-8.399-11.212c-0.54-0.732-1.012-0.952-1.876-0.575
					c-5.234,2.277-10.486,4.513-15.729,6.769c-0.089,0.038-0.143,0.158-0.319,0.362c3.08,2.644,6.116,5.29,9.215,7.862
					c0.422,0.35,1.186,0.526,1.738,0.44c3.705-0.577,7.4-1.221,11.088-1.899C119.469,434.217,120.994,433.798,122.644,433.413z
					 M114.736,419.788c3.128,4.568,6.051,8.847,9.641,12.611c0.273,0.287,1.024,0.285,1.502,0.183
					c3.666-0.788,7.319-1.639,10.979-2.458c0.871-0.195,1.753-0.338,2.638-0.507c-0.063-0.234-0.062-0.326-0.107-0.384
					c-3.042-3.952-6.076-7.91-9.155-11.834c-0.213-0.272-0.762-0.43-1.136-0.401c-1.589,0.12-3.196,0.209-4.75,0.534
					C121.201,418.189,118.082,418.993,114.736,419.788z M113.873,451.139c3.342,0,6.366-0.006,9.389,0.003
					c1.493,0.005,2.71-0.39,3.249-1.975c0.124-0.366,0.428-0.671,0.649-1.003c3.586-5.382,7.172-10.765,10.752-16.151
					c0.024-0.036-0.041-0.131-0.108-0.327c-3.448,0.784-6.89,1.65-10.37,2.324c-1.767,0.342-3.075,1.037-3.907,2.695
					c-0.459,0.915-1.24,1.664-1.814,2.528C119.135,443.121,116.58,447.023,113.873,451.139z M97.161,447.108
					c0.602,0.25,0.992,0.461,1.408,0.577c3.377,0.94,6.738,1.955,10.147,2.763c3.123,0.74,3.147,0.639,4.879-1.967
					c2.716-4.086,5.432-8.172,8.143-12.261c0.124-0.187,0.197-0.407,0.339-0.704c-0.338,0.021-0.574,0.012-0.8,0.053
					c-4.904,0.874-9.809,1.746-14.709,2.646c-0.407,0.075-0.855,0.262-1.154,0.538c-2.018,1.865-4.026,3.743-5.983,5.671
					C98.645,445.197,97.996,446.11,97.161,447.108z M153.287,429.047c-0.923-2.547-1.914-5.114-2.766-7.727
					c-0.299-0.915-0.787-1.364-1.657-1.656c-4.074-1.37-8.256-2.218-12.528-2.598c-1.279-0.114-2.576-0.018-3.933-0.018
					c2.39,3.175,4.74,6.296,7.089,9.418c0.695,0.924,1.209,2.255,2.132,2.663c0.974,0.431,2.336-0.061,3.529-0.073
					C147.823,429.028,150.493,429.047,153.287,429.047z M102.626,438.878c-0.05-0.136-0.099-0.273-0.149-0.409
					c-1.112,0-2.224,0.012-3.336-0.002c-6.185-0.079-12.131-1.353-17.87-3.622c-1.435-0.567-2.836-1.224-2.724-3.177
					c-0.479-0.045-0.882-0.083-1.475-0.139c0.287,0.465,0.437,0.739,0.616,0.993c4.339,6.155,10.178,10.431,16.98,13.474
					c0.328,0.147,1.002-0.033,1.28-0.303c1.028-0.999,1.928-2.128,2.931-3.154C100.099,441.291,101.374,440.096,102.626,438.878z
					 M102.847,436.612c-2.843-2.534-5.567-4.927-8.241-7.373c-0.568-0.52-1.031-0.501-1.712-0.305
					c-2.913,0.837-5.835,1.647-8.779,2.363c-1.242,0.302-2.546,0.349-3.866,0.517C81.781,434.434,96.186,437.479,102.847,436.612z
					 M149.991,442.36c3.048-1.419,6.006-2.79,8.958-4.172c2.978-1.395,6.078-2.298,9.434-2.39c-3.868-2.274-7.99-3.677-12.406-4.34
					C153.98,435.095,152.01,438.684,149.991,442.36z M170.29,434.364c-1.586-3.27-14.351-12.67-17.955-13.002
					c0.92,2.434,1.851,4.808,2.706,7.208c0.286,0.802,0.797,1.062,1.571,1.211c1.681,0.324,3.397,0.596,5.001,1.164
					C164.598,432.003,167.512,433.257,170.29,434.364z"/>
				<path style="fill:#32384C;" d="M67.31,418.944c-0.026-3.555,2.245-5.895,5.766-5.94c3.18-0.04,5.348,2.233,5.359,5.621
					c0.012,3.542-2.184,5.974-5.437,6.019C69.59,424.692,67.335,422.434,67.31,418.944z"/>
				<path style="fill:#32384C;" d="M63.882,403.352c2.075-0.001,3.713,1.368,3.709,3.101c-0.004,1.944-1.555,3.569-3.439,3.604
					c-1.699,0.031-3.219-1.63-3.208-3.506C60.956,404.588,62.09,403.353,63.882,403.352z"/>
				<path style="fill:#32384C;" d="M60.39,414.237c1.71,0.023,2.605,0.866,2.566,2.416c-0.043,1.707-1.439,3.327-2.847,3.303
					c-1.394-0.023-2.589-1.551-2.533-3.239C57.63,415.062,58.594,414.213,60.39,414.237z"/>
			</g>
		</g>
		<g>
			<path style="fill:#91E2D8;" d="M425.53,436.96c-5.86,4.14-11.81,8.25-18.29,11.39c-5.7,2.76-11.75,4.76-18.1,5.19
				c-6.91,0.46-13.63-1.39-20.16-3.45c-6.73-2.11-13.38-4.49-19.95-7.06c-5.76-2.26-12.21-4.95-18.4-2.8
				c-1.28,0.45-2.73-0.51-3.07-1.75c-0.26-0.92,0.05-1.79,0.67-2.4c0.12-0.34,0.3-0.66,0.53-0.96c4.42-5.57,10.91-9.17,17.26-12.1
				c6.42-2.96,13.1-4.83,20.22-4.25c6.94,0.56,13.61,2.72,20.13,5.05c12.18,4.36,24.66,9.92,37.9,8.49
				c1.08-0.12,2.14,0.85,2.41,1.83C426.99,435.28,426.45,436.32,425.53,436.96z"/>
			<g>
				<path style="fill:#32384C;" d="M392.988,401.582c4.348-2.128,8.497-4.159,12.649-6.191c3.085,4.031,7.041,7.11,11.333,9.79
					c2.28,1.423,4.76,2.268,7.483,2.218c2.998-0.055,4.239-2.095,2.712-4.673c-2.776-4.688-6.933-7.549-12.24-8.7
					c-1.733-0.376-3.506-0.57-5.451-0.878c0.919-0.605,1.743-1.078,2.488-1.653c2.307-1.781,4.571-3.617,6.879-5.396
					c0.592-0.456,1.304-0.753,1.924-1.177c3.748-2.57,7.193-5.468,9.851-9.206c1.224-1.722,2.075-3.605,2.374-5.703
					c0.182-1.272,0.097-2.57-1.1-3.332c-1.248-0.795-2.555-0.41-3.533,0.515c-1.381,1.304-2.756,2.669-3.851,4.209
					c-1.925,2.709-3.406,5.668-4.449,8.858c-1.207,3.692-3.89,6.235-7.009,8.369c-0.916,0.627-1.843,1.236-3.017,2.022
					c0.693-1.833,1.282-3.374,1.859-4.92c1.098-2.94,2-5.95,1.708-9.114c-0.14-1.512-0.603-3.056-1.235-4.443
					c-0.654-1.435-2.063-1.73-3.316-0.763c-0.851,0.657-1.723,1.554-2.09,2.529c-1.996,5.3-3.014,10.756-2.04,16.444
					c0.148,0.862,0.249,1.738,0.284,2.61c0.01,0.235-0.245,0.595-0.472,0.71c-3.532,1.78-7.078,3.53-10.625,5.282
					c-0.056,0.028-0.149-0.019-0.255-0.035c1.242-1.7,2.524-3.353,3.695-5.081c2.281-3.366,4.07-6.965,4.91-10.982
					c0.025-0.117,0.053-0.234,0.07-0.353c0.259-1.831-0.4-3.547-1.575-4.104c-1.08-0.512-2.745-0.077-3.865,1.466
					c-1.563,2.154-3.182,4.371-4.189,6.804c-1.843,4.453-3.782,8.912-4.575,13.734c-0.055,0.335-0.317,0.808-0.595,0.909
					c-3.921,1.428-7.86,2.803-11.796,4.191c-0.073-0.147-0.146-0.294-0.219-0.441c0.3-0.278,0.598-0.558,0.899-0.834
					c4.401-4.03,7.759-8.725,9.031-14.658c0.287-1.338,0.284-2.791,0.126-4.158c-0.27-2.336-2.264-3.113-4.086-1.63
					c-2.943,2.394-4.984,5.533-6.644,8.865c-2.102,4.219-4.022,8.542-4.935,13.214c-0.143,0.732-0.473,0.95-1.143,1.102
					c-4.693,1.064-9.45,1.588-14.247,1.818c-0.239,0.011-0.531-0.024-0.703,0.097c-0.295,0.209-0.769,0.609-0.712,0.778
					c0.111,0.333,0.512,0.764,0.829,0.796c0.868,0.088,1.755,0.004,2.633-0.036c7.518-0.343,14.78-2.073,21.981-4.104
					c2.498-0.705,4.963-1.531,7.422-2.362c0.678-0.229,1.022-0.21,1.433,0.477c0.652,1.09,1.374,2.187,2.273,3.07
					c4.413,4.331,9.241,8.136,14.713,11.059c1.885,1.007,3.895,1.652,6.081,1.596c3.111-0.08,4.451-2.072,3.168-4.916
					c-1.321-2.928-3.69-5.003-6.138-6.947c-3.982-3.162-8.609-5.014-13.451-6.39C393.899,401.835,393.554,401.74,392.988,401.582z"
					/>
				<path style="fill:#32384C;" d="M426.204,433.063c-0.361,0.752-0.81,1.474-1.297,2.153c-3.135,4.379-6.952,8.04-11.578,10.822
					c-11.779,7.083-24.449,9.95-38.152,8.233c-7.812-0.979-14.951-3.981-22.057-7.057c-4.355-1.885-8.519-4.206-12.813-6.239
					c-2.91-1.378-6.042-1.84-9.238-1.594c-0.851,0.066-1.667,0.596-2.495,0.923c-0.43,0.17-0.851,0.363-1.276,0.545
					c-0.085-0.497-0.343-1.039-0.227-1.483c0.622-2.382,1.973-4.368,3.688-6.088c6.603-6.62,14.213-11.639,23.243-14.302
					c6.983-2.059,14.112-2.753,21.349-1.813c6.958,0.904,13.499,3.268,19.925,5.965c4.418,1.855,8.728,3.994,13.221,5.64
					c5.294,1.939,10.707,3.653,16.324,2.45C426.282,431.182,426.769,431.886,426.204,433.063z M372.884,451.339
					c-3.3-4.997-6.592-10-9.922-14.977c-0.709-1.059-1.549-2.033-2.362-3.018c-0.186-0.225-0.497-0.429-0.779-0.477
					c-4.172-0.714-8.342-0.562-12.704,0.022c0.202,0.453,0.327,0.81,0.51,1.133c2.083,3.68,4.166,7.361,6.279,11.024
					c0.203,0.353,0.563,0.69,0.931,0.861c5.55,2.586,11.212,4.862,17.252,6.054c0.235,0.046,0.47,0.098,0.707,0.12
					c0.109,0.01,0.223-0.046,0.403-0.088C373.084,451.753,373.009,451.529,372.884,451.339z M383.243,436.171
					c3.688,0.678,7.383,1.322,11.088,1.899c0.552,0.086,1.317-0.091,1.738-0.44c3.098-2.571,6.134-5.218,9.215-7.862
					c-0.176-0.204-0.23-0.324-0.319-0.362c-5.243-2.256-10.495-4.492-15.729-6.769c-0.865-0.376-1.337-0.157-1.876,0.575
					c-2.77,3.759-5.595,7.478-8.399,11.212c-0.117,0.155-0.217,0.323-0.441,0.658C380.168,435.467,381.693,435.886,383.243,436.171z
					 M376.813,419.201c-1.554-0.325-3.161-0.414-4.75-0.534c-0.374-0.028-0.923,0.129-1.136,0.401
					c-3.078,3.924-6.113,7.882-9.155,11.834c-0.045,0.058-0.044,0.151-0.107,0.384c0.885,0.169,1.768,0.312,2.638,0.507
					c3.66,0.818,7.313,1.67,10.979,2.458c0.478,0.103,1.229,0.104,1.502-0.183c3.59-3.764,6.513-8.043,9.641-12.611
					C383.08,420.662,379.962,419.859,376.813,419.201z M379.449,440.903c-0.574-0.865-1.354-1.613-1.814-2.528
					c-0.832-1.658-2.14-2.353-3.907-2.695c-3.48-0.674-6.922-1.54-10.37-2.324c-0.067,0.195-0.132,0.291-0.108,0.327
					c3.58,5.386,7.166,10.769,10.752,16.151c0.222,0.333,0.525,0.637,0.65,1.003c0.539,1.585,1.756,1.979,3.249,1.975
					c3.023-0.009,6.047-0.003,9.389-0.003C384.582,448.692,382.027,444.79,379.449,440.903z M401.733,446.093
					c-1.957-1.928-3.965-3.806-5.983-5.671c-0.299-0.276-0.747-0.463-1.154-0.538c-4.9-0.9-9.804-1.772-14.709-2.646
					c-0.227-0.04-0.462-0.032-0.8-0.053c0.141,0.297,0.215,0.517,0.339,0.704c2.711,4.089,5.427,8.175,8.143,12.261
					c1.732,2.605,1.756,2.706,4.879,1.967c3.409-0.807,6.77-1.822,10.147-2.763c0.416-0.116,0.805-0.327,1.408-0.577
					C403.167,447.779,402.518,446.867,401.733,446.093z M356.009,430.725c1.193,0.013,2.556,0.504,3.529,0.073
					c0.923-0.408,1.436-1.739,2.132-2.663c2.349-3.122,4.699-6.243,7.089-9.418c-1.357,0-2.654-0.096-3.933,0.018
					c-4.273,0.38-8.454,1.228-12.528,2.598c-0.87,0.293-1.358,0.741-1.657,1.656c-0.852,2.613-1.844,5.18-2.766,7.727
					C350.67,430.717,353.34,430.697,356.009,430.725z M402.284,444.209c1.003,1.026,1.903,2.155,2.931,3.154
					c0.278,0.27,0.952,0.45,1.28,0.303c6.802-3.043,12.641-7.32,16.98-13.474c0.179-0.254,0.329-0.528,0.616-0.993
					c-0.593,0.056-0.996,0.094-1.475,0.139c0.112,1.953-1.289,2.61-2.724,3.177c-5.739,2.269-11.685,3.543-17.87,3.622
					c-1.112,0.014-2.224,0.002-3.336,0.002c-0.05,0.136-0.099,0.273-0.149,0.409C399.788,441.765,401.064,442.96,402.284,444.209z
					 M420.914,433.483c-1.32-0.168-2.624-0.215-3.867-0.517c-2.944-0.716-5.867-1.526-8.779-2.363
					c-0.681-0.196-1.144-0.214-1.712,0.305c-2.674,2.447-5.397,4.839-8.241,7.373C404.977,439.148,419.381,436.103,420.914,433.483z
					 M345.185,433.126c-4.416,0.663-8.538,2.067-12.406,4.34c3.356,0.093,6.456,0.996,9.434,2.39
					c2.952,1.383,5.91,2.753,8.958,4.172C349.153,440.353,347.183,436.765,345.185,433.126z M339.549,432.615
					c1.604-0.568,3.32-0.84,5.001-1.164c0.774-0.149,1.285-0.409,1.571-1.211c0.855-2.401,1.786-4.774,2.706-7.208
					c-3.604,0.331-16.369,9.732-17.955,13.002C333.65,434.927,336.564,433.673,339.549,432.615z"/>
				<path style="fill:#32384C;" d="M433.853,420.614c0.026-3.555-2.245-5.895-5.766-5.94c-3.18-0.04-5.348,2.233-5.359,5.621
					c-0.012,3.542,2.184,5.974,5.437,6.019C431.573,426.362,433.827,424.103,433.853,420.614z"/>
				<path style="fill:#32384C;" d="M437.281,405.021c-2.075-0.001-3.713,1.368-3.709,3.101c0.004,1.944,1.555,3.569,3.439,3.604
					c1.699,0.031,3.219-1.63,3.208-3.506C440.207,406.258,439.072,405.022,437.281,405.021z"/>
				<path style="fill:#32384C;" d="M440.772,415.906c-1.71,0.023-2.605,0.866-2.566,2.416c0.043,1.707,1.439,3.327,2.847,3.303
					c1.394-0.023,2.589-1.551,2.533-3.239C443.532,416.732,442.568,415.882,440.772,415.906z"/>
			</g>
		</g>
	</g>
	<g>
		<path style="fill:#32384C;" d="M98.955,263.984c-0.141-0.434-0.382-0.809-0.724-1.126c-0.317-0.341-0.693-0.583-1.126-0.724
			c-0.417-0.219-0.867-0.32-1.348-0.301c-0.31,0.042-0.62,0.083-0.93,0.125c-0.593,0.166-1.108,0.466-1.544,0.9
			c-0.182,0.236-0.365,0.472-0.547,0.708c-0.317,0.546-0.476,1.135-0.478,1.767v0.556c-0.018,0.482,0.082,0.931,0.301,1.349
			c0.141,0.434,0.382,0.809,0.724,1.126c0.317,0.341,0.693,0.583,1.126,0.724c0.417,0.219,0.867,0.32,1.349,0.301
			c0.31-0.042,0.62-0.083,0.93-0.125c0.593-0.166,1.108-0.466,1.544-0.9c0.182-0.236,0.365-0.472,0.547-0.708
			c0.317-0.546,0.476-1.135,0.478-1.767v-0.556C99.275,264.85,99.174,264.401,98.955,263.984z"/>
		<path style="fill:#32384C;" d="M132.491,218.255c-0.166-0.593-0.466-1.108-0.9-1.544c-0.236-0.182-0.472-0.365-0.708-0.547
			c-0.546-0.317-1.135-0.476-1.766-0.478h-0.556c-0.482-0.018-0.931,0.082-1.349,0.301c-0.434,0.141-0.809,0.382-1.126,0.724
			c-0.341,0.317-0.583,0.693-0.724,1.126c-0.219,0.417-0.32,0.867-0.301,1.348c0.042,0.31,0.083,0.62,0.125,0.93
			c0.166,0.593,0.466,1.108,0.9,1.544c0.236,0.182,0.472,0.365,0.708,0.547c0.546,0.317,1.135,0.476,1.767,0.478h0.556
			c0.482,0.018,0.931-0.082,1.348-0.301c0.434-0.141,0.809-0.382,1.126-0.724c0.341-0.317,0.583-0.692,0.724-1.126
			c0.219-0.417,0.32-0.867,0.301-1.349C132.574,218.875,132.532,218.565,132.491,218.255z"/>
		<path style="fill:#32384C;" d="M100.244,197.683c-0.166-0.593-0.466-1.108-0.9-1.544c-0.236-0.182-0.472-0.365-0.708-0.547
			c-0.546-0.317-1.135-0.476-1.767-0.478h-0.556c-0.482-0.018-0.931,0.082-1.349,0.301c-0.434,0.141-0.809,0.382-1.126,0.724
			c-0.341,0.317-0.583,0.692-0.724,1.126c-0.219,0.417-0.32,0.867-0.301,1.349c0.042,0.31,0.083,0.62,0.125,0.93
			c0.166,0.593,0.466,1.108,0.9,1.544c0.236,0.182,0.472,0.365,0.708,0.547c0.546,0.317,1.135,0.476,1.767,0.478h0.556
			c0.482,0.018,0.931-0.082,1.349-0.301c0.434-0.141,0.809-0.382,1.126-0.724c0.341-0.317,0.583-0.692,0.724-1.126
			c0.219-0.417,0.32-0.867,0.301-1.348C100.327,198.304,100.285,197.994,100.244,197.683z"/>
		<path style="fill:#32384C;" d="M379.865,210.681c-4.504,0-4.512,7,0,7C384.369,217.681,384.376,210.681,379.865,210.681z"/>
		<path style="fill:#32384C;" d="M421.426,205.605c-0.141-0.434-0.382-0.809-0.724-1.126c-0.317-0.341-0.693-0.583-1.126-0.724
			c-0.417-0.219-0.867-0.32-1.349-0.301c-0.31,0.042-0.62,0.083-0.93,0.125c-0.593,0.166-1.108,0.466-1.544,0.9
			c-0.182,0.236-0.365,0.472-0.547,0.708c-0.317,0.546-0.476,1.135-0.478,1.767v0.556c-0.018,0.482,0.082,0.931,0.301,1.348
			c0.141,0.434,0.382,0.809,0.724,1.126c0.317,0.341,0.693,0.583,1.126,0.724c0.417,0.219,0.867,0.32,1.348,0.301
			c0.31-0.042,0.62-0.083,0.93-0.125c0.593-0.166,1.108-0.466,1.544-0.9c0.182-0.236,0.365-0.472,0.547-0.708
			c0.317-0.546,0.476-1.135,0.478-1.767v-0.556C421.746,206.472,421.646,206.022,421.426,205.605z"/>
		<path style="fill:#32384C;" d="M431.99,270.655c-0.141-0.434-0.382-0.809-0.724-1.126c-0.236-0.182-0.472-0.365-0.708-0.547
			c-0.546-0.317-1.135-0.476-1.767-0.478c-0.31,0.042-0.62,0.083-0.93,0.125c-0.593,0.166-1.108,0.466-1.544,0.9
			c-0.185,0.185-0.371,0.371-0.556,0.556c-0.341,0.317-0.583,0.693-0.724,1.126c-0.219,0.417-0.32,0.867-0.301,1.348
			c-0.018,0.482,0.082,0.931,0.301,1.349c0.141,0.434,0.382,0.809,0.724,1.126c0.236,0.182,0.472,0.365,0.708,0.547
			c0.546,0.317,1.135,0.476,1.767,0.478c0.31-0.042,0.62-0.083,0.93-0.125c0.593-0.166,1.108-0.466,1.544-0.9
			c0.185-0.185,0.371-0.371,0.556-0.556c0.341-0.317,0.583-0.692,0.724-1.126c0.219-0.417,0.32-0.867,0.301-1.348
			C432.31,271.522,432.209,271.072,431.99,270.655z"/>
		<path style="fill:#91E2D8;" d="M98.75,236.26c-0.084-0.199-0.168-0.398-0.252-0.597c-0.222-0.376-0.521-0.675-0.897-0.897
			c-0.369-0.188-0.738-0.376-1.108-0.564c-0.287-0.183-0.597-0.282-0.93-0.297c-0.332-0.074-0.665-0.06-0.997,0.045
			c-0.325,0.077-0.609,0.227-0.85,0.448c-0.272,0.176-0.487,0.41-0.644,0.701c-0.084,0.199-0.168,0.398-0.252,0.597
			c-0.119,0.443-0.119,0.886,0,1.329c0.084,0.199,0.168,0.398,0.252,0.597c0.222,0.376,0.521,0.675,0.897,0.897
			c0.369,0.188,0.738,0.376,1.108,0.564c0.287,0.183,0.597,0.282,0.93,0.297c0.332,0.074,0.665,0.06,0.997-0.045
			c0.325-0.077,0.609-0.227,0.85-0.447c0.272-0.176,0.487-0.41,0.644-0.701c0.084-0.199,0.168-0.398,0.252-0.597
			C98.869,237.146,98.869,236.703,98.75,236.26z"/>
		<path style="fill:#91E2D8;" d="M135.848,189.867c-0.101-0.31-0.273-0.578-0.517-0.805c-0.226-0.244-0.495-0.416-0.805-0.517
			c-0.298-0.156-0.619-0.228-0.963-0.215c-0.222,0.03-0.443,0.06-0.665,0.089c-0.424,0.119-0.791,0.333-1.103,0.643
			c-0.13,0.169-0.261,0.337-0.391,0.506c-0.226,0.39-0.34,0.811-0.341,1.262v0.556c-0.013,0.344,0.059,0.665,0.215,0.963
			c0.101,0.31,0.273,0.578,0.517,0.805c0.226,0.244,0.495,0.416,0.805,0.517c0.298,0.156,0.619,0.228,0.963,0.215
			c0.221-0.03,0.443-0.06,0.665-0.089c0.423-0.119,0.791-0.333,1.103-0.643c0.13-0.169,0.261-0.337,0.391-0.506
			c0.226-0.39,0.34-0.811,0.341-1.262v-0.556C136.077,190.486,136.005,190.165,135.848,189.867z"/>
		<path style="fill:#91E2D8;" d="M86.861,209.458c-3.217,0-3.223,5,0,5C90.078,214.458,90.084,209.458,86.861,209.458z"/>
		<path style="fill:#91E2D8;" d="M392.157,257.141c-0.101-0.31-0.273-0.578-0.517-0.805c-0.226-0.244-0.495-0.416-0.805-0.517
			c-0.298-0.156-0.619-0.228-0.963-0.215c-0.221,0.03-0.443,0.06-0.665,0.089c-0.424,0.119-0.791,0.333-1.103,0.643
			c-0.13,0.169-0.261,0.337-0.391,0.506c-0.226,0.39-0.34,0.811-0.341,1.262v0.556c-0.013,0.344,0.059,0.665,0.215,0.963
			c0.101,0.31,0.273,0.578,0.517,0.805c0.226,0.244,0.495,0.416,0.805,0.517c0.298,0.157,0.619,0.228,0.963,0.215
			c0.222-0.03,0.443-0.06,0.665-0.089c0.424-0.119,0.791-0.333,1.103-0.643c0.13-0.169,0.261-0.337,0.391-0.506
			c0.226-0.39,0.34-0.81,0.341-1.262v-0.556C392.386,257.76,392.314,257.439,392.157,257.141z"/>
		<path style="fill:#91E2D8;" d="M423.418,234.644c-0.084-0.199-0.168-0.398-0.252-0.597c-0.222-0.376-0.521-0.675-0.897-0.897
			c-0.371-0.185-0.741-0.371-1.112-0.556c-0.287-0.183-0.597-0.282-0.93-0.297c-0.332-0.074-0.665-0.06-0.997,0.045
			c-0.325,0.077-0.609,0.227-0.85,0.448c-0.272,0.176-0.487,0.41-0.644,0.701c-0.084,0.199-0.168,0.398-0.252,0.597
			c-0.119,0.443-0.119,0.886,0,1.329c0.084,0.199,0.168,0.398,0.252,0.597c0.222,0.376,0.521,0.675,0.897,0.897
			c0.371,0.185,0.741,0.371,1.112,0.556c0.287,0.183,0.597,0.282,0.93,0.297c0.332,0.074,0.665,0.06,0.997-0.045
			c0.325-0.077,0.609-0.227,0.85-0.447c0.272-0.176,0.487-0.41,0.644-0.701c0.084-0.199,0.168-0.398,0.252-0.597
			C423.537,235.53,423.537,235.087,423.418,234.644z"/>
		<path style="fill:#91E2D8;" d="M436.019,251.156c-3.217,0-3.223,5,0,5C439.237,256.156,439.242,251.156,436.019,251.156z"/>
		<path style="fill:#91E2D8;" d="M373.749,184.438c-3.217,0-3.223,5,0,5C376.966,189.438,376.972,184.438,373.749,184.438z"/>
	</g>
</g>
</svg>
